STARTFONT 2.1
FONT -FreeType-Action Man-Medium-R-Normal--241-1320-132-132-P-934-ISO10646-1
SIZE 132 132 132
FONTBOUNDINGBOX 209 273 0 -38
STARTPROPERTIES 16
FOUNDRY "FreeType"
FAMILY_NAME "Action Man"
WEIGHT_NAME "Medium"
SLANT "R"
SETWIDTH_NAME "Normal"
ADD_STYLE_NAME ""
PIXEL_SIZE 175
POINT_SIZE 1320
RESOLUTION_X 132
RESOLUTION_Y 132
SPACING "P"
AVERAGE_WIDTH 934
CHARSET_REGISTRY "ISO10646"
CHARSET_ENCODING "1"
FONT_ASCENT 159
FONT_DESCENT 38
ENDPROPERTIES
DEFAULT_CHAR 32
CHARS 223
STARTCHAR 0020
ENCODING 32
SWIDTH 376 0
DWIDTH 91 0
BBX 0 0 0 0
BITMAP
ENDCHAR
STARTCHAR 0021
ENCODING 33
SWIDTH 223 0
DWIDTH 54 0
BBX 49 157 8 1
BITMAP
00000000030000
000000001FE000
000000007FF000
00000000FFF800
00000001FFFC00
00000003FFFC00
00000007FFFE00
0000000FFFFE00
0000000FFFFF00
0000001FFFFF00
0000001FFFFF00
0000001FFFFF00
0000003FFFFF00
0000003FFFFF00
0000007FFFFF00
0000007FFFFF80
0000007FFFFF80
000000FFFFFF80
000000FFFFFF80
000000FFFFFF00
000000FFFFFF00
000001FFFFFF00
000001FFFFFF00
000001FFFFFF00
000001FFFFFF00
000001FFFFFF00
000001FFFFFF00
000003FFFFFF00
000003FFFFFF00
000003FFFFFF00
000003FFFFFF00
000003FFFFFE00
000003FFFFFE00
000003FFFFFE00
000003FFFFFE00
000003FFFFFE00
000003FFFFFE00
000007FFFFFC00
000007FFFFFC00
000007FFFFFC00
000007FFFFFC00
000007FFFFFC00
000007FFFFF800
000007FFFFF800
000007FFFFF800
000007FFFFF800
000007FFFFF000
000007FFFFF000
000007FFFFF000
00000FFFFFF000
00000FFFFFE000
00000FFFFFE000
00000FFFFFE000
00000FFFFFE000
00000FFFFFC000
00001FFFFFC000
00001FFFFFC000
00001FFFFFC000
00001FFFFF8000
00001FFFFF8000
00003FFFFF8000
00003FFFFF8000
00003FFFFF0000
00003FFFFF0000
00003FFFFF0000
00007FFFFE0000
00007FFFFE0000
00007FFFFE0000
00007FFFFE0000
00007FFFFC0000
00007FFFFC0000
0000FFFFFC0000
0000FFFFF80000
0000FFFFF80000
0000FFFFF80000
0000FFFFF00000
0001FFFFF00000
0001FFFFF00000
0001FFFFE00000
0001FFFFE00000
0001FFFFE00000
0001FFFFC00000
0003FFFFC00000
0003FFFFC00000
0003FFFFC00000
0003FFFF800000
0003FFFF800000
0003FFFF800000
0003FFFF000000
0007FFFF000000
0007FFFF000000
0007FFFE000000
0007FFFE000000
0007FFFC000000
0007FFFC000000
0007FFFC000000
0007FFF8000000
0007FFF8000000
0007FFF0000000
0007FFF0000000
0007FFE0000000
0007FFE0000000
0007FFC0000000
0007FF80000000
0007FF80000000
0003FF00000000
0003FE00000000
0003FC00000000
0001F800000000
0000F000000000
00006000000000
00000000000000
00000000000000
00000000000000
00000000000000
00000000000000
00000000000000
00000000000000
00000000000000
00000000000000
00000000000000
00000000000000
00000000000000
00000000000000
00000000000000
00000000000000
00000000000000
001FE000000000
00FFFC00000000
03FFFE00000000
0FFFFF80000000
1FFFFF80000000
3FFFFFC0000000
7FFFFFE0000000
7FFFFFE0000000
FFFFFFF0000000
FFFFFFF0000000
FFFFFFF0000000
FFFFFFF0000000
FFFFFFF8000000
FFFFFFF8000000
FFFFFFF8000000
FFFFFFF8000000
FFFFFFF8000000
7FFFFFF0000000
7FFFFFF0000000
7FFFFFF0000000
3FFFFFF0000000
3FFFFFE0000000
1FFFFFE0000000
1FFFFFC0000000
0FFFFFC0000000
07FFFF80000000
03FFFF00000000
01FFFC00000000
007FF800000000
001FC000000000
ENDCHAR
STARTCHAR 0022
ENCODING 34
SWIDTH 342 0
DWIDTH 83 0
BBX 57 63 24 97
BITMAP
0003C00000000000
000FE00000030000
001FF000001FC000
007FF800003FE000
007FF800007FF000
00FFFC00007FF800
01FFFC0000FFFC00
01FFFC0000FFFC00
03FFFC0001FFFC00
07FFFE0001FFFE00
07FFFE0001FFFE00
07FFFE0001FFFE00
0FFFFE0003FFFF00
0FFFFE0003FFFF00
0FFFFE0003FFFF00
1FFFFE0003FFFF00
1FFFFE0003FFFF00
1FFFFE0003FFFF00
1FFFFE0003FFFF00
3FFFFE0003FFFF80
3FFFFE0007FFFF80
3FFFFE0007FFFF80
3FFFFE0007FFFF80
3FFFFE0007FFFF80
3FFFFE0007FFFF80
7FFFFE0007FFFF80
7FFFFE0007FFFF00
7FFFFE0007FFFF00
7FFFFE0007FFFF00
7FFFFE0007FFFF00
7FFFFC0007FFFF00
7FFFFC0007FFFF00
7FFFFC0007FFFF00
7FFFFC000FFFFF00
7FFFFC000FFFFF00
7FFFFC000FFFFF00
7FFFFC000FFFFF00
7FFFFC000FFFFF00
7FFFFC000FFFFF00
FFFFFC000FFFFF00
FFFFF8000FFFFE00
FFFFF8000FFFFE00
FFFFF8000FFFFE00
7FFFF8000FFFFE00
7FFFF8000FFFFE00
7FFFF8001FFFFC00
7FFFF8001FFFFC00
7FFFF8001FFFFC00
7FFFF8001FFFFC00
7FFFF0001FFFF800
7FFFF0001FFFF800
3FFFF0001FFFF800
3FFFF0001FFFF800
3FFFE0001FFFF000
1FFFE0001FFFF000
1FFFC0000FFFE000
0FFFC0000FFFE000
0FFF80000FFFC000
07FF80000FFF8000
03FF000007FF0000
00FE000007FE0000
0030000003FC0000
0000000000F00000
ENDCHAR
STARTCHAR 0023
ENCODING 35
SWIDTH 475 0
DWIDTH 115 0
BBX 100 95 16 56
BITMAP
000000000F8000000100000000
000000003FC0000007F0000000
00000000FFE000000FF8000000
00000001FFF000001FFE000000
00000003FFF000001FFF000000
00000003FFF800003FFF800000
00000007FFF800003FFF800000
0000000FFFF800003FFFC00000
0000000FFFF800007FFFE00000
0000000FFFF000007FFFE00000
0000001FFFF000007FFFE00000
0000001FFFF00000FFFFE00000
0000001FFFF00000FFFFE00000
0000003FFFF00000FFFFE00000
0000003FFFF00000FFFFE00000
0000003FFFF00000FFFFE00000
0000003FFFF00000FFFFE00000
0000007FFFE00000FFFFE00000
000001FFFFFFFE01FFFFE00000
0001FFFFFFFFFFFFFFFFE00000
001FFFFFFFFFFFFFFFFFFF8000
007FFFFFFFFFFFFFFFFFFFF000
00FFFFFFFFFFFFFFFFFFFFFC00
03FFFFFFFFFFFFFFFFFFFFFF00
07FFFFFFFFFFFFFFFFFFFFFF80
07FFFFFFFFFFFFFFFFFFFFFFC0
0FFFFFFFFFFFFFFFFFFFFFFFE0
0FFFFFFFFFFFFFFFFFFFFFFFE0
0FFFFFFFFFFFFFFFFFFFFFFFE0
0FFFFFFFFFFFFFFFFFFFFFFFE0
0FFFFFFFFFFFFFFFFFFFFFFFF0
0FFFFFFFFFFFFFFFFFFFFFFFE0
07FFFFFFFFFFFFFFFFFFFFFFE0
07FFFFFFFFFFFFFFFFFFFFFFE0
03FFFFFFFFFFFFFFFFFFFFFFC0
01FFFFFFFFFFFFFFFFFFFFFF80
00FFFFFFFFFFFFFFFFFFFFFF00
001FE7FFFFC00003FFFFC07800
000001FFFFC00003FFFFC00000
000001FFFFC00003FFFF800000
000003FFFFC00003FFFF800000
000003FFFF800003FFFF800000
000003FFFF800003FFFF800000
000003FFFF800003FFFF800000
000003FFFF800003FFFF800000
000003FFFF800003FFFF800000
000003FFFF800003FFFF800000
000003FFFF800003FFFF800000
000003FFFF800003FFFF800000
000007FFFF800003FFFF800000
000007FFFF800007FFFF800000
000007FFFF800007FFFF000000
000007FFFF000007FFFF000000
000007FFFF000007FFFF000000
000007FFFF000007FFFF000000
000007FFFF000007FFFF000000
000007FFFF00001FFFFF800000
001FFFFFFFFFFFFFFFFFFFC000
01FFFFFFFFFFFFFFFFFFFFF800
07FFFFFFFFFFFFFFFFFFFFFE00
1FFFFFFFFFFFFFFFFFFFFFFF00
3FFFFFFFFFFFFFFFFFFFFFFF00
7FFFFFFFFFFFFFFFFFFFFFFF80
7FFFFFFFFFFFFFFFFFFFFFFF80
FFFFFFFFFFFFFFFFFFFFFFFF00
FFFFFFFFFFFFFFFFFFFFFFFF00
FFFFFFFFFFFFFFFFFFFFFFFF00
FFFFFFFFFFFFFFFFFFFFFFFE00
FFFFFFFFFFFFFFFFFFFFFFFE00
7FFFFFFFFFFFFFFFFFFFFFFC00
7FFFFFFFFFFFFFFFFFFFFFF800
3FFFFFFFFFFFFFFFFFFFFFF000
1FFFFFFFFFFFFFFFFFFFFFE000
07FFFFFFFFFFFFFFFFFFFFC000
0003FFFFFFFFFFFFFFFFFE0000
00001FFFFE007FFFFFF8000000
00001FFFFE00001FFFF8000000
00001FFFFE00001FFFF8000000
00001FFFFC00001FFFF8000000
00001FFFFC00001FFFF8000000
00001FFFFC00001FFFF0000000
00001FFFFC00001FFFF0000000
00001FFFFC00001FFFF0000000
00000FFFFC00001FFFF0000000
00000FFFFC00001FFFF0000000
00000FFFFC00001FFFE0000000
00000FFFFC00001FFFE0000000
00000FFFFC00001FFFE0000000
000007FFF800001FFFE0000000
000007FFF800000FFFE0000000
000007FFF000000FFFC0000000
000003FFE0000007FF80000000
000001FF80000007FF00000000
000000FF00000003FE00000000
0000007800000000F800000000
ENDCHAR
STARTCHAR 0024
ENCODING 36
SWIDTH 425 0
DWIDTH 103 0
BBX 98 175 9 -5
BITMAP
0000000000000007FC00000000
000000000000001FFF00000000
000000000000003FFFC0000000
000000000000007FFFE0000000
000000000000007FFFE0000000
00000000000000FFFFF0000000
00000000000001FFFFF8000000
00000000000001FFFFF8000000
00000000000003FFFFF8000000
00000000000003FFFFF8000000
00000000000003FFFFF8000000
00000000000007FFFFF8000000
00000000000007FFFFF8000000
00000000000007FFFFF8000000
0000000000000FFFFFF8000000
0000000000000FFFFFF0000000
0000000000000FFFFFF0000000
0000000000000FFFFFF0000000
0000000000001FFFFFF0000000
0000000000001FFFFFE0000000
0000000000001FFFFFE0000000
0000000000001FFFFFE0000000
0000000000001FFFFFC0000000
0000000000001FFFFFC0000000
0000000000003FFFFFC0000000
0000000000003FFFFFC0000000
0000000000003FFFFF80000000
0000000000003FFFFF80000000
0000000000003FFFFF80000000
0000000000007FFFFF00000000
0000000000007FFFFF00000000
0000000000007FFFFF00000000
0000000000007FFFFF00000000
0000000000007FFFFE00000000
0000000000007FFFFE00000000
000000000000FFFFFE00000000
000000000000FFFFFE00000000
000000000000FFFFFE00000000
000000000000FFFFFE00000000
000000000000FFFFFF00000000
000000000001FFFFFFF0000000
00000000003FFFFFFFFE000000
0000000003FFFFFFFFFF800000
000000003FFFFFFFFFFFE00000
00000003FFFFFFFFFFFFF80000
0000001FFFFFFFFFFFFFFE0000
0000007FFFFFFFFFFFFFFF0000
000003FFFFFFFFFFFFFFFFC000
00000FFFFFFFFFFFFFFFFFE000
00003FFFFFFFFFFFFFFFFFF000
0000FFFFFFFFFFFFFFFFFFFC00
0003FFFFFFFFFFFFFFFFFFFE00
0007FFFFFFFFFFFFFFFFFFFE00
001FFFFFFFFFFFFFFFFFFFFF00
003FFFFFFFFFFFFFFFFFFFFF80
007FFFFFFFFFFFFFFFFFFFFF80
00FFFFFFFFFFFFFFFFFFFFFF80
01FFFFFFFFFFFFFFFFFFFFFFC0
03FFFFFFFFFFFFFFFFFFFFFFC0
03FFFFFFFFFFFFFFFFFFFFFFC0
07FFFFFFFFFFFFFFFFFFFFFFC0
07FFFFFFFFFFFFF8000FFFFF80
07FFFFFFFFFFFFE000003FFF00
07FFFFFFFFFFFFC00000000000
07FFFFFFFFFFFFC00000000000
07FFFFFFFFFFFFC00000000000
07FFFFFFFFFFFFC00000000000
03FFFFFFFFFFFFC00000000000
03FFFFFFFFFFFFC00000000000
01FFFFFFFFFFFFE00000000000
01FFFFFFFFFFFFF00000000000
007FFFFFFFFFFFF80000000000
003FFFFFFFFFFFFC0000000000
001FFFFFFFFFFFFE0000000000
0007FFFFFFFFFFFF8000000000
0001FFFFFFFFFFFFC000000000
00003FFFFFFFFFFFF000000000
000007FFFFFFFFFFF800000000
0000007FFFFFFFFFFE00000000
0000000FFFFFFFFFFF80000000
00000001FFFFFFFFFFC0000000
000000001FFFFFFFFFF0000000
0000000003FFFFFFFFFC000000
00000000003FFFFFFFFF000000
000000000007FFFFFFFF800000
000000000001FFFFFFFFE00000
0000000000007FFFFFFFF00000
0000000000003FFFFFFFFC0000
0000000000001FFFFFFFFE0000
00000000000007FFFFFFFF0000
00000000000007FFFFFFFF8000
00000000000003FFFFFFFF8000
00000000000001FFFFFFFFC000
00000000000001FFFFFFFFE000
00000000000000FFFFFFFFE000
00000000000000FFFFFFFFF000
00000000000000FFFFFFFFF000
000000000000007FFFFFFFF000
000000000000007FFFFFFFF800
1E0000000000007FFFFFFFF800
3FE000000000007FFFFFFFF800
FFFC00000000007FFFFFFFF800
FFFF8000000000FFFFFFFFF800
FFFFF000000000FFFFFFFFF000
FFFFFE00000001FFFFFFFFF000
FFFFFFC0000003FFFFFFFFF000
FFFFFFF8000007FFFFFFFFE000
7FFFFFFF80001FFFFFFFFFE000
7FFFFFFFFC007FFFFFFFFFC000
7FFFFFFFFFFFFFFFFFFFFFC000
3FFFFFFFFFFFFFFFFFFFFF8000
1FFFFFFFFFFFFFFFFFFFFF0000
1FFFFFFFFFFFFFFFFFFFFF0000
0FFFFFFFFFFFFFFFFFFFFE0000
07FFFFFFFFFFFFFFFFFFFC0000
03FFFFFFFFFFFFFFFFFFF80000
03FFFFFFFFFFFFFFFFFFE00000
01FFFFFFFFFFFFFFFFFFC00000
00FFFFFFFFFFFFFFFFFF800000
003FFFFFFFFFFFFFFFFF000000
001FFFFFFFFFFFFFFFFC000000
000FFFFFFFFFFFFFFFF8000000
0007FFFFFFFFFFFFFFE0000000
0001FFFFFFFFFFFFFF80000000
00007FFFFFFFFFFFFE00000000
00001FFFFFFFFFFFF800000000
000007FFFFFFFFFFE000000000
000000FFFFFFFFFF0000000000
0000001FFFFFFFF00000000000
00000000FFFFFF000000000000
000000000FFFFF000000000000
000000000FFFFF000000000000
000000000FFFFF000000000000
000000000FFFFF000000000000
000000000FFFFF000000000000
000000000FFFFF000000000000
000000000FFFFF000000000000
000000001FFFFF000000000000
000000001FFFFE000000000000
000000001FFFFE000000000000
000000001FFFFE000000000000
000000001FFFFE000000000000
000000001FFFFE000000000000
000000001FFFFE000000000000
000000003FFFFE000000000000
000000003FFFFE000000000000
000000003FFFFE000000000000
000000003FFFFE000000000000
000000003FFFFE000000000000
000000007FFFFE000000000000
000000007FFFFE000000000000
000000007FFFFE000000000000
000000007FFFFE000000000000
000000007FFFFE000000000000
00000000FFFFFE000000000000
00000000FFFFFE000000000000
00000000FFFFFE000000000000
00000000FFFFFC000000000000
00000000FFFFFC000000000000
00000000FFFFFC000000000000
00000001FFFFFC000000000000
00000001FFFFFC000000000000
00000001FFFFFC000000000000
00000001FFFFFC000000000000
00000001FFFFF8000000000000
00000001FFFFF8000000000000
00000001FFFFF8000000000000
00000001FFFFF0000000000000
00000001FFFFF0000000000000
00000001FFFFE0000000000000
00000001FFFFC0000000000000
00000001FFFFC0000000000000
00000001FFFF00000000000000
000000007FFC00000000000000
000000001FE000000000000000
ENDCHAR
STARTCHAR 0025
ENCODING 37
SWIDTH 595 0
DWIDTH 144 0
BBX 121 181 17 -7
BITMAP
00000000000000000000000000078000
000000000000000000000000001FE000
000000000000000000000000003FF800
000000000000000000000000003FFC00
000000000000000000000000007FFE00
00000000000000000000000000FFFF00
00000000000000000000000001FFFF00
00000000000000000000000001FFFF80
00000000000000000000000003FFFF80
00000000000000000000000007FFFF80
00000000000000000000000007FFFF80
0000000000000000000000000FFFFF80
0000000000000000000000001FFFFF80
0000000000000000000000001FFFFF80
0000000000000000000000003FFFFF00
00000007FFF00000000000007FFFFF00
0000003FFFFE0000000000007FFFFF00
000001FFFFFF800000000000FFFFFE00
000003FFFFFFE00000000001FFFFFE00
00000FFFFFFFF00000000001FFFFFC00
00001FFFFFFFF80000000003FFFFFC00
00007FFFFFFFFC0000000007FFFFF800
0000FFFFFFFFFE0000000007FFFFF800
0001FFFFFFFFFF000000000FFFFFF000
0003FFFFFFFFFF000000000FFFFFF000
0003FFFFFFFFFF800000001FFFFFE000
0007FFFFFFFFFF800000003FFFFFE000
000FFFFFFFFFFFC00000003FFFFFC000
000FFFFFFFFFFFC00000007FFFFFC000
001FFFFFFFFFFFE0000000FFFFFF8000
003FFFFFFFFFFFE0000000FFFFFF0000
003FFFFFFFFFFFE0000001FFFFFF0000
007FFFFF1FFFFFE0000003FFFFFE0000
007FFFF801FFFFE0000003FFFFFE0000
00FFFFF000FFFFF0000007FFFFFC0000
00FFFFE0007FFFF000000FFFFFFC0000
01FFFFC0003FFFF000000FFFFFF80000
01FFFF80003FFFF000001FFFFFF00000
01FFFF00003FFFF000003FFFFFF00000
03FFFF00003FFFF000003FFFFFE00000
03FFFE00003FFFF000007FFFFFE00000
03FFFE00003FFFF00000FFFFFFC00000
07FFFE00003FFFF00000FFFFFF800000
07FFFC00003FFFF00001FFFFFF800000
07FFFC00003FFFF00003FFFFFF000000
0FFFFC00003FFFF00003FFFFFE000000
0FFFFC00003FFFF00007FFFFFE000000
0FFFF800003FFFF0000FFFFFFC000000
0FFFF800003FFFF0000FFFFFF8000000
0FFFF800003FFFF0001FFFFFF8000000
0FFFF800007FFFF0003FFFFFF0000000
1FFFF800007FFFF0003FFFFFE0000000
1FFFF800007FFFF0007FFFFFE0000000
1FFFF000007FFFF000FFFFFFC0000000
1FFFF00000FFFFE000FFFFFF80000000
1FFFF00000FFFFE001FFFFFF80000000
1FFFF00000FFFFE003FFFFFF00000000
1FFFF00001FFFFE003FFFFFE00000000
1FFFF80001FFFFE007FFFFFE00000000
1FFFF80003FFFFC00FFFFFFC00000000
1FFFF80007FFFFC00FFFFFF800000000
1FFFFC0007FFFFC01FFFFFF800000000
1FFFFC000FFFFF803FFFFFF000000000
1FFFFE003FFFFF803FFFFFE000000000
0FFFFF007FFFFF807FFFFFE000000000
0FFFFFFFFFFFFF00FFFFFFC000000000
0FFFFFFFFFFFFF00FFFFFF8000000000
0FFFFFFFFFFFFE01FFFFFF0000000000
07FFFFFFFFFFFE03FFFFFF0000000000
07FFFFFFFFFFFC03FFFFFE0000000000
07FFFFFFFFFFFC07FFFFFC0000000000
03FFFFFFFFFFF807FFFFFC0000000000
03FFFFFFFFFFF00FFFFFF80000000000
01FFFFFFFFFFF01FFFFFF00000000000
00FFFFFFFFFFE01FFFFFE00000000000
00FFFFFFFFFFC03FFFFFE00000000000
007FFFFFFFFF807FFFFFC00000000000
003FFFFFFFFF007FFFFF800000000000
003FFFFFFFFE00FFFFFF800000000000
001FFFFFFFFC01FFFFFF000000000000
0007FFFFFFF801FFFFFE000000000000
0003FFFFFFE003FFFFFE000000000000
0000FFFFFF8007FFFFFC000000000000
00003FFFFE0007FFFFF8000000000000
00000FFFF0000FFFFFF8000000000000
0000000000001FFFFFF0000000000000
0000000000001FFFFFE0000000000000
0000000000003FFFFFE0000000000000
0000000000007FFFFFC0000000000000
0000000000007FFFFF80000000000000
000000000000FFFFFF80000000000000
000000000001FFFFFF00000000000000
000000000001FFFFFE00000000000000
000000000003FFFFFE00000000000000
000000000007FFFFFC00000000000000
000000000007FFFFF800000000000000
00000000000FFFFFF800000000000000
00000000000FFFFFF000000000000000
00000000001FFFFFE000000000000000
00000000003FFFFFC000000000000000
00000000003FFFFFC000000000000000
00000000007FFFFF800000003C000000
0000000000FFFFFF0000003FFFE00000
0000000000FFFFFF000003FFFFF80000
0000000001FFFFFE00001FFFFFFE0000
0000000001FFFFFC00007FFFFFFF8000
0000000003FFFFFC0001FFFFFFFFC000
0000000007FFFFF80007FFFFFFFFE000
0000000007FFFFF0000FFFFFFFFFF000
000000000FFFFFF0001FFFFFFFFFF000
000000001FFFFFE0003FFFFFFFFFF800
000000001FFFFFC0007FFFFFFFFFF800
000000003FFFFFC000FFFFFFFFFFFC00
000000003FFFFF8000FFFFFFFFFFFC00
000000007FFFFF0001FFFFFFFFFFFE00
00000000FFFFFF0003FFFFFFFFFFFE00
00000000FFFFFE0003FFFFFFFFFFFF00
00000001FFFFFC0007FFFFFFFFFFFF00
00000003FFFFFC0007FFFFFFFFFFFF00
00000003FFFFF8000FFFFFFFFFFFFF00
00000007FFFFF0000FFFFFC03FFFFF00
00000007FFFFF0001FFFFF000FFFFF80
0000000FFFFFE0001FFFFE0007FFFF80
0000001FFFFFC0001FFFFC0007FFFF80
0000001FFFFFC0001FFFF80003FFFF80
0000003FFFFF80003FFFF80003FFFF80
0000007FFFFF00003FFFF00003FFFF80
0000007FFFFE00003FFFF00001FFFF80
000000FFFFFE00003FFFF00001FFFF80
000001FFFFFC00007FFFE00001FFFF80
000001FFFFF800007FFFE00001FFFF80
000003FFFFF800007FFFE00001FFFF80
000007FFFFF000007FFFE00001FFFF80
000007FFFFE000007FFFE00001FFFF00
00000FFFFFE000007FFFE00001FFFF00
00001FFFFFC00000FFFFC00001FFFF00
00001FFFFF800000FFFFC00001FFFF00
00003FFFFF800000FFFFC00001FFFF00
00007FFFFF000000FFFFC00003FFFF00
00007FFFFE000000FFFFC00003FFFE00
0000FFFFFE000000FFFFC00003FFFE00
0001FFFFFC000000FFFFC00003FFFE00
0001FFFFF8000001FFFFC00003FFFE00
0003FFFFF8000001FFFFC00007FFFC00
0007FFFFF0000001FFFFE00007FFFC00
0007FFFFE0000001FFFFE00007FFFC00
000FFFFFE0000001FFFFE0000FFFF800
000FFFFFC0000001FFFFF0000FFFF800
001FFFFF80000000FFFFF0001FFFF000
003FFFFF80000000FFFFF8003FFFF000
003FFFFF00000000FFFFFC007FFFE000
007FFFFF00000000FFFFFE01FFFFE000
00FFFFFE00000000FFFFFFFFFFFFC000
00FFFFFC00000000FFFFFFFFFFFFC000
01FFFFFC000000007FFFFFFFFFFF8000
01FFFFF8000000007FFFFFFFFFFF0000
03FFFFF0000000007FFFFFFFFFFF0000
07FFFFF0000000003FFFFFFFFFFE0000
07FFFFE0000000003FFFFFFFFFFC0000
0FFFFFC0000000003FFFFFFFFFF80000
0FFFFFC0000000001FFFFFFFFFF00000
1FFFFF80000000000FFFFFFFFFF00000
3FFFFF80000000000FFFFFFFFFE00000
3FFFFF000000000007FFFFFFFFC00000
7FFFFE000000000003FFFFFFFF000000
7FFFFE000000000003FFFFFFFE000000
7FFFFC000000000001FFFFFFFC000000
7FFFF80000000000007FFFFFF0000000
FFFFF80000000000003FFFFFE0000000
FFFFF00000000000001FFFFF00000000
FFFFF000000000000007FFFC00000000
FFFFE0000000000000007F0000000000
7FFFE000000000000000000000000000
7FFFC000000000000000000000000000
7FFFC000000000000000000000000000
3FFF8000000000000000000000000000
3FFF8000000000000000000000000000
1FFF0000000000000000000000000000
0FFF0000000000000000000000000000
03FC0000000000000000000000000000
00F80000000000000000000000000000
ENDCHAR
STARTCHAR 0026
ENCODING 38
SWIDTH 512 0
DWIDTH 124 0
BBX 105 158 16 -1
BITMAP
0000000000001FFFF00000000000
000000000003FFFFFFC000000000
00000000003FFFFFFFFC00000000
0000000001FFFFFFFFFF80000000
0000000007FFFFFFFFFFF0000000
000000001FFFFFFFFFFFFC000000
000000007FFFFFFFFFFFFE000000
00000000FFFFFFFFFFFFFF800000
00000003FFFFFFFFFFFFFFC00000
00000007FFFFFFFFFFFFFFE00000
0000000FFFFFFFFFFFFFFFF00000
0000003FFFFFFFFFFFFFFFF80000
0000007FFFFFFFFFFFFFFFFC0000
000000FFFFFFFFFFFFFFFFFC0000
000001FFFFFFFFFFFFFFFFFC0000
000007FFFFFFFFFFFFFFFFFE0000
00000FFFFFFFFFFFFFFFFFFE0000
00000FFFFFFFFFFFFFFFFFFC0000
00001FFFFFFFFFFFFFFFFFFC0000
00003FFFFFFFFFFFFFFFFFFC0000
00007FFFFFFFFFFFFFFFFFF80000
0000FFFFFFFFFFFFFFFFFFF80000
0000FFFFFFFFFFFFFFFFFFF00000
0001FFFFFFFFFFFFFFFFFFF00000
0003FFFFFFFFFFFFFFFFFFE00000
0003FFFFFFFF801FFFFFFFC00000
0007FFFFFFF800007FFFFF800000
0007FFFFFFE0000003FFFF800000
000FFFFFFFC00000001FFF000000
000FFFFFFF8000000000FC000000
000FFFFFFE000000000000000000
001FFFFFFE000000000000000000
001FFFFFFC000000000000000000
001FFFFFFC000000000000000000
001FFFFFFC000000000000000000
001FFFFFFC000000000000000000
003FFFFFFC000000000000000000
003FFFFFFC000000000000000000
003FFFFFFC000000000000000000
003FFFFFFC000000000000000000
003FFFFFFC000000000000000000
003FFFFFFC000000000000000000
003FFFFFFC000000000000000000
001FFFFFFC000000000000000000
001FFFFFFE000000000000000000
001FFFFFFE000000000000000000
000FFFFFFF000000000000000000
000FFFFFFF000000000000000000
000FFFFFFF800000000000000000
0007FFFFFFC00000000000000000
0007FFFFFFE00000000000000000
0003FFFFFFF800000000003FE000
0003FFFFFFFC0000000000FFF000
0001FFFFFFFF0000000001FFFC00
0001FFFFFFFFE000000003FFFE00
0001FFFFFFFFFE00000007FFFE00
0000FFFFFFFFFFE0000007FFFF00
00007FFFFFFFFFFE00000FFFFF00
00007FFFFFFFFFFFF0000FFFFF80
00003FFFFFFFFFFFFFC01FFFFF80
00001FFFFFFFFFFFFFFF1FFFFF80
00001FFFFFFFFFFFFFFFFFFFFF80
00000FFFFFFFFFFFFFFFFFFFFF80
000007FFFFFFFFFFFFFFFFFFFF80
000003FFFFFFFFFFFFFFFFFFFF80
000001FFFFFFFFFFFFFFFFFFFF80
000000FFFFFFFFFFFFFFFFFFFF80
0000007FFFFFFFFFFFFFFFFFFF80
0000003FFFFFFFFFFFFFFFFFFF80
0000003FFFFFFFFFFFFFFFFFFF80
000001FFFFFFFFFFFFFFFFFFFF80
000007FFFFFFFFFFFFFFFFFFFF80
00000FFFFFFFFFFFFFFFFFFFFF00
00003FFFFFFFFFFFFFFFFFFFFF00
00007FFFFFFFFFFFFFFFFFFFFF00
0001FFFFFFFFFFFFFFFFFFFFFF00
0003FFFFFFFFFFFFFFFFFFFFFF00
0007FFFFFFFFFFFFFFFFFFFFFF00
000FFFFFFFFFFFFFFFFFFFFFFF00
001FFFFFFFFFFFFFFFFFFFFFFE00
003FFFFFFFFFFFFFFFFFFFFFFE00
007FFFFFFFFFFFFFFFFFFFFFFE00
00FFFFFFFFFFFFFFFFFFFFFFFE00
01FFFFFFFFFFFFFFFFFFFFFFFE00
03FFFFFFFFFFF00003FFFFFFFE00
03FFFFFFFFFC0000000FFFFFFC00
07FFFFFFFFC000000003FFFFFC00
0FFFFFFFFE0000000003FFFFFC00
0FFFFFFFF00000000003FFFFFC00
1FFFFFFFC00000000003FFFFFC00
1FFFFFFF000000000007FFFFFC00
3FFFFFFC000000000007FFFFF800
3FFFFFF8000000000007FFFFF800
7FFFFFF0000000000007FFFFF800
7FFFFFE0000000000007FFFFF800
7FFFFFC0000000000007FFFFF800
7FFFFFC000000000000FFFFFF000
FFFFFF8000000000000FFFFFF000
FFFFFF8000000000000FFFFFF000
FFFFFF0000000000000FFFFFF000
FFFFFF0000000000000FFFFFF000
FFFFFF0000000000000FFFFFE000
FFFFFF0000000000001FFFFFE000
FFFFFF0000000000001FFFFFE000
FFFFFF0000000000001FFFFFE000
FFFFFF0000000000001FFFFFE000
FFFFFF0000000000001FFFFFC000
FFFFFF0000000000001FFFFFC000
FFFFFF8000000000003FFFFFC000
FFFFFF8000000000003FFFFFC000
FFFFFFC000000000003FFFFF8000
FFFFFFC000000000003FFFFF8000
FFFFFFE000000000003FFFFF8000
7FFFFFE000000000003FFFFF8000
7FFFFFF000000000007FFFFF8000
7FFFFFF800000000007FFFFF0000
7FFFFFF800000000007FFFFF0000
3FFFFFFC00000000007FFFFF0000
3FFFFFFF00000000007FFFFF0000
3FFFFFFF8000000000FFFFFF0000
1FFFFFFFC000000000FFFFFE0000
1FFFFFFFE000000000FFFFFE0000
1FFFFFFFF800000000FFFFFE0000
0FFFFFFFFE00000000FFFFFE0000
0FFFFFFFFF80000000FFFFFE0000
07FFFFFFFFE0000001FFFFFC0000
07FFFFFFFFFC000001FFFFFC0000
03FFFFFFFFFF800003FFFFFC0000
03FFFFFFFFFFFE00FFFFFFF80000
01FFFFFFFFFFFFFFFFFFFFF80000
01FFFFFFFFFFFFFFFFFFFFF80000
00FFFFFFFFFFFFFFFFFFFFF00000
007FFFFFFFFFFFFFFFFFFFF00000
007FFFFFFFFFFFFFFFFFFFF00000
003FFFFFFFFFFFFFFFFFFFE00000
001FFFFFFFFFFFFFFFFFFFE00000
001FFFFFFFFFFFFFFFFFFFE00000
000FFFFFFFFFFFFFFFFFFFC00000
0007FFFFFFFFFFFFFFFFFFC00000
0003FFFFFFFFFFFFFFFFFF800000
0003FFFFFFFFFFFFFFFFFF800000
0001FFFFFFFFFFFFFFFFFF000000
0000FFFFFFFFFFFFFFFFFF000000
00007FFFFFFFFFFFFFFFFE000000
00003FFFFFFFFFFFFFFFFC000000
00000FFFFFFFFFFFFFFFFC000000
000007FFFFFFFFFFFFFFF8000000
000003FFFFFFFFFFFFFFF0000000
000001FFFFFFFFFFFFFFE0000000
0000007FFFFFFFFFFFFFC0000000
0000003FFFFFFFFFFFFF80000000
0000000FFFFFFFFFFFFF00000000
00000003FFFFFFFFFFFC00000000
00000000FFFFFFFFFFF800000000
000000003FFFFFFFFFC000000000
0000000007FFFFFFFF0000000000
0000000000FFFFFFF00000000000
00000000000FFFFC000000000000
ENDCHAR
STARTCHAR 0027
ENCODING 39
SWIDTH 198 0
DWIDTH 48 0
BBX 24 63 23 98
BITMAP
000F80
003FC0
007FE0
00FFF0
01FFF8
01FFF8
03FFFC
07FFFC
07FFFC
07FFFC
0FFFFE
0FFFFE
1FFFFE
1FFFFE
1FFFFF
1FFFFF
3FFFFF
3FFFFF
3FFFFF
3FFFFF
3FFFFF
7FFFFF
7FFFFF
7FFFFF
7FFFFF
7FFFFF
7FFFFF
7FFFFF
7FFFFF
FFFFFF
FFFFFF
FFFFFF
FFFFFF
FFFFFF
FFFFFF
FFFFFF
FFFFFE
FFFFFE
FFFFFE
FFFFFE
FFFFFE
FFFFFE
FFFFFE
FFFFFC
FFFFFC
FFFFFC
FFFFFC
FFFFFC
FFFFF8
FFFFF8
7FFFF8
7FFFF0
7FFFF0
7FFFF0
7FFFE0
3FFFE0
3FFFC0
3FFF80
1FFF80
1FFF00
0FFE00
07FC00
01F000
ENDCHAR
STARTCHAR 0028
ENCODING 40
SWIDTH 396 0
DWIDTH 96 0
BBX 78 182 14 -12
BITMAP
000000000000000FF800
00000000000000FFFF00
00000000000003FFFF80
0000000000000FFFFFC0
0000000000003FFFFFE0
000000000000FFFFFFF0
000000000001FFFFFFF0
000000000003FFFFFFF8
00000000000FFFFFFFF8
00000000001FFFFFFFF8
00000000003FFFFFFFF8
0000000000FFFFFFFFFC
0000000001FFFFFFFFFC
0000000003FFFFFFFFFC
0000000007FFFFFFFFFC
000000000FFFFFFFFFFC
000000001FFFFFFFFFF8
000000003FFFFFFFFFF0
000000007FFFFFFFFFE0
00000000FFFFFFFFFF00
00000000FFFFFFFFFC00
00000001FFFFFFFFF000
00000003FFFFFFFFC000
00000007FFFFFFFF0000
0000000FFFFFFFFE0000
0000000FFFFFFFF80000
0000001FFFFFFFF00000
0000003FFFFFFFC00000
0000007FFFFFFF800000
0000007FFFFFFF000000
000000FFFFFFFC000000
000001FFFFFFF8000000
000001FFFFFFF0000000
000003FFFFFFE0000000
000007FFFFFFC0000000
000007FFFFFF80000000
00000FFFFFFF00000000
00000FFFFFFF00000000
00001FFFFFFE00000000
00003FFFFFFC00000000
00003FFFFFF800000000
00007FFFFFF000000000
00007FFFFFF000000000
0000FFFFFFE000000000
0000FFFFFFC000000000
0001FFFFFFC000000000
0001FFFFFF8000000000
0003FFFFFF0000000000
0003FFFFFF0000000000
0007FFFFFE0000000000
0007FFFFFE0000000000
000FFFFFFC0000000000
000FFFFFF80000000000
001FFFFFF80000000000
001FFFFFF00000000000
001FFFFFF00000000000
003FFFFFE00000000000
003FFFFFE00000000000
007FFFFFC00000000000
007FFFFFC00000000000
007FFFFFC00000000000
00FFFFFF800000000000
00FFFFFF800000000000
00FFFFFF000000000000
01FFFFFF000000000000
01FFFFFF000000000000
01FFFFFE000000000000
03FFFFFE000000000000
03FFFFFE000000000000
03FFFFFC000000000000
07FFFFFC000000000000
07FFFFFC000000000000
07FFFFF8000000000000
07FFFFF8000000000000
0FFFFFF8000000000000
0FFFFFF8000000000000
0FFFFFF0000000000000
1FFFFFF0000000000000
1FFFFFF0000000000000
1FFFFFF0000000000000
1FFFFFF0000000000000
1FFFFFE0000000000000
3FFFFFE0000000000000
3FFFFFE0000000000000
3FFFFFE0000000000000
3FFFFFE0000000000000
3FFFFFC0000000000000
7FFFFFC0000000000000
7FFFFFC0000000000000
7FFFFFC0000000000000
7FFFFFC0000000000000
7FFFFFC0000000000000
7FFFFFC0000000000000
7FFFFF80000000000000
FFFFFF80000000000000
FFFFFF80000000000000
FFFFFF80000000000000
FFFFFF80000000000000
FFFFFF80000000000000
FFFFFF80000000000000
FFFFFF80000000000000
FFFFFF80000000000000
FFFFFF80000000000000
FFFFFF80000000000000
FFFFFF80000000000000
FFFFFF80000000000000
FFFFFF80000000000000
FFFFFF80000000000000
FFFFFF80000000000000
FFFFFF80000000000000
FFFFFF80000000000000
FFFFFF80000000000000
FFFFFF80000000000000
FFFFFF80000000000000
FFFFFF80000000000000
FFFFFF80000000000000
FFFFFF80000000000000
FFFFFF80000000000000
7FFFFF80000000000000
7FFFFF80000000000000
7FFFFF80000000000000
7FFFFF80000000000000
7FFFFFC0000000000000
7FFFFFC0000000000000
3FFFFFC0000000000000
3FFFFFC0000000000000
3FFFFFC0000000000000
3FFFFFE0000000000000
1FFFFFE0000000000000
1FFFFFE0000000000000
1FFFFFF0000000000000
1FFFFFF0000000000000
0FFFFFF0000000000000
0FFFFFF8000000000000
0FFFFFF8000000000000
07FFFFFC000000000000
07FFFFFC000000000000
03FFFFFE000000000000
03FFFFFF000000000000
03FFFFFF000000000000
01FFFFFF800000000000
01FFFFFFC00000000000
00FFFFFFC00000000000
00FFFFFFE00000000000
007FFFFFF00000000000
007FFFFFF80000000000
003FFFFFFC0000000000
003FFFFFFE0000000000
001FFFFFFF0000000000
001FFFFFFF8000000000
000FFFFFFFC000000000
000FFFFFFFE000000000
0007FFFFFFF800000000
0007FFFFFFFC00000000
0003FFFFFFFE00000000
0001FFFFFFFF80000000
0001FFFFFFFFC0000000
0000FFFFFFFFF0000000
00007FFFFFFFF8000000
00007FFFFFFFFE000000
00003FFFFFFFFF800000
00001FFFFFFFFFF00000
00000FFFFFFFFFFC0000
00000FFFFFFFFFFF0000
000007FFFFFFFFFFE000
000003FFFFFFFFFFF800
000001FFFFFFFFFFFC00
000000FFFFFFFFFFFE00
0000007FFFFFFFFFFE00
0000003FFFFFFFFFFE00
0000001FFFFFFFFFFE00
00000007FFFFFFFFFE00
00000003FFFFFFFFFC00
00000001FFFFFFFFFC00
000000007FFFFFFFF800
000000003FFFFFFFF800
000000000FFFFFFFF000
0000000007FFFFFFE000
0000000001FFFFFFC000
00000000007FFFFF0000
00000000001FFFFC0000
000000000001FFF00000
ENDCHAR
STARTCHAR 0029
ENCODING 41
SWIDTH 396 0
DWIDTH 96 0
BBX 78 180 18 -8
BITMAP
00000FFFF00000000000
00007FFFFF0000000000
0001FFFFFFC000000000
0007FFFFFFF000000000
001FFFFFFFFC00000000
003FFFFFFFFE00000000
007FFFFFFFFF80000000
007FFFFFFFFFC0000000
00FFFFFFFFFFE0000000
00FFFFFFFFFFF8000000
01FFFFFFFFFFFC000000
01FFFFFFFFFFFE000000
01FFFFFFFFFFFF000000
01FFFFFFFFFFFF800000
00FFFFFFFFFFFF800000
007FFFFFFFFFFFC00000
001FFFFFFFFFFFE00000
0003FFFFFFFFFFF00000
00007FFFFFFFFFF80000
00001FFFFFFFFFFC0000
000003FFFFFFFFFC0000
000000FFFFFFFFFE0000
0000003FFFFFFFFF0000
0000001FFFFFFFFF0000
00000007FFFFFFFF8000
00000003FFFFFFFFC000
00000000FFFFFFFFC000
000000007FFFFFFFE000
000000003FFFFFFFE000
000000000FFFFFFFF000
0000000007FFFFFFF000
0000000003FFFFFFF800
0000000001FFFFFFF800
0000000000FFFFFFFC00
00000000007FFFFFFC00
00000000003FFFFFFE00
00000000001FFFFFFE00
00000000001FFFFFFF00
00000000000FFFFFFF00
000000000007FFFFFF00
000000000003FFFFFF80
000000000003FFFFFF80
000000000001FFFFFF80
000000000001FFFFFFC0
000000000000FFFFFFC0
0000000000007FFFFFC0
0000000000007FFFFFE0
0000000000003FFFFFE0
0000000000003FFFFFE0
0000000000001FFFFFE0
0000000000001FFFFFF0
0000000000001FFFFFF0
0000000000000FFFFFF0
0000000000000FFFFFF0
0000000000000FFFFFF8
00000000000007FFFFF8
00000000000007FFFFF8
00000000000007FFFFF8
00000000000003FFFFF8
00000000000003FFFFF8
00000000000003FFFFFC
00000000000003FFFFFC
00000000000001FFFFFC
00000000000001FFFFFC
00000000000001FFFFFC
00000000000001FFFFFC
00000000000001FFFFFC
00000000000001FFFFFC
00000000000001FFFFFC
00000000000001FFFFFC
00000000000001FFFFFC
00000000000001FFFFFC
00000000000001FFFFFC
00000000000001FFFFFC
00000000000001FFFFFC
00000000000001FFFFFC
00000000000001FFFFFC
00000000000001FFFFFC
00000000000001FFFFFC
00000000000001FFFFFC
00000000000001FFFFFC
00000000000001FFFFFC
00000000000001FFFFFC
00000000000003FFFFFC
00000000000003FFFFFC
00000000000003FFFFFC
00000000000003FFFFFC
00000000000003FFFFFC
00000000000003FFFFF8
00000000000003FFFFF8
00000000000007FFFFF8
00000000000007FFFFF8
00000000000007FFFFF8
00000000000007FFFFF8
00000000000007FFFFF0
0000000000000FFFFFF0
0000000000000FFFFFF0
0000000000000FFFFFF0
0000000000000FFFFFF0
0000000000000FFFFFE0
0000000000001FFFFFE0
0000000000001FFFFFE0
0000000000001FFFFFE0
0000000000001FFFFFC0
0000000000003FFFFFC0
0000000000003FFFFFC0
0000000000003FFFFF80
0000000000007FFFFF80
0000000000007FFFFF80
0000000000007FFFFF00
000000000000FFFFFF00
000000000000FFFFFF00
000000000000FFFFFE00
000000000001FFFFFE00
000000000001FFFFFE00
000000000001FFFFFC00
000000000003FFFFFC00
000000000003FFFFF800
000000000007FFFFF800
000000000007FFFFF800
000000000007FFFFF000
00000000000FFFFFF000
00000000000FFFFFE000
00000000001FFFFFE000
00000000001FFFFFC000
00000000003FFFFFC000
00000000003FFFFFC000
00000000007FFFFF8000
00000000007FFFFF8000
0000000000FFFFFF0000
0000000000FFFFFF0000
0000000001FFFFFE0000
0000000001FFFFFE0000
0000000003FFFFFC0000
0000000007FFFFFC0000
0000000007FFFFF80000
000000000FFFFFF80000
000000000FFFFFF00000
000000001FFFFFE00000
000000003FFFFFE00000
000000003FFFFFC00000
000000007FFFFFC00000
00000000FFFFFF800000
00000001FFFFFF800000
00000003FFFFFF000000
00000003FFFFFE000000
00000007FFFFFE000000
0000000FFFFFFC000000
0000001FFFFFFC000000
0000003FFFFFF8000000
0000007FFFFFF0000000
000000FFFFFFF0000000
000001FFFFFFE0000000
000007FFFFFFE0000000
00000FFFFFFFC0000000
00001FFFFFFF80000000
00007FFFFFFF80000000
0000FFFFFFFF00000000
0003FFFFFFFE00000000
000FFFFFFFFE00000000
007FFFFFFFFC00000000
03FFFFFFFFF800000000
1FFFFFFFFFF000000000
7FFFFFFFFFE000000000
7FFFFFFFFFE000000000
FFFFFFFFFFC000000000
FFFFFFFFFF8000000000
FFFFFFFFFF0000000000
FFFFFFFFFE0000000000
7FFFFFFFFC0000000000
7FFFFFFFF80000000000
7FFFFFFFF00000000000
3FFFFFFFC00000000000
1FFFFFFF800000000000
1FFFFFFF000000000000
0FFFFFFC000000000000
03FFFFF0000000000000
01FFFFC0000000000000
007FFF00000000000000
000FC000000000000000
ENDCHAR
STARTCHAR 002A
ENCODING 42
SWIDTH 371 0
DWIDTH 90 0
BBX 78 87 15 63
BITMAP
00000000007C00000000
0000000001FF00000000
0000000003FFC0000000
0000000007FFC0000000
000000000FFFE0000000
000000001FFFF0000000
000000001FFFF0000000
000000003FFFF0000000
000000003FFFF0000000
000000003FFFE0000000
000000007FFFE0000000
000000007FFFE0000000
000000007FFFE0000000
000000007FFFE0000000
000000007FFFC0000000
001FC000FFFFC0007F00
003FF000FFFFC001FFC0
00FFF800FFFFC007FFE0
01FFFC00FFFFC00FFFF0
01FFFE00FFFFC03FFFF8
03FFFF00FFFFC07FFFF8
07FFFF80FFFF80FFFFF8
07FFFFC0FFFF83FFFFFC
0FFFFFE0FFFF87FFFFFC
0FFFFFF0FFFF9FFFFFFC
0FFFFFF8FFFFBFFFFFFC
07FFFFF8FFFFFFFFFFF8
07FFFFFCFFFFFFFFFFF8
07FFFFFEFFFFFFFFFFF8
03FFFFFFFFFFFFFFFFF0
01FFFFFFFFFFFFFFFFC0
00FFFFFFFFFFFFFFFF00
007FFFFFFFFFFFFFFE00
003FFFFFFFFFFFFFF800
001FFFFFFFFFFFFFE000
000FFFFFFFFFFFFF8000
0007FFFFFFFFFFFF0000
0001FFFFFFFFFFFC0000
0000FFFFFFFFFFF80000
00007FFFFFFFFFE00000
00001FFFFFFFFF800000
00000FFFFFFFFF000000
000007FFFFFFFC000000
000001FFFFFFF0000000
000003FFFFFFE0000000
000007FFFFFFC0000000
00001FFFFFFFF0000000
00003FFFFFFFF8000000
0000FFFFFFFFFE000000
0003FFFFFFFFFF000000
0007FFFFFFFFFFC00000
001FFFFFFFFFFFE00000
003FFFFFFFFFFFF80000
00FFFFFFFFFFFFFC0000
01FFFFFFFFFFFFFE0000
07FFFFFFFFFFFFFF8000
0FFFFFFFFFFFFFFFE000
1FFFFFFFFFFFFFFFF000
3FFFFFFFFFFFFFFFFC00
7FFFFFFFFFFFFFFFFE00
7FFFFFFFFFFFFFFFFF00
FFFFFFFFFFFFFFFFFF00
FFFFFFFFFFFFFFFFFF00
FFFFFFEFFFFFFFFFFF00
FFFFFF8FFFFFFFFFFF00
FFFFFF1FFFFFFFFFFF00
FFFFFE1FFFFDFFFFFF00
7FFFF81FFFFCFFFFFF00
3FFFF01FFFFC3FFFFE00
1FFFC01FFFFC1FFFFE00
07FF801FFFFC0FFFFE00
01FE001FFFFC07FFFC00
0000001FFFFC01FFF800
0000001FFFFC00FFF800
0000001FFFFC003FF000
0000001FFFFC001FC000
0000001FFFFC00000000
0000001FFFFC00000000
0000001FFFFC00000000
0000001FFFF800000000
0000001FFFF800000000
0000001FFFF000000000
0000000FFFE000000000
0000000FFFC000000000
00000007FF0000000000
00000007FC0000000000
00000001F00000000000
ENDCHAR
STARTCHAR 002B
ENCODING 43
SWIDTH 355 0
DWIDTH 86 0
BBX 79 78 11 43
BITMAP
00000000007C00000000
0000000001FF00000000
0000000007FFC0000000
000000000FFFC0000000
000000001FFFE0000000
000000001FFFE0000000
000000003FFFF0000000
000000003FFFF0000000
000000007FFFF0000000
000000007FFFF0000000
000000007FFFF0000000
00000000FFFFF0000000
00000000FFFFF0000000
00000000FFFFF0000000
00000000FFFFF0000000
00000000FFFFF0000000
00000001FFFFF0000000
00000001FFFFF0000000
00000001FFFFF0000000
00000001FFFFF0000000
00000001FFFFF0000000
00000001FFFFF0000000
00000001FFFFF0000000
00000003FFFFF0000000
00000003FFFFF0000000
00000003FFFFE0000000
00000003FFFFE0000000
00000003FFFFE0000000
00007FFFFFFFE0000000
001FFFFFFFFFFFFF8000
01FFFFFFFFFFFFFFFC00
0FFFFFFFFFFFFFFFFF80
1FFFFFFFFFFFFFFFFFE0
3FFFFFFFFFFFFFFFFFF0
7FFFFFFFFFFFFFFFFFF8
FFFFFFFFFFFFFFFFFFFC
FFFFFFFFFFFFFFFFFFFC
FFFFFFFFFFFFFFFFFFFE
FFFFFFFFFFFFFFFFFFFE
FFFFFFFFFFFFFFFFFFFE
FFFFFFFFFFFFFFFFFFFE
FFFFFFFFFFFFFFFFFFFE
7FFFFFFFFFFFFFFFFFFE
7FFFFFFFFFFFFFFFFFFC
3FFFFFFFFFFFFFFFFFFC
3FFFFFFFFFFFFFFFFFF8
1FFFFFFFFFFFFFFFFFF0
0FFFFFFFFFFFFFFFFFE0
03FFFFFFFFFFFFFFFF80
007FFFFFFFFFFFFF8000
0000001FFFFF80000000
0000001FFFFF80000000
0000001FFFFF80000000
0000001FFFFF80000000
0000001FFFFF80000000
0000001FFFFF80000000
0000001FFFFF80000000
0000001FFFFF80000000
0000001FFFFF80000000
0000001FFFFF00000000
0000001FFFFF00000000
0000001FFFFF00000000
0000001FFFFF00000000
0000001FFFFF00000000
0000001FFFFF00000000
0000001FFFFF00000000
0000001FFFFF00000000
0000001FFFFF00000000
0000001FFFFE00000000
0000001FFFFE00000000
0000001FFFFE00000000
0000000FFFFC00000000
0000000FFFF800000000
00000007FFF000000000
00000007FFE000000000
00000003FFC000000000
00000001FF0000000000
00000000780000000000
ENDCHAR
STARTCHAR 002C
ENCODING 44
SWIDTH 198 0
DWIDTH 48 0
BBX 36 50 6 -17
BITMAP
0000001E00
000000FF00
000003FFC0
000007FFC0
00000FFFE0
00001FFFE0
00003FFFE0
00007FFFF0
0000FFFFF0
0000FFFFF0
0001FFFFF0
0003FFFFF0
0003FFFFF0
0007FFFFE0
000FFFFFE0
000FFFFFE0
001FFFFFE0
003FFFFFE0
003FFFFFE0
007FFFFFC0
00FFFFFFC0
00FFFFFFC0
01FFFFFF80
01FFFFFF80
03FFFFFF00
07FFFFFF00
07FFFFFE00
0FFFFFFE00
0FFFFFFC00
1FFFFFFC00
1FFFFFF800
3FFFFFF000
3FFFFFE000
3FFFFFE000
7FFFFFC000
7FFFFF8000
7FFFFF0000
7FFFFF0000
FFFFFE0000
FFFFFC0000
FFFFF80000
FFFFF00000
FFFFE00000
FFFFE00000
FFFFC00000
7FFF800000
7FFE000000
7FFC000000
3FF0000000
07C0000000
ENDCHAR
STARTCHAR 002D
ENCODING 45
SWIDTH 438 0
DWIDTH 106 0
BBX 79 21 21 71
BITMAP
00007FFFFFF000000000
003FFFFFFFFFFFFF8000
01FFFFFFFFFFFFFFFC00
07FFFFFFFFFFFFFFFF00
1FFFFFFFFFFFFFFFFFC0
3FFFFFFFFFFFFFFFFFF0
7FFFFFFFFFFFFFFFFFF8
FFFFFFFFFFFFFFFFFFF8
FFFFFFFFFFFFFFFFFFFC
FFFFFFFFFFFFFFFFFFFC
FFFFFFFFFFFFFFFFFFFE
FFFFFFFFFFFFFFFFFFFE
FFFFFFFFFFFFFFFFFFFE
7FFFFFFFFFFFFFFFFFFC
7FFFFFFFFFFFFFFFFFFC
3FFFFFFFFFFFFFFFFFF8
1FFFFFFFFFFFFFFFFFF0
0FFFFFFFFFFFFFFFFFE0
07FFFFFFFFFFFFFFFFC0
03FFFFFFFFFFFFFFFE00
00FFFFFFFFFFFFFF0000
ENDCHAR
STARTCHAR 002E
ENCODING 46
SWIDTH 214 0
DWIDTH 52 0
BBX 31 33 12 0
BITMAP
0007FC00
001FFF00
007FFFC0
01FFFFE0
03FFFFF0
07FFFFF0
0FFFFFF8
1FFFFFFC
1FFFFFFC
3FFFFFFC
3FFFFFFC
7FFFFFFE
7FFFFFFE
7FFFFFFE
7FFFFFFC
7FFFFFFC
FFFFFFFC
FFFFFFFC
FFFFFFFC
7FFFFFF8
7FFFFFF8
7FFFFFF8
7FFFFFF0
7FFFFFE0
3FFFFFE0
3FFFFFC0
1FFFFF80
1FFFFF00
0FFFFF00
07FFFC00
03FFF800
01FFF000
003F8000
ENDCHAR
STARTCHAR 002F
ENCODING 47
SWIDTH 371 0
DWIDTH 90 0
BBX 95 161 5 3
BITMAP
000000000000000000000FC0
000000000000000000003FF8
00000000000000000000FFFC
00000000000000000001FFFC
00000000000000000003FFFE
00000000000000000007FFFC
0000000000000000000FFFFC
0000000000000000000FFFFC
0000000000000000001FFFFC
0000000000000000003FFFFC
0000000000000000003FFFF8
0000000000000000007FFFF8
000000000000000000FFFFF0
000000000000000000FFFFF0
000000000000000001FFFFF0
000000000000000001FFFFE0
000000000000000003FFFFE0
000000000000000007FFFFC0
000000000000000007FFFFC0
00000000000000000FFFFFC0
00000000000000001FFFFF80
00000000000000001FFFFF80
00000000000000003FFFFF00
00000000000000007FFFFF00
00000000000000007FFFFE00
0000000000000000FFFFFE00
0000000000000000FFFFFC00
0000000000000001FFFFFC00
0000000000000003FFFFF800
0000000000000003FFFFF800
0000000000000007FFFFF000
000000000000000FFFFFF000
000000000000000FFFFFE000
000000000000001FFFFFE000
000000000000001FFFFFC000
000000000000003FFFFFC000
000000000000007FFFFF8000
000000000000007FFFFF8000
00000000000000FFFFFF0000
00000000000000FFFFFF0000
00000000000001FFFFFF0000
00000000000003FFFFFE0000
00000000000003FFFFFE0000
00000000000007FFFFFC0000
00000000000007FFFFFC0000
0000000000000FFFFFF80000
0000000000000FFFFFF80000
0000000000001FFFFFF00000
0000000000003FFFFFF00000
0000000000003FFFFFE00000
0000000000007FFFFFE00000
0000000000007FFFFFC00000
000000000000FFFFFFC00000
000000000000FFFFFF800000
000000000001FFFFFF800000
000000000003FFFFFF000000
000000000003FFFFFF000000
000000000007FFFFFE000000
000000000007FFFFFE000000
00000000000FFFFFFC000000
00000000000FFFFFFC000000
00000000001FFFFFF8000000
00000000001FFFFFF8000000
00000000003FFFFFF0000000
00000000003FFFFFF0000000
00000000007FFFFFE0000000
0000000000FFFFFFE0000000
0000000000FFFFFFC0000000
0000000001FFFFFFC0000000
0000000001FFFFFF80000000
0000000003FFFFFF80000000
0000000003FFFFFF00000000
0000000007FFFFFF00000000
0000000007FFFFFE00000000
000000000FFFFFFE00000000
000000000FFFFFFC00000000
000000001FFFFFFC00000000
000000001FFFFFF800000000
000000003FFFFFF800000000
000000003FFFFFF000000000
000000007FFFFFE000000000
000000007FFFFFE000000000
00000000FFFFFFC000000000
00000000FFFFFFC000000000
00000001FFFFFF8000000000
00000001FFFFFF8000000000
00000003FFFFFF0000000000
00000003FFFFFF0000000000
00000007FFFFFE0000000000
00000007FFFFFE0000000000
0000000FFFFFFC0000000000
0000000FFFFFFC0000000000
0000001FFFFFF80000000000
0000001FFFFFF80000000000
0000003FFFFFF00000000000
0000003FFFFFE00000000000
0000007FFFFFE00000000000
0000007FFFFFC00000000000
000000FFFFFFC00000000000
000000FFFFFF800000000000
000001FFFFFF800000000000
000001FFFFFF000000000000
000003FFFFFF000000000000
000003FFFFFE000000000000
000007FFFFFC000000000000
000007FFFFFC000000000000
00000FFFFFF8000000000000
00000FFFFFF8000000000000
00001FFFFFF0000000000000
00001FFFFFF0000000000000
00003FFFFFE0000000000000
00003FFFFFE0000000000000
00007FFFFFC0000000000000
00007FFFFF80000000000000
0000FFFFFF80000000000000
0000FFFFFF00000000000000
0001FFFFFF00000000000000
0001FFFFFE00000000000000
0003FFFFFE00000000000000
0003FFFFFC00000000000000
0007FFFFFC00000000000000
000FFFFFF800000000000000
000FFFFFF000000000000000
001FFFFFF000000000000000
001FFFFFE000000000000000
001FFFFFE000000000000000
003FFFFFC000000000000000
003FFFFFC000000000000000
007FFFFF8000000000000000
007FFFFF0000000000000000
00FFFFFF0000000000000000
00FFFFFE0000000000000000
01FFFFFE0000000000000000
01FFFFFC0000000000000000
03FFFFF80000000000000000
03FFFFF80000000000000000
07FFFFF00000000000000000
07FFFFF00000000000000000
0FFFFFE00000000000000000
0FFFFFE00000000000000000
0FFFFFC00000000000000000
1FFFFF800000000000000000
1FFFFF800000000000000000
3FFFFF000000000000000000
3FFFFE000000000000000000
3FFFFE000000000000000000
3FFFFC000000000000000000
7FFFF8000000000000000000
7FFFF8000000000000000000
7FFFF0000000000000000000
7FFFF0000000000000000000
FFFFE0000000000000000000
FFFFC0000000000000000000
FFFF80000000000000000000
FFFF80000000000000000000
FFFF00000000000000000000
FFFE00000000000000000000
7FFC00000000000000000000
7FF000000000000000000000
3FE000000000000000000000
1F0000000000000000000000
ENDCHAR
STARTCHAR 0030
ENCODING 48
SWIDTH 500 0
DWIDTH 121 0
BBX 100 156 18 1
BITMAP
000000000001FFC00000000000
00000000001FFFFE0000000000
0000000000FFFFFFE000000000
0000000003FFFFFFF800000000
0000000007FFFFFFFE00000000
000000001FFFFFFFFF80000000
000000003FFFFFFFFFC0000000
00000000FFFFFFFFFFF0000000
00000001FFFFFFFFFFF8000000
00000003FFFFFFFFFFFE000000
00000007FFFFFFFFFFFF000000
0000000FFFFFFFFFFFFF800000
0000001FFFFFFFFFFFFFC00000
0000003FFFFFFFFFFFFFE00000
0000007FFFFFFFFFFFFFF00000
000000FFFFFFFFFFFFFFF80000
000000FFFFFFFFFFFFFFF80000
000001FFFFFFFFFFFFFFFC0000
000003FFFFFFFFFFFFFFFE0000
000007FFFFFFFFFFFFFFFE0000
000007FFFFFFFFFFFFFFFF0000
00000FFFFFFFFFFFFFFFFF8000
00001FFFFFFFFFFFFFFFFF8000
00001FFFFFFFFFFFFFFFFFC000
00003FFFFFFFC03FFFFFFFC000
00007FFFFFFE0007FFFFFFE000
00007FFFFFFC0001FFFFFFE000
0000FFFFFFF00000FFFFFFF000
0000FFFFFFE000007FFFFFF000
0001FFFFFFC000003FFFFFF800
0001FFFFFF8000001FFFFFF800
0003FFFFFF0000000FFFFFF800
0003FFFFFE00000007FFFFFC00
0007FFFFFE00000007FFFFFC00
0007FFFFFC00000003FFFFFC00
000FFFFFFC00000003FFFFFE00
000FFFFFF800000001FFFFFE00
001FFFFFF000000001FFFFFE00
001FFFFFF000000000FFFFFF00
003FFFFFE000000000FFFFFF00
003FFFFFE000000000FFFFFF00
007FFFFFE0000000007FFFFF80
007FFFFFC0000000007FFFFF80
007FFFFFC0000000007FFFFF80
00FFFFFF80000000003FFFFF80
00FFFFFF80000000003FFFFF80
01FFFFFF00000000003FFFFFC0
01FFFFFF00000000003FFFFFC0
01FFFFFF00000000003FFFFFC0
03FFFFFE00000000001FFFFFC0
03FFFFFE00000000001FFFFFC0
03FFFFFE00000000001FFFFFC0
07FFFFFC00000000001FFFFFE0
07FFFFFC00000000001FFFFFE0
07FFFFFC00000000001FFFFFE0
07FFFFF800000000001FFFFFE0
0FFFFFF800000000001FFFFFE0
0FFFFFF800000000001FFFFFE0
0FFFFFF000000000001FFFFFE0
1FFFFFF000000000000FFFFFE0
1FFFFFF000000000000FFFFFE0
1FFFFFE000000000000FFFFFE0
1FFFFFE000000000000FFFFFE0
3FFFFFE000000000000FFFFFE0
3FFFFFE000000000000FFFFFF0
3FFFFFC000000000000FFFFFF0
3FFFFFC000000000000FFFFFF0
3FFFFFC000000000000FFFFFF0
3FFFFFC000000000000FFFFFF0
7FFFFFC000000000000FFFFFF0
7FFFFF8000000000001FFFFFF0
7FFFFF8000000000001FFFFFF0
7FFFFF8000000000001FFFFFE0
7FFFFF8000000000001FFFFFE0
7FFFFF8000000000001FFFFFE0
FFFFFF0000000000001FFFFFE0
FFFFFF0000000000001FFFFFE0
FFFFFF0000000000001FFFFFE0
FFFFFF0000000000001FFFFFE0
FFFFFF0000000000001FFFFFE0
FFFFFF0000000000001FFFFFE0
FFFFFE0000000000001FFFFFE0
FFFFFE0000000000001FFFFFE0
FFFFFE0000000000003FFFFFE0
FFFFFE0000000000003FFFFFE0
FFFFFE0000000000003FFFFFC0
FFFFFE0000000000003FFFFFC0
FFFFFE0000000000003FFFFFC0
FFFFFE0000000000003FFFFFC0
FFFFFE0000000000003FFFFFC0
FFFFFE0000000000007FFFFFC0
FFFFFE0000000000007FFFFFC0
FFFFFE0000000000007FFFFF80
FFFFFE0000000000007FFFFF80
FFFFFE000000000000FFFFFF80
FFFFFE000000000000FFFFFF80
FFFFFE000000000000FFFFFF80
FFFFFE000000000000FFFFFF00
FFFFFE000000000001FFFFFF00
FFFFFE000000000001FFFFFF00
FFFFFE000000000001FFFFFF00
FFFFFE000000000003FFFFFE00
7FFFFE000000000003FFFFFE00
7FFFFE000000000003FFFFFE00
7FFFFE000000000007FFFFFE00
7FFFFE000000000007FFFFFC00
7FFFFE00000000000FFFFFFC00
7FFFFE00000000000FFFFFFC00
3FFFFF00000000001FFFFFF800
3FFFFF00000000001FFFFFF800
3FFFFF00000000001FFFFFF800
3FFFFF00000000003FFFFFF000
3FFFFF00000000003FFFFFF000
1FFFFF80000000007FFFFFF000
1FFFFF8000000000FFFFFFE000
1FFFFF8000000000FFFFFFE000
0FFFFFC000000001FFFFFFE000
0FFFFFC000000001FFFFFFC000
0FFFFFE000000003FFFFFFC000
0FFFFFE000000007FFFFFF8000
07FFFFF00000000FFFFFFF8000
07FFFFF00000001FFFFFFF0000
03FFFFF80000003FFFFFFF0000
03FFFFFC0000007FFFFFFE0000
03FFFFFE000000FFFFFFFE0000
01FFFFFF000003FFFFFFFC0000
01FFFFFFC0000FFFFFFFFC0000
00FFFFFFE0003FFFFFFFF80000
00FFFFFFFC01FFFFFFFFF80000
007FFFFFFFFFFFFFFFFFF00000
007FFFFFFFFFFFFFFFFFE00000
003FFFFFFFFFFFFFFFFFE00000
003FFFFFFFFFFFFFFFFFC00000
001FFFFFFFFFFFFFFFFF800000
001FFFFFFFFFFFFFFFFF800000
000FFFFFFFFFFFFFFFFF000000
000FFFFFFFFFFFFFFFFE000000
0007FFFFFFFFFFFFFFFC000000
0003FFFFFFFFFFFFFFF8000000
0003FFFFFFFFFFFFFFF8000000
0001FFFFFFFFFFFFFFF0000000
0000FFFFFFFFFFFFFFE0000000
00007FFFFFFFFFFFFFC0000000
00007FFFFFFFFFFFFF80000000
00003FFFFFFFFFFFFF00000000
00001FFFFFFFFFFFFC00000000
00000FFFFFFFFFFFF800000000
000007FFFFFFFFFFF000000000
000003FFFFFFFFFFC000000000
000000FFFFFFFFFF8000000000
0000007FFFFFFFFE0000000000
0000001FFFFFFFFC0000000000
0000000FFFFFFFF00000000000
00000003FFFFFF800000000000
000000007FFFFC000000000000
0000000007FFE0000000000000
ENDCHAR
STARTCHAR 0031
ENCODING 49
SWIDTH 231 0
DWIDTH 56 0
BBX 35 157 20 0
BITMAP
001E000000
007FC00000
01FFF00000
03FFF80000
07FFFE0000
0FFFFF0000
0FFFFF8000
1FFFFFC000
1FFFFFE000
3FFFFFF000
3FFFFFF000
7FFFFFF800
7FFFFFFC00
7FFFFFFC00
7FFFFFFE00
FFFFFFFE00
FFFFFFFF00
FFFFFFFF00
FFFFFFFF80
FFFFFFFF80
FFFFFFFF80
7FFFFFFFC0
7FFFFFFFC0
7FFFFFFFC0
3FFFFFFFC0
1FFFFFFFC0
0FFFFFFFE0
07FFFFFFE0
03FFFFFFE0
01FFFFFFE0
00FFFFFFE0
007FFFFFE0
007FFFFFE0
003FFFFFE0
003FFFFFE0
003FFFFFE0
003FFFFFE0
001FFFFFE0
001FFFFFE0
001FFFFFC0
001FFFFFC0
001FFFFFC0
001FFFFFC0
001FFFFFC0
001FFFFFC0
001FFFFFC0
001FFFFFC0
001FFFFFC0
001FFFFFC0
001FFFFFC0
001FFFFF80
001FFFFF80
001FFFFF80
001FFFFF80
001FFFFF80
001FFFFF80
001FFFFF80
001FFFFF80
001FFFFF80
003FFFFF00
003FFFFF00
003FFFFF00
003FFFFF00
003FFFFF00
003FFFFF00
003FFFFF00
003FFFFF00
007FFFFE00
007FFFFE00
007FFFFE00
007FFFFE00
007FFFFE00
007FFFFE00
007FFFFE00
007FFFFE00
00FFFFFC00
00FFFFFC00
00FFFFFC00
00FFFFFC00
00FFFFFC00
00FFFFFC00
00FFFFFC00
01FFFFFC00
01FFFFF800
01FFFFF800
01FFFFF800
01FFFFF800
01FFFFF800
01FFFFF800
03FFFFF800
03FFFFF000
03FFFFF000
03FFFFF000
03FFFFF000
03FFFFF000
07FFFFF000
07FFFFE000
07FFFFE000
07FFFFE000
07FFFFE000
07FFFFE000
07FFFFE000
0FFFFFC000
0FFFFFC000
0FFFFFC000
0FFFFFC000
0FFFFFC000
0FFFFFC000
0FFFFF8000
1FFFFF8000
1FFFFF8000
1FFFFF8000
1FFFFF8000
1FFFFF8000
1FFFFF8000
1FFFFF8000
3FFFFF0000
3FFFFF0000
3FFFFF0000
3FFFFF0000
3FFFFF0000
3FFFFF0000
3FFFFF0000
3FFFFF0000
3FFFFF0000
7FFFFF0000
7FFFFF0000
7FFFFE0000
7FFFFE0000
7FFFFE0000
7FFFFE0000
7FFFFE0000
7FFFFE0000
7FFFFE0000
7FFFFE0000
7FFFFE0000
7FFFFE0000
7FFFFE0000
7FFFFE0000
FFFFFE0000
FFFFFC0000
FFFFFC0000
FFFFFC0000
FFFFFC0000
FFFFFC0000
7FFFFC0000
7FFFFC0000
7FFFF80000
7FFFF80000
7FFFF80000
7FFFF00000
3FFFF00000
3FFFE00000
1FFFE00000
0FFFC00000
03FF000000
00FE000000
ENDCHAR
STARTCHAR 0032
ENCODING 50
SWIDTH 516 0
DWIDTH 125 0
BBX 96 158 21 1
BITMAP
0000000000000007E0000000
000000000000FFFFFF000000
00000000003FFFFFFFC00000
0000000003FFFFFFFFF00000
000000001FFFFFFFFFF80000
00000000FFFFFFFFFFFC0000
00000007FFFFFFFFFFFE0000
0000001FFFFFFFFFFFFF0000
0000007FFFFFFFFFFFFF8000
000001FFFFFFFFFFFFFF8000
000007FFFFFFFFFFFFFFC000
00001FFFFFFFFFFFFFFFC000
00007FFFFFFFFFFFFFFFE000
0000FFFFFFFFFFFFFFFFE000
0003FFFFFFFFFFFFFFFFF000
0007FFFFFFFFFFFFFFFFF000
000FFFFFFFFFFFFFFFFFF800
001FFFFFFFFFFFFFFFFFF800
003FFFFFFFFFFFFFFFFFF800
007FFFFFFFFFFFFFFFFFF800
00FFFFFFFFFFFFFFFFFFFC00
01FFFFFFFFFF80FFFFFFFC00
03FFFFFFFFF0001FFFFFFC00
07FFFFFFFF80000FFFFFFC00
07FFFFFFFC000007FFFFFE00
0FFFFFFFF0000007FFFFFE00
1FFFFFFF80000003FFFFFE00
1FFFFFFE00000003FFFFFE00
3FFFFFF800000001FFFFFE00
3FFFFFE000000001FFFFFE00
3FFFFFC000000001FFFFFF00
7FFFFF8000000001FFFFFF00
7FFFFF0000000001FFFFFF00
7FFFFF0000000001FFFFFF00
7FFFFE0000000003FFFFFF00
7FFFFE0000000003FFFFFE00
FFFFFC0000000003FFFFFE00
FFFFFC0000000003FFFFFE00
FFFFF80000000003FFFFFE00
FFFFF80000000007FFFFFE00
7FFFF00000000007FFFFFE00
7FFFF00000000007FFFFFE00
7FFFE00000000007FFFFFE00
7FFFE0000000000FFFFFFE00
3FFFC0000000000FFFFFFC00
3FFF80000000000FFFFFFC00
1FFF00000000001FFFFFFC00
0FFC00000000001FFFFFFC00
03E000000000003FFFFFF800
000000000000003FFFFFF800
000000000000003FFFFFF800
000000000000007FFFFFF000
000000000000007FFFFFF000
00000000000000FFFFFFE000
00000000000000FFFFFFE000
00000000000001FFFFFFE000
00000000000001FFFFFFC000
00000000000003FFFFFFC000
00000000000007FFFFFF8000
00000000000007FFFFFF8000
0000000000000FFFFFFF0000
0000000000000FFFFFFE0000
0000000000001FFFFFFE0000
0000000000003FFFFFFC0000
0000000000003FFFFFFC0000
0000000000007FFFFFF80000
0000000000007FFFFFF80000
000000000000FFFFFFF00000
000000000001FFFFFFE00000
000000000001FFFFFFE00000
000000000003FFFFFFC00000
000000000007FFFFFF800000
000000000007FFFFFF800000
00000000000FFFFFFF000000
00000000001FFFFFFE000000
00000000003FFFFFFE000000
00000000003FFFFFFC000000
00000000007FFFFFF8000000
0000000000FFFFFFF8000000
0000000000FFFFFFF0000000
0000000001FFFFFFE0000000
0000000003FFFFFFC0000000
0000000003FFFFFFC0000000
0000000007FFFFFF80000000
000000000FFFFFFF00000000
000000000FFFFFFF00000000
000000001FFFFFFE00000000
000000003FFFFFFC00000000
000000003FFFFFFC00000000
000000007FFFFFF800000000
00000000FFFFFFF000000000
00000000FFFFFFF000000000
00000001FFFFFFE000000000
00000003FFFFFFC000000000
00000003FFFFFF8000000000
00000007FFFFFF8000000000
0000000FFFFFFF0000000000
0000000FFFFFFE0000000000
0000001FFFFFFE0000000000
0000003FFFFFFC0000000000
0000003FFFFFF80000000000
0000007FFFFFF00000000000
000000FFFFFFF00000000000
000001FFFFFFE00000000000
000001FFFFFFC00000000000
000003FFFFFFC00000000000
000007FFFFFF800000000000
000007FFFFFF000000000000
00000FFFFFFF000000000000
00001FFFFFFE000000000000
00001FFFFFFC000000000000
00003FFFFFFC000000000000
00003FFFFFF8000000000000
00007FFFFFF8000000000000
0000FFFFFFF0000000000000
0000FFFFFFE0000000000000
0001FFFFFFE0000000000000
0001FFFFFFC0000000000000
0003FFFFFFC0000000000000
0003FFFFFF80000000000000
0007FFFFFF80000000000000
0007FFFFFF00000000000000
000FFFFFFF00000000000000
000FFFFFFF00000000000000
001FFFFFFE00000000000000
001FFFFFFE00000000000000
003FFFFFFC0000000001FFC0
003FFFFFFC000000007FFFE0
003FFFFFFC00000007FFFFF0
007FFFFFFC000000FFFFFFF8
007FFFFFF800001FFFFFFFFC
007FFFFFF80001FFFFFFFFFC
00FFFFFFF8003FFFFFFFFFFE
00FFFFFFF80FFFFFFFFFFFFE
00FFFFFFF1FFFFFFFFFFFFFF
00FFFFFFFFFFFFFFFFFFFFFF
01FFFFFFFFFFFFFFFFFFFFFF
01FFFFFFFFFFFFFFFFFFFFFF
01FFFFFFFFFFFFFFFFFFFFFF
01FFFFFFFFFFFFFFFFFFFFFC
01FFFFFFFFFFFFFFFFFFFFF8
01FFFFFFFFFFFFFFFFFFFFF0
01FFFFFFFFFFFFFFFFFFFFE0
01FFFFFFFFFFFFFFFFFFFF80
01FFFFFFFFFFFFFFFFFFFE00
01FFFFFFFFFFFFFFFFFFF800
01FFFFFFFFFFFFFFFFFFE000
00FFFFFFFFFFFFFFFFFF0000
00FFFFFFFFFFFFFFFFF80000
00FFFFFFFFFFFFFFFF800000
007FFFFFFFFFFFFFF8000000
007FFFFFFFFFFFFFC0000000
003FFFFFFFFFFFFC00000000
001FFFFFFFFFFF8000000000
001FFFFFFFFFF00000000000
0007FFFFFFFC000000000000
0001FFFFFE00000000000000
000000F00000000000000000
ENDCHAR
STARTCHAR 0033
ENCODING 51
SWIDTH 504 0
DWIDTH 122 0
BBX 100 156 20 1
BITMAP
0000000000001FF80000000000
000000000003FFFF8000000000
00000000001FFFFFE000000000
0000000000FFFFFFF800000000
0000000003FFFFFFFE00000000
000000001FFFFFFFFF00000000
000000007FFFFFFFFFC0000000
00000001FFFFFFFFFFE0000000
00000007FFFFFFFFFFF0000000
0000000FFFFFFFFFFFF8000000
0000003FFFFFFFFFFFFC000000
000000FFFFFFFFFFFFFE000000
000003FFFFFFFFFFFFFE000000
000007FFFFFFFFFFFFFF000000
00001FFFFFFFFFFFFFFF800000
00003FFFFFFFFFFFFFFF800000
0000FFFFFFFFFFFFFFFFC00000
0001FFFFFFFFFFFFFFFFC00000
0007FFFFFFFFFFFFFFFFE00000
000FFFFFFFFFFFFFFFFFE00000
001FFFFFFFFFFFFFFFFFF00000
003FFFFFFFFFFFFFFFFFF00000
00FFFFFFFFFFFFFFFFFFF00000
01FFFFFFFFFFFFFFFFFFF00000
03FFFFFFFFFFEFFFFFFFF00000
07FFFFFFFFFC03FFFFFFF00000
07FFFFFFFFF001FFFFFFF00000
0FFFFFFFFF8001FFFFFFF00000
1FFFFFFFFE0001FFFFFFF00000
3FFFFFFFFC0001FFFFFFF00000
3FFFFFFFF00001FFFFFFF00000
7FFFFFFFC00001FFFFFFF00000
7FFFFFFF000001FFFFFFE00000
FFFFFFFE000001FFFFFFE00000
FFFFFFF8000001FFFFFFE00000
FFFFFFE0000001FFFFFFC00000
FFFFFF80000001FFFFFFC00000
7FFFFF00000003FFFFFFC00000
7FFFFC00000003FFFFFF800000
3FFFF800000003FFFFFF800000
1FFFE000000007FFFFFF000000
0FFFC000000007FFFFFF000000
07FF000000000FFFFFFE000000
01FC000000001FFFFFFE000000
0070000000001FFFFFFC000000
0000000000003FFFFFF8000000
0000000000007FFFFFF8000000
000000000000FFFFFFF0000000
000000000001FFFFFFE0000000
000000000003FFFFFFE0000000
000000000007FFFFFFC0000000
00000000000FFFFFFF80000000
00000000001FFFFFFF00000000
00000000003FFFFFFF00000000
0000000000FFFFFFFE00000000
0000000003FFFFFFFC00000000
0000000007FFFFFFFFF8000000
000000001FFFFFFFFFFF800000
000000007FFFFFFFFFFFE00000
00000001FFFFFFFFFFFFF80000
00000003FFFFFFFFFFFFFE0000
0000000FFFFFFFFFFFFFFF0000
0000003FFFFFFFFFFFFFFF8000
0000007FFFFFFFFFFFFFFFC000
000001FFFFFFFFFFFFFFFFE000
000007FFFFFFFFFFFFFFFFF000
00001FFFFFFFFFFFFFFFFFF800
00003FFFFFFFFFFFFFFFFFFC00
0000FFFFFFFFFFFFFFFFFFFE00
0001FFFFFFFFFFFFFFFFFFFE00
0003FFFFFFFFFFFFFFFFFFFF00
0007FFFFFFFFFFFFFFFFFFFF00
000FFFFFFFFFFFFFFFFFFFFF80
001FFFFFFFFFFFFFFFFFFFFF80
003FFFFFFFFFFFFFFFFFFFFFC0
007FFFFFFFFFFFFFFFFFFFFFC0
007FFFFFFFFFFFFFFFFFFFFFC0
00FFFFFFFFFFFFFFFFFFFFFFE0
00FFFFFFFFFFFFFFFFFFFFFFE0
00FFFFFFFFFFFFFFFFFFFFFFE0
01FFFFFFFFFFFFFFFFFFFFFFE0
01FFFFFFFFFFFF8001FFFFFFF0
00FFFFFFFFFF800000FFFFFFF0
00FFFFFFFFF00000007FFFFFF0
00FFFFFFFF000000003FFFFFF0
007FFFFFF8000000001FFFFFF0
007FFFFFE0000000001FFFFFF0
003FFFFF00000000001FFFFFF0
001FFFFC00000000000FFFFFF0
001FFFF000000000000FFFFFF0
000FFFE000000000000FFFFFE0
0007FF8000000000000FFFFFE0
0003FC0000000000001FFFFFE0
0000F00000000000001FFFFFE0
0000000000000000001FFFFFE0
0000000000000000001FFFFFE0
0000000000000000001FFFFFC0
0000000000000000001FFFFFC0
0000000000000000003FFFFFC0
0000000000000000003FFFFFC0
0000000000000000003FFFFFC0
0000000000000000007FFFFF80
0000000000000000007FFFFF80
000000000000000000FFFFFF80
000000000000000001FFFFFF00
000000000000000001FFFFFF00
000000000000000003FFFFFF00
000000000000000007FFFFFE00
000000000000000007FFFFFE00
00000000000000000FFFFFFE00
00000000000000001FFFFFFC00
00000000000000003FFFFFFC00
00000000000000007FFFFFF800
0000000000000000FFFFFFF800
0000000000000001FFFFFFF000
0000000000000003FFFFFFE000
000000000000000FFFFFFFE000
000000000000001FFFFFFFC000
000000000000003FFFFFFFC000
00000000000000FFFFFFFF8000
00000000000001FFFFFFFF0000
00000000000007FFFFFFFF0000
0000000000001FFFFFFFFE0000
0000000000007FFFFFFFFC0000
000000000001FFFFFFFFF80000
00000000000FFFFFFFFFF80000
00000000003FFFFFFFFFF00000
0000000001FFFFFFFFFFE00000
000000001FFFFFFFFFFFC00000
00000001FFFFFFFFFFFF800000
00000FFFFFFFFFFFFFFF000000
0007FFFFFFFFFFFFFFFE000000
001FFFFFFFFFFFFFFFFC000000
003FFFFFFFFFFFFFFFF8000000
003FFFFFFFFFFFFFFFF0000000
003FFFFFFFFFFFFFFFE0000000
003FFFFFFFFFFFFFFFC0000000
003FFFFFFFFFFFFFFF80000000
003FFFFFFFFFFFFFFF00000000
003FFFFFFFFFFFFFFC00000000
003FFFFFFFFFFFFFF800000000
003FFFFFFFFFFFFFF000000000
001FFFFFFFFFFFFFC000000000
001FFFFFFFFFFFFF8000000000
000FFFFFFFFFFFFF0000000000
000FFFFFFFFFFFFC0000000000
000FFFFFFFFFFFF00000000000
0007FFFFFFFFFFE00000000000
0007FFFFFFFFFF800000000000
0003FFFFFFFFFE000000000000
0001FFFFFFFFF8000000000000
0000FFFFFFFFC0000000000000
00007FFFFFFF00000000000000
00003FFFFFF800000000000000
00000FFFFF8000000000000000
000003FFF00000000000000000
ENDCHAR
STARTCHAR 0034
ENCODING 52
SWIDTH 466 0
DWIDTH 113 0
BBX 97 155 11 3
BITMAP
00000000000000000007F80000
0000000000000000000FFE0000
0000000000000000003FFF0000
000000000FC00000007FFF8000
000000001FF00000007FFFC000
000000003FF8000000FFFFE000
00000000FFFC000001FFFFE000
00000001FFFE000001FFFFF000
00000003FFFF000001FFFFF000
00000003FFFF800003FFFFF000
00000007FFFFC00003FFFFF800
0000000FFFFFC00003FFFFF800
0000001FFFFFC00003FFFFF800
0000001FFFFFE00007FFFFF800
0000003FFFFFE00007FFFFF800
0000007FFFFFE00007FFFFF800
0000007FFFFFE00007FFFFF800
000000FFFFFFC00007FFFFF800
000001FFFFFFC00007FFFFF800
000001FFFFFFC00007FFFFF800
000003FFFFFF800007FFFFF000
000007FFFFFF80000FFFFFF000
000007FFFFFF00000FFFFFF000
00000FFFFFFF00000FFFFFF000
00001FFFFFFE00000FFFFFF000
00001FFFFFFE00000FFFFFF000
00003FFFFFFC00000FFFFFF000
00003FFFFFFC00000FFFFFF000
00007FFFFFF800000FFFFFF000
0000FFFFFFF800000FFFFFF000
0000FFFFFFF000001FFFFFF000
0001FFFFFFF000001FFFFFF000
0001FFFFFFE000001FFFFFF000
0003FFFFFFC000001FFFFFE000
0003FFFFFFC000001FFFFFE000
0007FFFFFF8000001FFFFFE000
0007FFFFFF8000001FFFFFE000
0007FFFFFF0000001FFFFFE000
000FFFFFFF0000001FFFFFE000
000FFFFFFE0000001FFFFFE000
001FFFFFFE0000001FFFFFE000
001FFFFFFC0000003FFFFFE000
003FFFFFF80000003FFFFFE000
003FFFFFF80000003FFFFFC000
007FFFFFF00000003FFFFFC000
007FFFFFF00000003FFFFFC000
00FFFFFFE00000003FFFFFC000
00FFFFFFE00000003FFFFFC000
01FFFFFFC00000003FFFFFC000
01FFFFFFC00000003FFFFFC000
03FFFFFF800000003FFFFFC000
03FFFFFF800000003FFFFFC000
03FFFFFF000000003FFFFFC000
07FFFFFF000000007FFFFFC000
07FFFFFE000000007FFFFFC000
0FFFFFFE000000007FFFFF8000
0FFFFFFC000000007FFFFF8000
0FFFFFFC000000007FFFFF8000
1FFFFFF8000000007FFFFF8000
1FFFFFF8000000007FFFFF8000
1FFFFFF8000000007FFFFF8000
3FFFFFF000000000FFFFFF8000
3FFFFFF000000000FFFFFF8000
3FFFFFF000000000FFFFFF0000
7FFFFFE000000000FFFFFF0000
7FFFFFE000000000FFFFFF0000
7FFFFFE000000000FFFFFF0000
7FFFFFE000000000FFFFFF0000
FFFFFFFFF8000001FFFFFF0000
FFFFFFFFFFE00001FFFFFF0000
FFFFFFFFFFFF0001FFFFFF0000
FFFFFFFFFFFFFC01FFFFFF0000
FFFFFFFFFFFFFFFFFFFFFF0000
FFFFFFFFFFFFFFFFFFFFFF0000
FFFFFFFFFFFFFFFFFFFFFF0000
FFFFFFFFFFFFFFFFFFFFFFE000
FFFFFFFFFFFFFFFFFFFFFFF000
FFFFFFFFFFFFFFFFFFFFFFF800
FFFFFFFFFFFFFFFFFFFFFFFC00
FFFFFFFFFFFFFFFFFFFFFFFE00
FFFFFFFFFFFFFFFFFFFFFFFF00
FFFFFFFFFFFFFFFFFFFFFFFF00
FFFFFFFFFFFFFFFFFFFFFFFF00
7FFFFFFFFFFFFFFFFFFFFFFF80
3FFFFFFFFFFFFFFFFFFFFFFF80
1FFFFFFFFFFFFFFFFFFFFFFF80
0FFFFFFFFFFFFFFFFFFFFFFF80
07FFFFFFFFFFFFFFFFFFFFFF80
03FFFFFFFFFFFFFFFFFFFFFF80
00FFFFFFFFFFFFFFFFFFFFFF00
007FFFFFFFFFFFFFFFFFFFFF00
001FFFFFFFFFFFFFFFFFFFFE00
0003FFFFFFFFFFFFFFFFFFFE00
0000FFFFFFFFFFFFFFFFFFFC00
00000FFFFFFFFFFFFFFFFFFC00
000000FFFFFFFFFFFFFFFFF800
00000003FFFFFFFFFFFFFFF000
00000000007FFFFFFFFFFFC000
00000000000000FFFFFFFE0000
0000000000000001FFFFFE0000
0000000000000001FFFFFE0000
0000000000000001FFFFFE0000
0000000000000001FFFFFC0000
0000000000000001FFFFFC0000
0000000000000001FFFFFC0000
0000000000000001FFFFFC0000
0000000000000001FFFFFC0000
0000000000000001FFFFF80000
0000000000000001FFFFF80000
0000000000000001FFFFF80000
0000000000000001FFFFF80000
0000000000000003FFFFF80000
0000000000000003FFFFF80000
0000000000000003FFFFF80000
0000000000000003FFFFF80000
0000000000000003FFFFF80000
0000000000000007FFFFF80000
0000000000000007FFFFF80000
0000000000000007FFFFF80000
0000000000000007FFFFF80000
0000000000000007FFFFF80000
0000000000000007FFFFF80000
000000000000000FFFFFF00000
000000000000000FFFFFF00000
000000000000000FFFFFF00000
000000000000000FFFFFF00000
000000000000000FFFFFF00000
000000000000000FFFFFF00000
000000000000000FFFFFF00000
000000000000000FFFFFF00000
000000000000001FFFFFF00000
000000000000001FFFFFF00000
000000000000001FFFFFF00000
000000000000001FFFFFF00000
000000000000001FFFFFF00000
000000000000001FFFFFF00000
000000000000001FFFFFF00000
000000000000001FFFFFE00000
000000000000001FFFFFE00000
000000000000001FFFFFE00000
000000000000001FFFFFE00000
000000000000001FFFFFE00000
000000000000001FFFFFE00000
000000000000001FFFFFC00000
000000000000001FFFFFC00000
000000000000001FFFFFC00000
000000000000000FFFFF800000
000000000000000FFFFF800000
000000000000000FFFFF000000
000000000000000FFFFE000000
0000000000000007FFFE000000
0000000000000003FFFC000000
0000000000000003FFF8000000
0000000000000000FFE0000000
00000000000000003F80000000
ENDCHAR
STARTCHAR 0035
ENCODING 53
SWIDTH 508 0
DWIDTH 123 0
BBX 104 157 19 0
BITMAP
0000000000003FFFFF80000000
00000000007FFFFFFFF8000000
000000000FFFFFFFFFFE000000
000000007FFFFFFFFFFF000000
00000003FFFFFFFFFFFF800000
0000001FFFFFFFFFFFFFC00000
0000007FFFFFFFFFFFFFE00000
000001FFFFFFFFFFFFFFE00000
000007FFFFFFFFFFFFFFF00000
00000FFFFFFFFFFFFFFFF00000
00003FFFFFFFFFFFFFFFF00000
00007FFFFFFFFFFFFFFFF00000
0000FFFFFFFFFFFFFFFFF00000
0001FFFFFFFFFFFFFFFFF00000
0003FFFFFFFFFFFFFFFFF00000
0007FFFFFFFFFFFFFFFFF00000
000FFFFFFFFFFFFFFFFFE00000
000FFFFFFFFFFFFFFFFFE00000
001FFFFFFFFFFFFFFFFFC00000
001FFFFFFFFFFFFFFFFF000000
001FFFFFFFFFFFE00000000000
003FFFFFFFFFE0000000000000
003FFFFFFFFC00000000000000
003FFFFFFFC000000000000000
003FFFFFFC0000000000000000
007FFFFFF00000000000000000
007FFFFFC00000000000000000
007FFFFF800000000000000000
007FFFFF800000000000000000
007FFFFF800000000000000000
00FFFFFF800000000000000000
00FFFFFF800000000000000000
00FFFFFF000000000000000000
00FFFFFF000000000000000000
00FFFFFF000000000000000000
00FFFFFF000000000000000000
01FFFFFF000000000000000000
01FFFFFF000000000000000000
01FFFFFE000000000000000000
01FFFFFE000000000000000000
01FFFFFE000000000000000000
01FFFFFE000000000000000000
03FFFFFE000000000000000000
03FFFFFC000000000000000000
03FFFFFC000000000000000000
03FFFFFC000000000000000000
03FFFFFC000000001FFE000000
03FFFFFC00000007FFFFF00000
07FFFFFC0000007FFFFFFC0000
07FFFFF8000001FFFFFFFF0000
07FFFFF800000FFFFFFFFFC000
07FFFFF800003FFFFFFFFFE000
07FFFFF80000FFFFFFFFFFF800
0FFFFFF80003FFFFFFFFFFFC00
0FFFFFF00007FFFFFFFFFFFE00
0FFFFFF0001FFFFFFFFFFFFF00
0FFFFFF0003FFFFFFFFFFFFF80
0FFFFFF0007FFFFFFFFFFFFFC0
0FFFFFF001FFFFFFFFFFFFFFC0
1FFFFFF003FFFFFFFFFFFFFFE0
1FFFFFE007FFFFFFFFFFFFFFF0
1FFFFFE00FFFFFFFFFFFFFFFF0
1FFFFFE01FFFFFFFFFFFFFFFF8
1FFFFFE03FFFFFFFFFFFFFFFF8
1FFFFFE07FFFFFFFFFFFFFFFFC
1FFFFFE0FFFFFFFFFFFFFFFFFC
3FFFFFE1FFFFFFFFFFFFFFFFFC
3FFFFFE3FFFFFFFFFFFFFFFFFE
3FFFFFC3FFFFFFFFFFFFFFFFFE
3FFFFFC7FFFFFFFFFFFFFFFFFE
3FFFFFCFFFFFFFFFFFFFFFFFFE
3FFFFFDFFFFFFFFFFFFFFFFFFF
3FFFFFDFFFFFFFFFFFFFFFFFFF
7FFFFFFFFFFFFFFFC0FFFFFFFF
7FFFFFFFFFFFFFFC003FFFFFFF
7FFFFFFFFFFFFFF0003FFFFFFF
7FFFFFFFFFFFFFC0001FFFFFFF
7FFFFFFFFFFFFF00001FFFFFFF
7FFFFFFFFFFFFE00000FFFFFFF
7FFFFFFFFFFFF800000FFFFFFF
7FFFFFFFFFFFF000000FFFFFFF
7FFFFFFFFFFFC000000FFFFFFF
FFFFFFFFFFFF8000000FFFFFFF
FFFFFFFFFFFE0000000FFFFFFF
FFFFFFFFFFFC0000000FFFFFFF
FFFFFFFFFFF80000000FFFFFFF
FFFFFFFFFFF00000001FFFFFFF
FFFFFFFFFFC00000001FFFFFFE
FFFFFFFFFF800000001FFFFFFE
FFFFFFFFFF000000001FFFFFFE
FFFFFFFFFC000000003FFFFFFE
7FFFFFFFF8000000003FFFFFFE
7FFFFFFFF0000000007FFFFFFC
7FFFFFFFE0000000007FFFFFFC
7FFFFFFF8000000000FFFFFFFC
7FFFFFFF0000000000FFFFFFFC
3FFFFFFE0000000001FFFFFFF8
3FFFFFFC0000000001FFFFFFF8
3FFFFFF00000000003FFFFFFF8
1FFFFFE00000000007FFFFFFF0
1FFFFFC00000000007FFFFFFF0
0FFFFF80000000000FFFFFFFE0
07FFFE00000000001FFFFFFFE0
07FFFC00000000003FFFFFFFC0
01FFF000000000007FFFFFFFC0
00FFC000000000007FFFFFFF80
001E000000000000FFFFFFFF80
0000000000000001FFFFFFFF00
0000000000000003FFFFFFFF00
0000000000000007FFFFFFFE00
0000000000000007FFFFFFFC00
000000000000000FFFFFFFFC00
000000000000001FFFFFFFF800
000000000000003FFFFFFFF000
000000000000007FFFFFFFF000
00000000000000FFFFFFFFE000
00000000000001FFFFFFFFC000
00000000000003FFFFFFFF8000
00000000000007FFFFFFFF8000
0000000000001FFFFFFFFF0000
0000000000003FFFFFFFFE0000
0000000000007FFFFFFFFC0000
000000000000FFFFFFFFF80000
000000000003FFFFFFFFF00000
000000000007FFFFFFFFE00000
00000000001FFFFFFFFFC00000
00000000007FFFFFFFFF800000
0000000003FFFFFFFFFF000000
000000001FFFFFFFFFFE000000
0001FFFFFFFFFFFFFFFC000000
007FFFFFFFFFFFFFFFF8000000
00FFFFFFFFFFFFFFFFF0000000
01FFFFFFFFFFFFFFFFE0000000
01FFFFFFFFFFFFFFFFC0000000
03FFFFFFFFFFFFFFFF80000000
03FFFFFFFFFFFFFFFE00000000
03FFFFFFFFFFFFFFFC00000000
03FFFFFFFFFFFFFFF800000000
03FFFFFFFFFFFFFFF000000000
03FFFFFFFFFFFFFFC000000000
03FFFFFFFFFFFFFF8000000000
03FFFFFFFFFFFFFF0000000000
03FFFFFFFFFFFFFC0000000000
03FFFFFFFFFFFFF80000000000
01FFFFFFFFFFFFE00000000000
01FFFFFFFFFFFFC00000000000
01FFFFFFFFFFFF000000000000
00FFFFFFFFFFFE000000000000
00FFFFFFFFFFF8000000000000
007FFFFFFFFFE0000000000000
007FFFFFFFFF80000000000000
003FFFFFFFFC00000000000000
001FFFFFFFF000000000000000
000FFFFFFF8000000000000000
0003FFFFFC0000000000000000
0000FFFFC00000000000000000
000007E0000000000000000000
ENDCHAR
STARTCHAR 0036
ENCODING 54
SWIDTH 475 0
DWIDTH 115 0
BBX 99 156 16 1
BITMAP
000000000007FC000000000000
00000000003FFE000000000000
0000000000FFFE000000000000
0000000003FFFF000000000000
0000000007FFFF000000000000
000000000FFFFF800000000000
000000001FFFFF800000000000
000000003FFFFF800000000000
000000003FFFFF800000000000
000000007FFFFF800000000000
00000000FFFFFF800000000000
00000000FFFFFF800000000000
00000001FFFFFFC00000000000
00000003FFFFFF800000000000
00000003FFFFFF800000000000
00000007FFFFFF800000000000
0000000FFFFFFF000000000000
0000000FFFFFFF000000000000
0000001FFFFFFE000000000000
0000001FFFFFFE000000000000
0000003FFFFFFC000000000000
0000003FFFFFF8000000000000
0000007FFFFFF8000000000000
0000007FFFFFF0000000000000
000000FFFFFFF0000000000000
000000FFFFFFE0000000000000
000001FFFFFFE0000000000000
000001FFFFFFC0000000000000
000003FFFFFFC0000000000000
000003FFFFFF80000000000000
000007FFFFFF80000000000000
000007FFFFFF00000000000000
000007FFFFFF00000000000000
00000FFFFFFE00000000000000
00000FFFFFFC00000000000000
00001FFFFFFC00000000000000
00001FFFFFF800000000000000
00003FFFFFF800000000000000
00003FFFFFF000000000000000
00003FFFFFF000000000000000
00007FFFFFE000000000000000
00007FFFFFE000000000000000
00007FFFFFC000000000000000
0000FFFFFFC000000000000000
0000FFFFFF8000000000000000
0001FFFFFF8000000000000000
0001FFFFFF0000000000000000
0001FFFFFF0000000000000000
0003FFFFFE0000000000000000
0003FFFFFE0000000000000000
0007FFFFFC0000000000000000
0007FFFFFC0000000000000000
0007FFFFF80000000000000000
000FFFFFF80000000000000000
000FFFFFF00000000000000000
000FFFFFF00000000000000000
001FFFFFE00000000000000000
001FFFFFE00000000000000000
003FFFFFE000007FFF80000000
003FFFFFC0001FFFFFF8000000
003FFFFFC001FFFFFFFF800000
007FFFFFC007FFFFFFFFE00000
007FFFFF803FFFFFFFFFF80000
007FFFFF80FFFFFFFFFFFE0000
00FFFFFF83FFFFFFFFFFFF0000
00FFFFFF07FFFFFFFFFFFF8000
00FFFFFF1FFFFFFFFFFFFFC000
01FFFFFF3FFFFFFFFFFFFFE000
01FFFFFF7FFFFFFFFFFFFFF000
01FFFFFEFFFFFFFFFFFFFFF000
03FFFFFFFFFFFFFFFFFFFFF800
03FFFFFFFFFFFFFFFFFFFFFC00
03FFFFFFFFFFFFFFFFFFFFFC00
07FFFFFFFFFFFFFFFFFFFFFE00
07FFFFFFFFFFFFFFFFFFFFFF00
07FFFFFFFFFFFFFFFFFFFFFF00
07FFFFFFFFFFFFFFFFFFFFFF00
0FFFFFFFFFFFFFFFFFFFFFFF80
0FFFFFFFFFFFFFFFFFFFFFFF80
0FFFFFFFFFFFFFFFFFFFFFFF80
1FFFFFFFFFFFFFFFFFFFFFFFC0
1FFFFFFFFFFFFFE007FFFFFFC0
1FFFFFFFFFFFFE0001FFFFFFC0
1FFFFFFFFFFFF00000FFFFFFC0
3FFFFFFFFFFFC000007FFFFFE0
3FFFFFFFFFFF0000003FFFFFE0
3FFFFFFFFFFE0000003FFFFFE0
3FFFFFFFFFF80000001FFFFFE0
3FFFFFFFFFF00000001FFFFFE0
7FFFFFFFFFC00000000FFFFFE0
7FFFFFFFFF800000000FFFFFE0
7FFFFFFFFE000000000FFFFFE0
7FFFFFFFFC000000000FFFFFE0
7FFFFFFFF8000000000FFFFFE0
FFFFFFFFF0000000000FFFFFE0
FFFFFFFFE0000000000FFFFFE0
FFFFFFFFC0000000000FFFFFE0
FFFFFFFF80000000000FFFFFE0
FFFFFFFF00000000000FFFFFC0
FFFFFFFF00000000000FFFFFC0
FFFFFFFE00000000000FFFFFC0
FFFFFFFC00000000001FFFFFC0
FFFFFFFC00000000001FFFFFC0
FFFFFFF800000000001FFFFF80
FFFFFFF800000000001FFFFF80
FFFFFFF000000000001FFFFF80
FFFFFFF000000000003FFFFF80
FFFFFFE000000000003FFFFF00
FFFFFFE000000000003FFFFF00
FFFFFFE000000000007FFFFF00
FFFFFFC000000000007FFFFE00
FFFFFFC00000000000FFFFFE00
FFFFFFC00000000000FFFFFE00
FFFFFF800000000000FFFFFC00
FFFFFF800000000001FFFFFC00
7FFFFF800000000003FFFFF800
7FFFFF800000000003FFFFF800
7FFFFF800000000007FFFFF800
7FFFFF00000000000FFFFFF000
3FFFFF00000000001FFFFFF000
3FFFFF00000000001FFFFFE000
3FFFFF80000000003FFFFFE000
1FFFFF80000000007FFFFFC000
1FFFFF8000000000FFFFFF8000
1FFFFFC000000003FFFFFF8000
0FFFFFC000000007FFFFFF0000
0FFFFFE00000001FFFFFFE0000
07FFFFF00000003FFFFFFE0000
07FFFFFC000001FFFFFFFC0000
03FFFFFF000007FFFFFFF80000
03FFFFFFE000FFFFFFFFF80000
01FFFFFFFFFFFFFFFFFFF00000
01FFFFFFFFFFFFFFFFFFE00000
00FFFFFFFFFFFFFFFFFFC00000
00FFFFFFFFFFFFFFFFFF800000
007FFFFFFFFFFFFFFFFF800000
003FFFFFFFFFFFFFFFFF000000
003FFFFFFFFFFFFFFFFE000000
001FFFFFFFFFFFFFFFFC000000
000FFFFFFFFFFFFFFFF8000000
0007FFFFFFFFFFFFFFF0000000
0007FFFFFFFFFFFFFFE0000000
0003FFFFFFFFFFFFFFC0000000
0001FFFFFFFFFFFFFF80000000
0000FFFFFFFFFFFFFE00000000
00007FFFFFFFFFFFFC00000000
00003FFFFFFFFFFFF800000000
00001FFFFFFFFFFFE000000000
00000FFFFFFFFFFFC000000000
000003FFFFFFFFFF0000000000
000001FFFFFFFFFC0000000000
0000007FFFFFFFF80000000000
0000001FFFFFFFC00000000000
00000007FFFFFF000000000000
00000001FFFFF8000000000000
000000001FFF80000000000000
ENDCHAR
STARTCHAR 0037
ENCODING 55
SWIDTH 466 0
DWIDTH 113 0
BBX 97 158 20 1
BITMAP
0000000000001FF00000000000
0000000003FFFFFFFF80000000
00000000FFFFFFFFFFFC000000
0000000FFFFFFFFFFFFFC00000
0000007FFFFFFFFFFFFFF80000
000003FFFFFFFFFFFFFFFE0000
00000FFFFFFFFFFFFFFFFF8000
00003FFFFFFFFFFFFFFFFFC000
0000FFFFFFFFFFFFFFFFFFE000
0003FFFFFFFFFFFFFFFFFFF000
0007FFFFFFFFFFFFFFFFFFF800
001FFFFFFFFFFFFFFFFFFFFC00
003FFFFFFFFFFFFFFFFFFFFE00
007FFFFFFFFFFFFFFFFFFFFE00
00FFFFFFFFFFFFFFFFFFFFFF00
01FFFFFFFFFFFFFFFFFFFFFF00
03FFFFFFFFFFFFFFFFFFFFFF00
07FFFFFFFFFFFFFFFFFFFFFF80
0FFFFFFFFFFFFFFFFFFFFFFF80
1FFFFFFFFFFFFFFFFFFFFFFF80
1FFFFFFFFFFFFFFFFFFFFFFF00
3FFFFFFFFFFFFFFFFFFFFFFF00
3FFFFFFFFFF0007FFFFFFFFF00
7FFFFFFFF80000001FFFFFFF00
7FFFFFFFC00000000FFFFFFE00
7FFFFFFE000000001FFFFFFE00
FFFFFFF8000000001FFFFFFC00
FFFFFFF0000000001FFFFFFC00
FFFFFFE0000000003FFFFFFC00
FFFFFF80000000003FFFFFF800
FFFFFF00000000003FFFFFF800
FFFFFE00000000007FFFFFF000
FFFFFC00000000007FFFFFF000
FFFFF800000000007FFFFFF000
7FFFF80000000000FFFFFFE000
3FFFF00000000000FFFFFFE000
1FFFE00000000001FFFFFFC000
0FFFC00000000001FFFFFFC000
01FF000000000001FFFFFFC000
0000000000000003FFFFFF8000
0000000000000003FFFFFF8000
0000000000000007FFFFFF0000
0000000000000007FFFFFF0000
000000000000000FFFFFFF0000
000000000000000FFFFFFE0000
000000000000000FFFFFFE0000
000000000000001FFFFFFC0000
000000000000001FFFFFFC0000
000000000000003FFFFFF80000
000000000000003FFFFFF80000
000000000000007FFFFFF80000
000000000000007FFFFFF00000
000000000000007FFFFFF00000
00000000000000FFFFFFE00000
00000000000000FFFFFFE00000
00000000000001FFFFFFC00000
00000000000001FFFFFFC00000
00000000000003FFFFFF800000
00000000000003FFFFFF800000
00000000000007FFFFFF000000
00000000000007FFFFFF000000
00000000000007FFFFFF000000
0000000000000FFFFFFE000000
0000000000000FFFFFFE000000
0000000000001FFFFFFC000000
0000000000001FFFFFFC000000
0000000000003FFFFFF8000000
0000000000003FFFFFF8000000
0000000000003FFFFFF0000000
0000000000007FFFFFF0000000
0000000000007FFFFFE0000000
000000000000FFFFFFE0000000
000000000000FFFFFFE0000000
000000000001FFFFFFC0000000
000000000001FFFFFFC0000000
000000000003FFFFFF80000000
000000000003FFFFFF80000000
000000000007FFFFFF00000000
000000000007FFFFFF00000000
000000000007FFFFFE00000000
00000000000FFFFFFE00000000
00000000000FFFFFFC00000000
00000000001FFFFFFC00000000
00000000001FFFFFF800000000
00000000003FFFFFF800000000
00000000003FFFFFF800000000
00000000007FFFFFF000000000
00000000007FFFFFF000000000
0000000000FFFFFFE000000000
0000000000FFFFFFE000000000
0000000000FFFFFFC000000000
0000000001FFFFFFC000000000
0000000001FFFFFF8000000000
0000000003FFFFFF8000000000
0000000003FFFFFF0000000000
0000000007FFFFFF0000000000
0000000007FFFFFE0000000000
000000000FFFFFFE0000000000
000000000FFFFFFC0000000000
000000001FFFFFFC0000000000
000000001FFFFFFC0000000000
000000001FFFFFF80000000000
000000003FFFFFF80000000000
000000003FFFFFF00000000000
000000007FFFFFF00000000000
000000007FFFFFE00000000000
00000000FFFFFFE00000000000
00000000FFFFFFC00000000000
00000001FFFFFFC00000000000
00000001FFFFFF800000000000
00000001FFFFFF800000000000
00000003FFFFFF000000000000
00000003FFFFFF000000000000
00000007FFFFFE000000000000
00000007FFFFFE000000000000
0000000FFFFFFC000000000000
0000000FFFFFFC000000000000
0000001FFFFFF8000000000000
0000001FFFFFF8000000000000
0000001FFFFFF0000000000000
0000003FFFFFF0000000000000
0000003FFFFFE0000000000000
0000007FFFFFE0000000000000
0000007FFFFFE0000000000000
0000007FFFFFC0000000000000
000000FFFFFFC0000000000000
000000FFFFFFC0000000000000
000001FFFFFF80000000000000
000001FFFFFF80000000000000
000001FFFFFF80000000000000
000003FFFFFF00000000000000
000003FFFFFF00000000000000
000003FFFFFF00000000000000
000003FFFFFF00000000000000
000007FFFFFE00000000000000
000007FFFFFE00000000000000
000007FFFFFE00000000000000
000007FFFFFE00000000000000
000007FFFFFC00000000000000
00000FFFFFFC00000000000000
00000FFFFFFC00000000000000
00000FFFFFFC00000000000000
00000FFFFFFC00000000000000
00000FFFFFF800000000000000
00000FFFFFF800000000000000
00000FFFFFF800000000000000
00000FFFFFF800000000000000
00000FFFFFF000000000000000
00000FFFFFF000000000000000
000007FFFFF000000000000000
000007FFFFF000000000000000
000007FFFFE000000000000000
000003FFFFE000000000000000
000001FFFFE000000000000000
000001FFFFC000000000000000
000000FFFFC000000000000000
0000003FFF0000000000000000
0000001FFC0000000000000000
ENDCHAR
STARTCHAR 0038
ENCODING 56
SWIDTH 483 0
DWIDTH 117 0
BBX 100 158 15 0
BITMAP
00000000000007FF8000000000
000000000000FFFFFC00000000
000000000007FFFFFF00000000
00000000003FFFFFFFE0000000
0000000000FFFFFFFFF8000000
0000000003FFFFFFFFFC000000
0000000007FFFFFFFFFF000000
000000001FFFFFFFFFFF800000
000000007FFFFFFFFFFFE00000
00000000FFFFFFFFFFFFF00000
00000001FFFFFFFFFFFFF80000
00000007FFFFFFFFFFFFFC0000
0000000FFFFFFFFFFFFFFE0000
0000001FFFFFFFFFFFFFFF0000
0000003FFFFFFFFFFFFFFF8000
0000007FFFFFFFFFFFFFFF8000
000000FFFFFFFFFFFFFFFFC000
000001FFFFFFFFFFFFFFFFE000
000003FFFFFFFFFFFFFFFFF000
000007FFFFFFFFFFFFFFFFF800
00000FFFFFFFFFFFFFFFFFF800
00001FFFFFFFFFFFFFFFFFFC00
00003FFFFFFFFE03FFFFFFFE00
00003FFFFFFFE0007FFFFFFE00
00007FFFFFFF80003FFFFFFF00
0000FFFFFFFE00001FFFFFFF00
0001FFFFFFFC00000FFFFFFF80
0001FFFFFFF0000007FFFFFF80
0003FFFFFFE0000003FFFFFFC0
0007FFFFFFC0000003FFFFFFC0
0007FFFFFF80000001FFFFFFC0
000FFFFFFF00000001FFFFFFE0
000FFFFFFF00000000FFFFFFE0
001FFFFFFE00000000FFFFFFE0
001FFFFFFC00000000FFFFFFE0
003FFFFFF800000000FFFFFFF0
003FFFFFF800000000FFFFFFF0
007FFFFFF000000000FFFFFFF0
007FFFFFF000000000FFFFFFF0
00FFFFFFF000000000FFFFFFF0
00FFFFFFE000000000FFFFFFF0
00FFFFFFE000000001FFFFFFF0
01FFFFFFE000000001FFFFFFF0
01FFFFFFE000000001FFFFFFF0
01FFFFFFE000000003FFFFFFF0
01FFFFFFE000000003FFFFFFF0
01FFFFFFE000000007FFFFFFF0
03FFFFFFE00000000FFFFFFFF0
03FFFFFFE00000000FFFFFFFF0
03FFFFFFE00000001FFFFFFFE0
03FFFFFFF00000003FFFFFFFE0
03FFFFFFF00000007FFFFFFFE0
03FFFFFFF8000000FFFFFFFFE0
03FFFFFFFC000001FFFFFFFFC0
03FFFFFFFC000003FFFFFFFFC0
03FFFFFFFE00000FFFFFFFFF80
03FFFFFFFF80001FFFFFFFFF80
03FFFFFFFFC0007FFFFFFFFF80
03FFFFFFFFF803FFFFFFFFFF00
01FFFFFFFFFFFFFFFFFFFFFE00
01FFFFFFFFFFFFFFFFFFFFFE00
01FFFFFFFFFFFFFFFFFFFFFC00
00FFFFFFFFFFFFFFFFFFFFFC00
00FFFFFFFFFFFFFFFFFFFFF800
007FFFFFFFFFFFFFFFFFFFF000
003FFFFFFFFFFFFFFFFFFFE000
003FFFFFFFFFFFFFFFFFFFC000
001FFFFFFFFFFFFFFFFFFF8000
000FFFFFFFFFFFFFFFFFFF0000
0007FFFFFFFFFFFFFFFFFE0000
0007FFFFFFFFFFFFFFFFFC0000
0003FFFFFFFFFFFFFFFFF80000
0000FFFFFFFFFFFFFFFFF00000
00007FFFFFFFFFFFFFFFC00000
00003FFFFFFFFFFFFFFF800000
00001FFFFFFFFFFFFFFE000000
000007FFFFFFFFFFFFF8000000
000001FFFFFFFFFFFFE0000000
000000FFFFFFFFFFFF80000000
0000001FFFFFFFFFFE00000000
00000007FFFFFFFFFF80000000
00000001FFFFFFFFFFE0000000
0000000FFFFFFFFFFFF8000000
0000003FFFFFFFFFFFFC000000
000000FFFFFFFFFFFFFF000000
000003FFFFFFFFFFFFFF800000
000007FFFFFFFFFFFFFFC00000
00001FFFFFFFFFFFFFFFE00000
00003FFFFFFFFFFFFFFFF00000
0000FFFFFFFFFFFFFFFFF80000
0001FFFFFFFFFFFFFFFFFC0000
0003FFFFFFFFFFFFFFFFFE0000
0007FFFFFFFFFFFFFFFFFF0000
000FFFFFFFFFFFFFFFFFFF0000
001FFFFFFFFFFFFFFFFFFF8000
003FFFFFFFFFFFFFFFFFFFC000
007FFFFFFFFFFFFFFFFFFFC000
00FFFFFFFFFFFFFFFFFFFFE000
01FFFFFFFFFC03FFFFFFFFE000
01FFFFFFFFC0007FFFFFFFE000
03FFFFFFFF00003FFFFFFFF000
07FFFFFFFC00000FFFFFFFF000
07FFFFFFF8000007FFFFFFF000
0FFFFFFFE0000003FFFFFFF800
0FFFFFFFC0000001FFFFFFF800
1FFFFFFF80000001FFFFFFF800
1FFFFFFF00000000FFFFFFF800
1FFFFFFE00000000FFFFFFF800
3FFFFFFC000000007FFFFFF800
3FFFFFF8000000007FFFFFF800
3FFFFFF8000000003FFFFFF800
7FFFFFF0000000003FFFFFF800
7FFFFFF0000000003FFFFFF800
7FFFFFE0000000003FFFFFF800
7FFFFFE0000000003FFFFFF000
7FFFFFE0000000003FFFFFF000
7FFFFFE0000000003FFFFFF000
FFFFFFE0000000007FFFFFF000
FFFFFFE0000000007FFFFFE000
7FFFFFE0000000007FFFFFE000
7FFFFFE000000000FFFFFFE000
7FFFFFE000000000FFFFFFC000
7FFFFFF000000001FFFFFFC000
7FFFFFF800000003FFFFFFC000
7FFFFFF800000007FFFFFF8000
7FFFFFFC0000000FFFFFFF8000
7FFFFFFE0000001FFFFFFF0000
3FFFFFFF8000007FFFFFFF0000
3FFFFFFFE00001FFFFFFFE0000
3FFFFFFFFC000FFFFFFFFE0000
3FFFFFFFFFFFFFFFFFFFFC0000
1FFFFFFFFFFFFFFFFFFFFC0000
1FFFFFFFFFFFFFFFFFFFF80000
0FFFFFFFFFFFFFFFFFFFF00000
0FFFFFFFFFFFFFFFFFFFF00000
07FFFFFFFFFFFFFFFFFFE00000
07FFFFFFFFFFFFFFFFFFC00000
03FFFFFFFFFFFFFFFFFF800000
03FFFFFFFFFFFFFFFFFF800000
01FFFFFFFFFFFFFFFFFF000000
00FFFFFFFFFFFFFFFFFE000000
00FFFFFFFFFFFFFFFFFC000000
007FFFFFFFFFFFFFFFF8000000
003FFFFFFFFFFFFFFFF0000000
001FFFFFFFFFFFFFFFE0000000
000FFFFFFFFFFFFFFFC0000000
0007FFFFFFFFFFFFFF80000000
0003FFFFFFFFFFFFFE00000000
0001FFFFFFFFFFFFFC00000000
0000FFFFFFFFFFFFF800000000
00003FFFFFFFFFFFE000000000
00001FFFFFFFFFFF8000000000
000007FFFFFFFFFF0000000000
000001FFFFFFFFFC0000000000
0000007FFFFFFFF00000000000
0000001FFFFFFFC00000000000
00000003FFFFFE000000000000
000000001FFFE0000000000000
ENDCHAR
STARTCHAR 0039
ENCODING 57
SWIDTH 471 0
DWIDTH 114 0
BBX 99 156 14 1
BITMAP
0000000000003FFE0000000000
000000000007FFFFE000000000
00000000003FFFFFFC00000000
0000000000FFFFFFFF00000000
0000000003FFFFFFFFC0000000
000000000FFFFFFFFFF0000000
000000003FFFFFFFFFF8000000
00000000FFFFFFFFFFFE000000
00000001FFFFFFFFFFFF000000
00000007FFFFFFFFFFFF800000
0000000FFFFFFFFFFFFFC00000
0000003FFFFFFFFFFFFFE00000
0000007FFFFFFFFFFFFFF00000
000000FFFFFFFFFFFFFFF80000
000001FFFFFFFFFFFFFFFC0000
000003FFFFFFFFFFFFFFFE0000
00000FFFFFFFFFFFFFFFFF0000
00001FFFFFFFFFFFFFFFFF0000
00003FFFFFFFFFFFFFFFFF8000
00003FFFFFFFFFFFFFFFFFC000
00007FFFFFFFFFFFFFFFFFC000
0000FFFFFFFFFFFFFFFFFFE000
0001FFFFFFFFFFFFFFFFFFF000
0003FFFFFFFFFFFFFFFFFFF000
0007FFFFFFFFFFFFFFFFFFF800
0007FFFFFFFFFFFFFFFFFFF800
000FFFFFFFFFFFFFFFFFFFFC00
001FFFFFFFFF8001FFFFFFFC00
001FFFFFFFFC00001FFFFFFE00
003FFFFFFFE0000007FFFFFE00
007FFFFFFF80000003FFFFFE00
007FFFFFFE00000001FFFFFF00
00FFFFFFFC00000000FFFFFF00
00FFFFFFF000000000FFFFFF00
01FFFFFFE0000000007FFFFF80
01FFFFFFC0000000007FFFFF80
03FFFFFF80000000007FFFFF80
03FFFFFF00000000007FFFFF80
07FFFFFE00000000007FFFFF80
07FFFFFC00000000007FFFFFC0
07FFFFFC00000000007FFFFFC0
0FFFFFF80000000000FFFFFFC0
0FFFFFF00000000000FFFFFFC0
1FFFFFE00000000000FFFFFFC0
1FFFFFE00000000000FFFFFFC0
1FFFFFC00000000001FFFFFFC0
3FFFFFC00000000001FFFFFFC0
3FFFFF800000000003FFFFFFC0
3FFFFF800000000003FFFFFFE0
3FFFFF800000000007FFFFFFE0
7FFFFF000000000007FFFFFFE0
7FFFFF00000000000FFFFFFFE0
7FFFFF00000000000FFFFFFFE0
7FFFFE00000000001FFFFFFFE0
7FFFFE00000000001FFFFFFFC0
FFFFFE00000000003FFFFFFFC0
FFFFFE00000000007FFFFFFFC0
FFFFFE00000000007FFFFFFFC0
FFFFFE0000000000FFFFFFFFC0
FFFFFE0000000001FFFFFFFFC0
FFFFFC0000000003FFFFFFFFC0
FFFFFC0000000007FFFFFFFFC0
FFFFFC000000000FFFFFFFFF80
FFFFFC000000001FFFFFFFFF80
FFFFFC000000003FFFFFFFFF80
FFFFFC00000000FFFFFFFFFF80
FFFFFC00000001FFFFFFFFFF80
FFFFFE00000003FFFFFFFFFF80
FFFFFE0000000FFFFFFFFFFF00
FFFFFE0000001FFFFFFFFFFF00
FFFFFF0000007FFFFFFFFFFF00
FFFFFF000001FFFFFFFFFFFF00
FFFFFF800007FFFFFFFFFFFF00
7FFFFFC0001FFFFFFFFFFFFE00
7FFFFFE0007FFFFFFFFFFFFE00
7FFFFFF803FFFFFFFFFFFFFE00
7FFFFFFFFFFFFFFFFFFFFFFE00
3FFFFFFFFFFFFFFFFF7FFFFC00
3FFFFFFFFFFFFFFFFE7FFFFC00
3FFFFFFFFFFFFFFFFE7FFFFC00
1FFFFFFFFFFFFFFFFCFFFFF800
1FFFFFFFFFFFFFFFF8FFFFF800
0FFFFFFFFFFFFFFFF0FFFFF800
07FFFFFFFFFFFFFFE1FFFFF800
07FFFFFFFFFFFFFF81FFFFF000
03FFFFFFFFFFFFFF01FFFFF000
01FFFFFFFFFFFFFE03FFFFF000
00FFFFFFFFFFFFF803FFFFE000
00FFFFFFFFFFFFF003FFFFE000
007FFFFFFFFFFFC007FFFFE000
001FFFFFFFFFFF0007FFFFC000
000FFFFFFFFFFC000FFFFFC000
0003FFFFFFFFF0000FFFFFC000
0001FFFFFFFF80001FFFFF8000
00003FFFFFFC00001FFFFF8000
000007FFFFE000003FFFFF0000
0000007FFE0000003FFFFF0000
00000000000000007FFFFF0000
00000000000000007FFFFE0000
00000000000000007FFFFE0000
0000000000000000FFFFFE0000
0000000000000000FFFFFC0000
0000000000000001FFFFFC0000
0000000000000001FFFFF80000
0000000000000003FFFFF80000
0000000000000003FFFFF80000
0000000000000007FFFFF00000
0000000000000007FFFFF00000
000000000000000FFFFFE00000
000000000000000FFFFFE00000
000000000000001FFFFFE00000
000000000000001FFFFFC00000
000000000000003FFFFFC00000
000000000000003FFFFF800000
000000000000007FFFFF800000
00000000000000FFFFFF000000
00000000000000FFFFFF000000
00000000000001FFFFFE000000
00000000000001FFFFFE000000
00000000000003FFFFFC000000
00000000000003FFFFFC000000
00000000000007FFFFF8000000
00000000000007FFFFF8000000
0000000000000FFFFFF8000000
0000000000000FFFFFF0000000
0000000000000FFFFFF0000000
0000000000001FFFFFE0000000
0000000000001FFFFFE0000000
0000000000003FFFFFC0000000
0000000000003FFFFFC0000000
0000000000007FFFFF80000000
0000000000007FFFFF80000000
000000000000FFFFFF80000000
000000000000FFFFFF00000000
000000000000FFFFFE00000000
000000000001FFFFFE00000000
000000000001FFFFFC00000000
000000000001FFFFFC00000000
000000000003FFFFF800000000
000000000003FFFFF800000000
000000000003FFFFF000000000
000000000007FFFFE000000000
000000000007FFFFE000000000
000000000007FFFFC000000000
000000000007FFFF8000000000
00000000000FFFFF8000000000
00000000000FFFFF0000000000
00000000000FFFFE0000000000
00000000000FFFFC0000000000
00000000000FFFF80000000000
00000000000FFFF00000000000
00000000000FFFE00000000000
000000000007FFC00000000000
000000000007FF000000000000
000000000003FE000000000000
000000000001F8000000000000
ENDCHAR
STARTCHAR 003A
ENCODING 58
SWIDTH 206 0
DWIDTH 50 0
BBX 34 104 11 0
BITMAP
000007C000
00003FF000
00007FFC00
0000FFFE00
0001FFFE00
0003FFFF00
0003FFFF80
0007FFFF80
000FFFFF80
000FFFFF80
000FFFFF80
001FFFFFC0
001FFFFFC0
001FFFFF80
003FFFFF80
003FFFFF80
003FFFFF80
003FFFFF80
003FFFFF80
003FFFFF80
003FFFFF80
003FFFFF80
003FFFFF80
003FFFFF80
001FFFFF00
001FFFFF00
000FFFFF00
0007FFFE00
0007FFFE00
0003FFFC00
0001FFF800
0000FFE000
00000F8000
0000000000
0000000000
0000000000
0000000000
0000000000
0000000000
0000000000
0000000000
0000000000
0000000000
0000000000
0000000000
0000000000
0000000000
0000000000
0000000000
0000000000
0000000000
0000000000
0000000000
0000000000
0000000000
0000000000
0000000000
0000000000
0000000000
0000000000
0000000000
0000000000
0000000000
0000000000
0000000000
0000000000
0000000000
0000000000
0000000000
0000000000
0000000000
0000000000
003FFE0000
01FFFF8000
07FFFFE000
0FFFFFE000
1FFFFFF000
3FFFFFF800
7FFFFFF800
7FFFFFF800
FFFFFFF800
FFFFFFF800
FFFFFFF800
FFFFFFF800
FFFFFFF800
FFFFFFF800
FFFFFFF000
FFFFFFF000
FFFFFFF000
FFFFFFE000
FFFFFFE000
FFFFFFE000
7FFFFFC000
7FFFFFC000
7FFFFF8000
3FFFFF0000
3FFFFF0000
3FFFFE0000
1FFFFC0000
0FFFF80000
07FFF00000
03FFE00000
01FFC00000
003E000000
ENDCHAR
STARTCHAR 003B
ENCODING 59
SWIDTH 219 0
DWIDTH 53 0
BBX 44 120 9 -16
BITMAP
000000070000
0000003FE000
000000FFF800
000001FFFC00
000003FFFE00
000007FFFF00
00000FFFFF80
00001FFFFF80
00001FFFFFC0
00003FFFFFC0
00003FFFFFE0
00003FFFFFE0
00007FFFFFE0
00007FFFFFF0
00007FFFFFF0
00007FFFFFF0
0000FFFFFFF0
0000FFFFFFF0
0000FFFFFFF0
0000FFFFFFF0
0000FFFFFFF0
0000FFFFFFF0
0000FFFFFFF0
0000FFFFFFF0
0000FFFFFFE0
0000FFFFFFE0
00007FFFFFC0
00007FFFFFC0
00007FFFFF80
00003FFFFF00
00001FFFFE00
00000FFFFC00
000003FFF800
0000003FE000
000000000000
000000000000
000000000000
000000000000
000000000000
000000000000
000000000000
000000000000
000000000000
000000000000
000000000000
000000000000
000000000000
000000000000
000000000000
000000000000
000000000000
000000000000
000000000000
000000000000
000000000000
000000000000
000000000000
000000000000
000000000000
000000000000
000000000000
000000000000
000000000000
000000000000
000000000000
000000000000
000000000000
000000000000
000000000000
000000000000
000000000000
0000003F0000
000000FF8000
000003FFC000
000007FFE000
00000FFFE000
00003FFFE000
00007FFFE000
00007FFFF000
0000FFFFE000
0001FFFFE000
0003FFFFE000
0007FFFFE000
0007FFFFE000
000FFFFFE000
001FFFFFE000
003FFFFFE000
003FFFFFC000
007FFFFFC000
00FFFFFFC000
00FFFFFF8000
01FFFFFF8000
01FFFFFF8000
03FFFFFF0000
07FFFFFF0000
07FFFFFE0000
0FFFFFFE0000
0FFFFFFC0000
1FFFFFFC0000
3FFFFFF80000
3FFFFFF00000
3FFFFFF00000
7FFFFFE00000
7FFFFFC00000
FFFFFFC00000
FFFFFF800000
FFFFFF000000
FFFFFE000000
FFFFFE000000
FFFFFC000000
FFFFF8000000
FFFFF0000000
FFFFE0000000
FFFFC0000000
FFFF80000000
FFFF00000000
7FFE00000000
7FFC00000000
1FF000000000
07C000000000
ENDCHAR
STARTCHAR 003C
ENCODING 60
SWIDTH 367 0
DWIDTH 89 0
BBX 70 78 10 43
BITMAP
000000000000001F00
00000000000000FFC0
00000000000003FFE0
0000000000001FFFF0
0000000000007FFFF8
000000000000FFFFF8
000000000003FFFFFC
00000000000FFFFFFC
00000000001FFFFFFC
00000000007FFFFFFC
0000000001FFFFFFFC
0000000003FFFFFFFC
000000000FFFFFFFFC
000000003FFFFFFFFC
000000007FFFFFFFF8
00000001FFFFFFFFE0
00000007FFFFFFFFC0
0000000FFFFFFFFF00
0000003FFFFFFFFE00
000000FFFFFFFFF800
000001FFFFFFFFF000
000007FFFFFFFFC000
00000FFFFFFFFF0000
00003FFFFFFFFE0000
0000FFFFFFFFF80000
0001FFFFFFFFF00000
0003FFFFFFFFC00000
000FFFFFFFFF800000
001FFFFFFFFF000000
003FFFFFFFFC000000
00FFFFFFFFF8000000
01FFFFFFFFE0000000
03FFFFFFFFC0000000
07FFFFFFFF00000000
0FFFFFFFFE00000000
1FFFFFFFF800000000
3FFFFFFFF000000000
7FFFFFFFC000000000
7FFFFFFF0000000000
FFFFFFFE0000000000
FFFFFFF80000000000
FFFFFFFC0000000000
FFFFFFFF0000000000
FFFFFFFFC000000000
7FFFFFFFF000000000
7FFFFFFFFC00000000
3FFFFFFFFF00000000
1FFFFFFFFFC0000000
0FFFFFFFFFE0000000
07FFFFFFFFF8000000
03FFFFFFFFFE000000
01FFFFFFFFFF800000
00FFFFFFFFFFE00000
003FFFFFFFFFF80000
001FFFFFFFFFFE0000
0007FFFFFFFFFF8000
0001FFFFFFFFFFE000
0000FFFFFFFFFFF800
00003FFFFFFFFFFE00
00000FFFFFFFFFFF80
000007FFFFFFFFFFE0
000001FFFFFFFFFFE0
0000007FFFFFFFFFF0
0000003FFFFFFFFFF0
0000000FFFFFFFFFF0
00000003FFFFFFFFF0
00000001FFFFFFFFF0
000000007FFFFFFFF0
000000001FFFFFFFF0
0000000007FFFFFFE0
0000000001FFFFFFE0
00000000007FFFFFE0
00000000003FFFFFC0
00000000000FFFFFC0
000000000003FFFF80
000000000000FFFF00
0000000000003FFE00
00000000000003F800
ENDCHAR
STARTCHAR 003D
ENCODING 61
SWIDTH 450 0
DWIDTH 109 0
BBX 83 61 20 51
BITMAP
0000003FFFFC0000000000
00003FFFFFFFFFFFF80000
0001FFFFFFFFFFFFFF8000
000FFFFFFFFFFFFFFFE000
003FFFFFFFFFFFFFFFF800
007FFFFFFFFFFFFFFFFC00
00FFFFFFFFFFFFFFFFFF00
01FFFFFFFFFFFFFFFFFF00
03FFFFFFFFFFFFFFFFFF80
07FFFFFFFFFFFFFFFFFFC0
07FFFFFFFFFFFFFFFFFFC0
0FFFFFFFFFFFFFFFFFFFC0
0FFFFFFFFFFFFFFFFFFFE0
0FFFFFFFFFFFFFFFFFFFE0
0FFFFFFFFFFFFFFFFFFFE0
0FFFFFFFFFFFFFFFFFFFE0
07FFFFFFFFFFFFFFFFFFC0
07FFFFFFFFFFFFFFFFFFC0
03FFFFFFFFFFFFFFFFFF80
01FFFFFFFFFFFFFFFFFF00
00FFFFFFFFFFFFFFFFFC00
001800000000000001C000
0000000000000000000000
0000000000000000000000
0000000000000000000000
0000000000000000000000
0000000000000000000000
0000000000000000000000
0000000000000000000000
0000000000000000000000
0000000000000000000000
0000000000000000000000
0000000000000000000000
0000000000000000000000
0000000000000000000000
0000000000000000000000
0000000000000000000000
0000000000000000000000
0000000000000000000000
00007FFF80000000000000
003FFFFFFFFFFFFFF00000
03FFFFFFFFFFFFFFFF0000
0FFFFFFFFFFFFFFFFFC000
1FFFFFFFFFFFFFFFFFE000
3FFFFFFFFFFFFFFFFFF000
7FFFFFFFFFFFFFFFFFF800
7FFFFFFFFFFFFFFFFFFC00
FFFFFFFFFFFFFFFFFFFC00
7FFFFFFFFFFFFFFFFFFC00
7FFFFFFFFFFFFFFFFFFC00
7FFFFFFFFFFFFFFFFFFC00
7FFFFFFFFFFFFFFFFFFC00
7FFFFFFFFFFFFFFFFFFC00
3FFFFFFFFFFFFFFFFFF800
3FFFFFFFFFFFFFFFFFF000
1FFFFFFFFFFFFFFFFFF000
0FFFFFFFFFFFFFFFFFE000
07FFFFFFFFFFFFFFFF8000
01FFFFFFFFFFFFFFFE0000
007FFFFFFFFFFFFFF00000
0000007FFFFFFF00000000
ENDCHAR
STARTCHAR 003E
ENCODING 62
SWIDTH 363 0
DWIDTH 88 0
BBX 70 81 22 38
BITMAP
007C00000000000000
01FFC0000000000000
03FFF8000000000000
07FFFE000000000000
07FFFF800000000000
0FFFFFE00000000000
0FFFFFF80000000000
1FFFFFFE0000000000
1FFFFFFF8000000000
1FFFFFFFE000000000
1FFFFFFFF000000000
1FFFFFFFFC00000000
1FFFFFFFFF00000000
1FFFFFFFFFC0000000
1FFFFFFFFFE0000000
1FFFFFFFFFF8000000
0FFFFFFFFFFE000000
07FFFFFFFFFF000000
03FFFFFFFFFFC00000
00FFFFFFFFFFF00000
003FFFFFFFFFF80000
000FFFFFFFFFFE0000
0007FFFFFFFFFF0000
0001FFFFFFFFFF8000
00007FFFFFFFFFE000
00001FFFFFFFFFF000
00000FFFFFFFFFF800
000003FFFFFFFFFE00
000000FFFFFFFFFF00
0000003FFFFFFFFF80
0000001FFFFFFFFFC0
00000007FFFFFFFFE0
00000001FFFFFFFFF0
00000000FFFFFFFFF8
000000003FFFFFFFF8
000000000FFFFFFFFC
0000000003FFFFFFFC
0000000001FFFFFFFC
00000000007FFFFFFC
0000000000FFFFFFFC
0000000001FFFFFFFC
0000000003FFFFFFF8
000000000FFFFFFFF8
000000001FFFFFFFF0
000000007FFFFFFFE0
00000000FFFFFFFFC0
00000001FFFFFFFF80
00000007FFFFFFFF00
0000000FFFFFFFFE00
0000003FFFFFFFFC00
0000007FFFFFFFF800
000001FFFFFFFFF000
000003FFFFFFFFC000
000007FFFFFFFF8000
00001FFFFFFFFF0000
00003FFFFFFFFE0000
0000FFFFFFFFF80000
0001FFFFFFFFF00000
0003FFFFFFFFC00000
000FFFFFFFFF800000
001FFFFFFFFE000000
007FFFFFFFFC000000
00FFFFFFFFF0000000
03FFFFFFFFE0000000
07FFFFFFFF80000000
1FFFFFFFFF00000000
3FFFFFFFFC00000000
7FFFFFFFF800000000
FFFFFFFFE000000000
FFFFFFFF8000000000
FFFFFFFF0000000000
FFFFFFFC0000000000
FFFFFFF00000000000
FFFFFFE00000000000
FFFFFF800000000000
7FFFFE000000000000
7FFFF8000000000000
3FFFE0000000000000
1FFF80000000000000
0FFE00000000000000
03E000000000000000
ENDCHAR
STARTCHAR 003F
ENCODING 63
SWIDTH 471 0
DWIDTH 114 0
BBX 98 156 20 3
BITMAP
0000000000007FFFC000000000
00000000001FFFFFFF80000000
0000000001FFFFFFFFF8000000
000000000FFFFFFFFFFF000000
000000007FFFFFFFFFFFC00000
00000003FFFFFFFFFFFFF00000
0000000FFFFFFFFFFFFFF80000
0000003FFFFFFFFFFFFFFE0000
000000FFFFFFFFFFFFFFFF0000
000003FFFFFFFFFFFFFFFF8000
00000FFFFFFFFFFFFFFFFFC000
00001FFFFFFFFFFFFFFFFFE000
00007FFFFFFFFFFFFFFFFFF000
0000FFFFFFFFFFFFFFFFFFF800
0003FFFFFFFFFFFFFFFFFFF800
0007FFFFFFFFFFFFFFFFFFFC00
000FFFFFFFFFFFFFFFFFFFFC00
001FFFFFFFFFFFFFFFFFFFFE00
003FFFFFFFFFFFFFFFFFFFFE00
007FFFFFFFFFFFFFFFFFFFFF00
00FFFFFFFFFC0007FFFFFFFF00
01FFFFFFFF8000003FFFFFFF00
03FFFFFFF800000007FFFFFF80
07FFFFFFE000000003FFFFFF80
07FFFFFF0000000000FFFFFF80
0FFFFFFC00000000007FFFFF80
0FFFFFF800000000003FFFFF80
1FFFFFF000000000003FFFFFC0
3FFFFFE000000000001FFFFFC0
3FFFFFC000000000001FFFFFC0
7FFFFF8000000000001FFFFFC0
7FFFFF0000000000001FFFFFC0
7FFFFE0000000000001FFFFFC0
FFFFFE0000000000001FFFFFC0
FFFFFC0000000000001FFFFFC0
FFFFF80000000000003FFFFFC0
FFFFF00000000000003FFFFF80
FFFFF00000000000007FFFFF80
FFFFE0000000000000FFFFFF80
FFFFE0000000000000FFFFFF00
FFFFC0000000000001FFFFFF00
FFFF80000000000003FFFFFF00
FFFF0000000000000FFFFFFE00
7FFF0000000000001FFFFFFE00
3FFE0000000000007FFFFFFC00
1FF8000000000000FFFFFFFC00
0FE0000000000003FFFFFFF800
000000000000000FFFFFFFF000
000000000000001FFFFFFFF000
000000000000007FFFFFFFE000
00000000000001FFFFFFFFC000
0000000000000FFFFFFFFF8000
0000000000003FFFFFFFFF0000
000000000000FFFFFFFFFF0000
000000000003FFFFFFFFFE0000
00000000000FFFFFFFFFFC0000
00000000001FFFFFFFFFF80000
00000000007FFFFFFFFFF00000
0000000001FFFFFFFFFFC00000
0000000007FFFFFFFFFF800000
000000001FFFFFFFFFFF000000
000000007FFFFFFFFFFE000000
00000001FFFFFFFFFFF8000000
00000007FFFFFFFFFFF0000000
0000001FFFFFFFFFFFC0000000
0000003FFFFFFFFFFF80000000
000000FFFFFFFFFFFE00000000
000001FFFFFFFFFFFC00000000
000007FFFFFFFFFFF000000000
00000FFFFFFFFFFFC000000000
00003FFFFFFFFFFF8000000000
00007FFFFFFFFFFE0000000000
0000FFFFFFFFFFF80000000000
0001FFFFFFFFFFE00000000000
0003FFFFFFFFFF800000000000
0007FFFFFFFFFE000000000000
0007FFFFFFFFF8000000000000
000FFFFFFFFFE0000000000000
001FFFFFFFFF80000000000000
001FFFFFFFFE00000000000000
001FFFFFFFF800000000000000
003FFFFFFFF000000000000000
003FFFFFFFC000000000000000
003FFFFFFF0000000000000000
003FFFFFFF0000000000000000
003FFFFFFFF000000000000000
003FFFFFFFFFF8000000000000
003FFFFFFFFFFFFFF800000000
003FFFFFFFFFFFFFFFE0000000
003FFFFFFFFFFFFFFFE0000000
003FFFFFFFFFFFFFFFE0000000
001FFFFFFFFFFFFFFFE0000000
001FFFFFFFFFFFFFFFE0000000
000FFFFFFFFFFFFFFFE0000000
0007FFFFFFFFFFFFFFE0000000
0003FFFFFFFFFFFFFFE0000000
0001FFFFFFFFFFFFFFE0000000
0000FFFFFFFFFFFFFFC0000000
00007FFFFFFFFFFFFFC0000000
00001FFFFFFFFFFFFFC0000000
000007FFFFFFFFFFFF80000000
000001FFFFFFFFFFFF00000000
0000003FFFFFFFFFFE00000000
00000003FFFFFFFFFC00000000
000000003FFFFFFFF800000000
00000000007FFFFC0000000000
00000000000000000000000000
00000000000000000000000000
00000000000000000000000000
00000000000000000000000000
00000000000000000000000000
00000000000000000000000000
00000000000000000000000000
00000000000000000000000000
00000000000000000000000000
00000000000000000000000000
00000000000000000000000000
00000000000000000000000000
00000000000000000000000000
00000000000000000000000000
00000000000000000000000000
000000FFE00000000000000000
000007FFFE0000000000000000
00001FFFFF8000000000000000
00007FFFFFE000000000000000
0000FFFFFFF000000000000000
0001FFFFFFF800000000000000
0003FFFFFFFC00000000000000
0007FFFFFFFE00000000000000
000FFFFFFFFE00000000000000
000FFFFFFFFF00000000000000
001FFFFFFFFF00000000000000
001FFFFFFFFF00000000000000
003FFFFFFFFF00000000000000
003FFFFFFFFF00000000000000
003FFFFFFFFF00000000000000
003FFFFFFFFF00000000000000
003FFFFFFFFF00000000000000
003FFFFFFFFF00000000000000
003FFFFFFFFF00000000000000
003FFFFFFFFF00000000000000
003FFFFFFFFF00000000000000
003FFFFFFFFE00000000000000
001FFFFFFFFE00000000000000
001FFFFFFFFE00000000000000
000FFFFFFFFC00000000000000
000FFFFFFFFC00000000000000
0007FFFFFFF800000000000000
0003FFFFFFF800000000000000
0001FFFFFFF000000000000000
0000FFFFFFE000000000000000
00007FFFFFC000000000000000
00001FFFFF8000000000000000
000007FFFF0000000000000000
000001FFFC0000000000000000
0000001FE00000000000000000
ENDCHAR
STARTCHAR 0040
ENCODING 64
SWIDTH 702 0
DWIDTH 170 0
BBX 152 156 18 4
BITMAP
0000000000000000001FFFFFFC000000000000
000000000000000003FFFFFFFFF00000000000
00000000000000003FFFFFFFFFFE0000000000
0000000000000001FFFFFFFFFFFFC000000000
000000000000000FFFFFFFFFFFFFF800000000
000000000000007FFFFFFFFFFFFFFE00000000
00000000000001FFFFFFFFFFFFFFFF80000000
0000000000000FFFFFFFFFFFFFFFFFE0000000
0000000000003FFFFFFFFFFFFFFFFFF8000000
000000000000FFFFFFFFFFFFFFFFFFFC000000
000000000003FFFFFFFFFFFFFFFFFFFF000000
000000000007FFFFFFFFFFFFFFFFFFFF800000
00000000001FFFFFFFFFFFFFFFFFFFFFC00000
00000000007FFFFFFFFFFFFFFFFFFFFFF00000
0000000000FFFFFFFFFFFFFFFFFFFFFFF80000
0000000003FFFFFFFFFFFFFFFFFFFFFFFC0000
0000000007FFFFFFFFFFFFFFFFFFFFFFFE0000
000000000FFFFFFFFFFFFFFFFFFFFFFFFF0000
000000003FFFFFFFFFFFFFFFFFFFFFFFFF8000
000000007FFFFFFFFFC000000FFFFFFFFF8000
00000000FFFFFFFFF800000000FFFFFFFFC000
00000003FFFFFFFFC0000000001FFFFFFFE000
00000007FFFFFFFE000000000007FFFFFFF000
0000000FFFFFFFF0000000000001FFFFFFF800
0000001FFFFFFFC00000000000007FFFFFF800
0000003FFFFFFF000000000000003FFFFFFC00
0000007FFFFFFC000000000000000FFFFFFC00
000000FFFFFFF00000000000000007FFFFFE00
000001FFFFFFE00000000000000003FFFFFF00
000003FFFFFF800000000000000001FFFFFF00
000007FFFFFF0000007FFC00000000FFFFFF80
00000FFFFFFC000001FFFFC00000007FFFFF80
00000FFFFFF8000007FFFFF00000003FFFFFC0
00001FFFFFF000000FFFFFFC0000001FFFFFC0
00003FFFFFC000001FFFFFFF0000000FFFFFE0
00007FFFFF8000003FFFFFFFC000000FFFFFE0
0000FFFFFF0000003FFFFFFFE0000007FFFFE0
0000FFFFFE0000007FFFFFFFF0000003FFFFF0
0001FFFFFC0000007FFFFFFFF8000003FFFFF0
0003FFFFF8000000FFFFFFFFFC000001FFFFF0
0003FFFFF0000000FFFFFFFFFE000001FFFFF8
0007FFFFE0000000FFFFFFFFFF000000FFFFF8
000FFFFFC0000000FFFFFFFFFF800000FFFFF8
000FFFFFC0000000FFFFFFFFFF8000007FFFFC
001FFFFF80000000FFFFFFFFFFC000007FFFFC
003FFFFF000000007FFFFFFFFFC000007FFFFC
003FFFFE000000007FFFFFFFFFE000003FFFFC
007FFFFE000000003FFFFFFFFFE000003FFFFC
007FFFFC000000000FFFFFFFFFF000003FFFFE
00FFFFF80000000000FFFFFFFFF000001FFFFE
00FFFFF8000000000001FFFFFFF800001FFFFE
01FFFFF00000000000007FFFFFF800001FFFFE
01FFFFE00000000000001FFFFFF800001FFFFE
03FFFFE00000000000000FFFFFFC00000FFFFE
03FFFFC000000000000007FFFFFC00000FFFFE
03FFFFC000000000000003FFFFFC00000FFFFE
07FFFF8000000000000001FFFFFC00000FFFFF
07FFFF8000000000000001FFFFFE00000FFFFF
0FFFFF0000000000000000FFFFFE00000FFFFF
0FFFFF0000000000000000FFFFFE00000FFFFF
0FFFFF00000000000000007FFFFE00000FFFFF
1FFFFE00000000000000007FFFFE000007FFFF
1FFFFE00000000000000003FFFFE000007FFFF
1FFFFE00000000000000003FFFFF00000FFFFF
3FFFFC00000000000000003FFFFF00000FFFFF
3FFFFC00000000000000003FFFFF00000FFFFF
3FFFFC00000000000000001FFFFF00000FFFFF
3FFFF800000000000000001FFFFF00000FFFFF
7FFFF800000000000000001FFFFF00000FFFFF
7FFFF800000000000000601FFFFF00000FFFFF
7FFFF8000000000001FFFFFFFFFF00000FFFFE
7FFFF800000000003FFFFFFFFFFF00000FFFFE
7FFFF00000000003FFFFFFFFFFFF00000FFFFE
7FFFF0000000001FFFFFFFFFFFFF00000FFFFE
FFFFF0000000007FFFFFFFFFFFFE00001FFFFE
FFFFF000000001FFFFFFFFFFFFFE00001FFFFE
FFFFF000000007FFFFFFFFFFFFFE00001FFFFE
FFFFF00000001FFFFFFFFFFFFFFE00001FFFFE
FFFFF00000007FFFFFFFFFFFFFFE00001FFFFE
FFFFF0000000FFFFFFFFFFFFFFFE00001FFFFC
FFFFF0000003FFFFFFFFFFFFFFFE00001FFFFC
FFFFF0000007FFFFFFFFFFFFFFFE00003FFFFC
FFFFF000000FFFFFFFFFFFFFFFFE00003FFFFC
FFFFF000001FFFFFFFFFFFFFFFFC00003FFFF8
FFFFF000003FFFFFFFFFFFFFFFFC00003FFFF8
FFFFF000007FFFFFFFFFFFFFFFFC00003FFFF8
FFFFF00000FFFFFFFFFFFFFFFFFC00007FFFF8
FFFFF00001FFFFFFFFFFFFFFFFFC00007FFFF0
FFFFF00001FFFFFFFFFC3FFFFFF800007FFFF0
FFFFF00003FFFFFFC00003FFFFF80000FFFFF0
FFFFF00003FFFFFC000001FFFFF80000FFFFE0
FFFFF00007FFFFF0000001FFFFF00000FFFFE0
FFFFF00007FFFFC0000001FFFFF00001FFFFE0
FFFFF0000FFFFF80000003FFFFF00001FFFFC0
FFFFF0000FFFFF00000003FFFFF00003FFFFC0
FFFFF0000FFFFF00000007FFFFE00003FFFF80
FFFFF0000FFFFF00000007FFFFE00007FFFF80
FFFFF0001FFFFF8000000FFFFFC00007FFFF00
FFFFF0001FFFFFC000000FFFFFC0000FFFFF00
FFFFF8001FFFFFE000001FFFFFC0001FFFFE00
FFFFF8001FFFFFF800001FFFFF80003FFFFE00
7FFFF8001FFFFFFE00003FFFFF80007FFFFC00
7FFFF8001FFFFFFFC0007FFFFF0000FFFFFC00
7FFFF8001FFFFFFFF800FFFFFF0001FFFFF800
7FFFFC001FFFFFFFFF01FFFFFE0003FFFFF000
7FFFFC000FFFFFFFFFFFFFFFFE000FFFFFF000
3FFFFC000FFFFFFFFFFFFFFFFC003FFFFFE000
3FFFFC000FFFFFFFFFFFFFFFF800FFFFFFC000
3FFFFE0007FFFFFFFFFFFFFFF807FFFFFF8000
3FFFFE0007FFFFFFFFFFFFFFF07FFFFFFF8000
1FFFFF0003FFFFFFFFFFFFFFFFFFFFFFFF0000
1FFFFF0001FFFFFFFFFFFFFFFFFFFFFFFE0000
1FFFFF0001FFFFFFFFFFFFFFFFFFFFFFFC0000
1FFFFF8000FFFFFFFFFFFFFFFFFFFFFFF80000
0FFFFF80007FFFFFFFFFFFFFFFFFFFFFF00000
0FFFFFC0003FFFFFFFFFFFFFFFFFFFFFE00000
0FFFFFE0000FFFFFFFFFFFFFFFFFFFFFC00000
07FFFFE00007FFFFFFFFFFFFFFFFFFFF800000
07FFFFF00001FFFFFFFFFFFFFFFFFFFE000000
03FFFFF80000FFFFFFFFFFFFFFFFFFFC000000
03FFFFF800003FFFFFFFFFFFFFFFFFF0000000
01FFFFFC00000FFFFFFFFFFFFFFFFFE0000000
01FFFFFE000001FFFFFFFFFFFFFFFF80000000
00FFFFFF0000007FFFFFFFFFFFFFFE00000000
00FFFFFF8000000FFFFFFFFFFFFFF800000000
007FFFFFC0000000FFFFFFFFFFFFE000000000
007FFFFFE00000001FFFFFFFFFFF0000000000
003FFFFFF000000000FFFFFFFFF00000000000
001FFFFFFC0000000003FFFFFF000000000000
001FFFFFFE0000000000000000000000000000
000FFFFFFF8000000000000000000000000000
0007FFFFFFE000000000000000000000000000
0007FFFFFFF000000000000000000000000000
0003FFFFFFFE00000000000000000000000000
0001FFFFFFFFC0000000000000000000000000
0000FFFFFFFFF8000000000000000000000000
0000FFFFFFFFFFC00000000000000000000000
00007FFFFFFFFFFFFE00000000000000000000
00003FFFFFFFFFFFFF80000000000000000000
00001FFFFFFFFFFFFFC0000000000000000000
00000FFFFFFFFFFFFFC0000000000000000000
000007FFFFFFFFFFFFE0000000000000000000
000001FFFFFFFFFFFFE0000000000000000000
000000FFFFFFFFFFFFE0000000000000000000
0000007FFFFFFFFFFFE0000000000000000000
0000001FFFFFFFFFFFE0000000000000000000
0000000FFFFFFFFFFFC0000000000000000000
00000003FFFFFFFFFFC0000000000000000000
00000001FFFFFFFFFF80000000000000000000
000000007FFFFFFFFF80000000000000000000
000000001FFFFFFFFF00000000000000000000
0000000003FFFFFFFE00000000000000000000
0000000000FFFFFFFC00000000000000000000
00000000000FFFFFF800000000000000000000
000000000000FFFFE000000000000000000000
00000000000007FF8000000000000000000000
ENDCHAR
STARTCHAR 0041
ENCODING 65
SWIDTH 553 0
DWIDTH 134 0
BBX 112 156 13 5
BITMAP
0000000000000007E00000000000
000000000000003FFC0000000000
00000000000000FFFF0000000000
00000000000001FFFFC000000000
00000000000003FFFFF000000000
0000000000000FFFFFF800000000
0000000000001FFFFFFE00000000
0000000000003FFFFFFF00000000
0000000000003FFFFFFF80000000
0000000000007FFFFFFFC0000000
000000000000FFFFFFFFC0000000
000000000001FFFFFFFFE0000000
000000000001FFFFFFFFF0000000
000000000003FFFFFFFFF8000000
000000000007FFFFFFFFF8000000
000000000007FFFFFFFFFC000000
00000000000FFFFFFFFFFE000000
00000000000FFFFFFFFFFE000000
00000000001FFFFFFFFFFF000000
00000000001FFFFFFFFFFF000000
00000000003FFFFFFFFFFF800000
00000000003FFFFFFFFFFF800000
00000000007FFFFFFFFFFF800000
00000000007FFFFFFFFFFFC00000
0000000000FFFFFFFFFFFFC00000
0000000000FFFFFFFFFFFFC00000
0000000001FFFFFFFFFFFFE00000
0000000001FFFFFFFFFFFFE00000
0000000003FFFFFFFFFFFFE00000
0000000003FFFFFFFFFFFFF00000
0000000007FFFFFFFFFFFFF00000
0000000007FFFFFFFFFFFFF00000
000000000FFFFFFFFFFFFFF00000
000000000FFFFFFF3FFFFFF00000
000000000FFFFFFE3FFFFFF80000
000000001FFFFFFC3FFFFFF80000
000000001FFFFFF83FFFFFF80000
000000001FFFFFF01FFFFFF80000
000000003FFFFFF01FFFFFF80000
000000003FFFFFE01FFFFFFC0000
000000003FFFFFC01FFFFFFC0000
000000007FFFFFC00FFFFFFC0000
000000007FFFFF800FFFFFFC0000
000000007FFFFF000FFFFFFC0000
00000000FFFFFF0007FFFFFE0000
00000000FFFFFE0007FFFFFE0000
00000001FFFFFE0007FFFFFE0000
00000001FFFFFC0007FFFFFE0000
00000001FFFFFC0003FFFFFF0000
00000003FFFFF80003FFFFFF0000
00000003FFFFF80003FFFFFF0000
00000003FFFFF00001FFFFFF0000
00000007FFFFF00001FFFFFF0000
00000007FFFFE00001FFFFFF8000
00000007FFFFE00001FFFFFF8000
0000000FFFFFC00000FFFFFF8000
0000000FFFFFC00000FFFFFF8000
0000000FFFFFC00000FFFFFF8000
0000001FFFFF800000FFFFFFC000
0000001FFFFF800000FFFFFFC000
0000001FFFFF0000007FFFFFC000
0000003FFFFF0000007FFFFFC000
0000003FFFFF0000007FFFFFC000
0000003FFFFE0000007FFFFFE000
0000007FFFFE0000007FFFFFE000
0000007FFFFC0000003FFFFFE000
0000007FFFFC0000003FFFFFE000
000000FFFFFC0000003FFFFFE000
000000FFFFF80000003FFFFFF000
000000FFFFF80000003FFFFFF000
000001FFFFF80000001FFFFFF000
000001FFFFF00000001FFFFFF000
000001FFFFF00000001FFFFFF000
000003FFFFF00000001FFFFFF800
000003FFFFF00000001FFFFFF800
000003FFFFE00000001FFFFFF800
000007FFFFE00000001FFFFFF800
000007FFFFE00000001FFFFFF800
000007FFFFE00000001FFFFFFC00
00000FFFFFC00000000FFFFFFC00
00000FFFFFC00000000FFFFFFC00
00001FFFFFC00000000FFFFFFC00
00001FFFFFC00000000FFFFFFC00
00003FFFFFC00000000FFFFFFE00
00003FFFFFC00000000FFFFFFE00
00007FFFFFC00000000FFFFFFE00
00007FFFFF800000001FFFFFFE00
0000FFFFFF800000001FFFFFFE00
0000FFFFFF800000003FFFFFFE00
0001FFFFFF800000003FFFFFFF00
0001FFFFFF800000007FFFFFFF00
0003FFFFFF80000000FFFFFFFF00
0003FFFFFF80000003FFFFFFFF00
0007FFFFFF8000000FFFFFFFFF00
0007FFFFFFFFC0007FFFFFFFFF80
0007FFFFFFFFFFFFFFFFFFFFFF80
000FFFFFFFFFFFFFFFFFFFFFFF80
000FFFFFFFFFFFFFFFFFFFFFFF80
001FFFFFFFFFFFFFFFFFFFFFFF80
001FFFFFFFFFFFFFFFFFFFFFFF80
003FFFFFFFFFFFFFFFFFFFFFFFC0
003FFFFFFFFFFFFFFFFFFFFFFFC0
007FFFFFFFFFFFFFFFFFFFFFFFC0
007FFFFFFFFFFFFFFFFFFFFFFFC0
007FFFFFFFFFFFFFFFFFFFFFFFC0
00FFFFFFFFFFFFFFFFFFFFFFFFC0
00FFFFFFFFFFFFFFFFFFFFFFFFE0
01FFFFFFFFFFFFFFFFFFFFFFFFE0
01FFFFFFFFFFFFFFFFFFFFFFFFE0
03FFFFFFFFFFFFFFFFFFFFFFFFE0
03FFFFFFFFFFFFFFFFFFFFFFFFE0
07FFFFFFFFFFFFFFFFFFFFFFFFE0
07FFFFFFFFFFFFFFFFFFFFFFFFF0
07FFFFFFFFFFFFFFFFFFFFFFFFF0
0FFFFFFFFFFFFFFFFFFFFFFFFFF0
0FFFFFFFFFFFFFFFFFFFFFFFFFF0
1FFFFFFFFFFFFFFFFFFFFFFFFFF0
1FFFFFFFFFFFFFFFFFFFFFFFFFF0
1FFFFFFFFFFFFFFFFFFFFFFFFFF0
3FFFFFFFFFFFFFFFFFC7FFFFFFF8
3FFFFFFFFFFFFFF000003FFFFFF8
3FFFFFFFFFFFF800000007FFFFF8
7FFFFFFFFFFF0000000003FFFFF8
7FFFFFFFFFF00000000003FFFFF8
7FFFFFFFFF000000000003FFFFF8
7FFFFFFFFC000000000003FFFFFC
FFFFFFFFE0000000000003FFFFFC
FFFFFFFF80000000000003FFFFFC
FFFFFFFE00000000000001FFFFFC
FFFFFFFC00000000000001FFFFFC
FFFFFFF800000000000001FFFFFE
FFFFFFF000000000000001FFFFFE
FFFFFFE000000000000001FFFFFE
FFFFFFE000000000000001FFFFFE
FFFFFFC000000000000001FFFFFE
FFFFFFC000000000000001FFFFFE
FFFFFFC000000000000001FFFFFE
FFFFFF8000000000000000FFFFFE
FFFFFF8000000000000000FFFFFE
FFFFFF8000000000000000FFFFFF
FFFFFF8000000000000000FFFFFF
7FFFFF0000000000000000FFFFFF
7FFFFF0000000000000000FFFFFF
7FFFFF0000000000000000FFFFFE
3FFFFF00000000000000007FFFFE
3FFFFE00000000000000007FFFFE
1FFFFE00000000000000007FFFFE
0FFFFE00000000000000007FFFFE
0FFFFE00000000000000007FFFFE
07FFFE00000000000000003FFFFC
03FFFC00000000000000003FFFFC
03FFFC00000000000000001FFFF8
01FFF800000000000000001FFFF0
007FF000000000000000000FFFE0
001FE0000000000000000003FF80
0003000000000000000000000000
ENDCHAR
STARTCHAR 0042
ENCODING 66
SWIDTH 561 0
DWIDTH 136 0
BBX 114 156 19 4
BITMAP
00000000000007FFE0000000000000
00000000001FFFFFFF800000000000
0000000003FFFFFFFFF00000000000
000000003FFFFFFFFFFE0000000000
00000001FFFFFFFFFFFFC000000000
00000007FFFFFFFFFFFFF000000000
0000003FFFFFFFFFFFFFFC00000000
0000007FFFFFFFFFFFFFFF00000000
000001FFFFFFFFFFFFFFFFC0000000
000007FFFFFFFFFFFFFFFFE0000000
00000FFFFFFFFFFFFFFFFFF0000000
00001FFFFFFFFFFFFFFFFFF8000000
00003FFFFFFFFFFFFFFFFFFC000000
00007FFFFFFFFFFFFFFFFFFE000000
0000FFFFFFFFFFFFFFFFFFFF000000
0001FFFFFFFFFFFFFFFFFFFF800000
0003FFFFFFFFFFFFFFFFFFFF800000
0003FFFFFFFFFFFFFFFFFFFFC00000
0007FFFFFFFFFFFFFFFFFFFFC00000
0007FFFFFFFFFFFFFFFFFFFFE00000
000FFFFFFFFFFFFFFFFFFFFFE00000
000FFFFFFFFFFFFFFFFFFFFFE00000
000FFFFFFFFFFFFFFFFFFFFFE00000
001FFFFFFFFFFFFFFFFFFFFFF00000
001FFFFFFFFFC003FFFFFFFFF00000
001FFFFFFFFC00007FFFFFFFF00000
001FFFFFFFF000001FFFFFFFF00000
001FFFFFFFE000000FFFFFFFF00000
003FFFFFFF80000007FFFFFFF00000
003FFFFFFF00000003FFFFFFE00000
003FFFFFFE00000003FFFFFFE00000
003FFFFFFC00000001FFFFFFE00000
003FFFFFF800000001FFFFFFE00000
003FFFFFF800000001FFFFFFE00000
003FFFFFF000000001FFFFFFE00000
003FFFFFF000000001FFFFFFC00000
003FFFFFE000000001FFFFFFC00000
003FFFFFE000000001FFFFFFC00000
003FFFFFE000000001FFFFFFC00000
003FFFFFE000000003FFFFFF800000
003FFFFFC000000003FFFFFF800000
003FFFFFC000000007FFFFFF000000
003FFFFFC000000007FFFFFF000000
003FFFFFC00000000FFFFFFE000000
003FFFFFC00000001FFFFFFE000000
003FFFFFC00000003FFFFFFC000000
007FFFFFC00000007FFFFFF8000000
007FFFFF80000000FFFFFFF8000000
007FFFFF80000001FFFFFFF0000000
007FFFFF80000007FFFFFFE0000000
007FFFFF8000000FFFFFFFE0000000
007FFFFF8000003FFFFFFFC0000000
007FFFFF8000007FFFFFFF80000000
007FFFFF800001FFFFFFFF00000000
007FFFFF800007FFFFFFFE00000000
007FFFFF80000FFFFFFFFFC0000000
007FFFFF80003FFFFFFFFFF0000000
007FFFFF8000FFFFFFFFFFFC000000
00FFFFFF8003FFFFFFFFFFFF000000
00FFFFFF801FFFFFFFFFFFFF800000
00FFFFFF80FFFFFFFFFFFFFFE00000
00FFFFFFBFFFFFFFFFFFFFFFF00000
00FFFFFFFFFFFFFFFFFFFFFFF80000
00FFFFFFFFFFFFFFFFFFFFFFFC0000
01FFFFFFFFFFFFFFFFFFFFFFFE0000
01FFFFFFFFFFFFFFFFFFFFFFFF0000
01FFFFFFFFFFFFFFFFFFFFFFFF0000
01FFFFFFFFFFFFFFFFFFFFFFFF8000
01FFFFFFFFFFFFFFFFFFFFFFFFC000
01FFFFFFFFFFFFFFFFFFFFFFFFC000
03FFFFFFFFFFFFFFFFFFFFFFFFE000
03FFFFFFFFFFFFFFFFFFFFFFFFF000
03FFFFFFFFFFFFFFFFFFFFFFFFF000
03FFFFFFFFFFFFFFFFFFFFFFFFF800
03FFFFFFFFFFFFFFFFEFFFFFFFF800
07FFFFFFFFFFFFFE0003FFFFFFFC00
07FFFFFFFFFFFF800001FFFFFFFC00
07FFFFFFFFFFFC000000FFFFFFFC00
07FFFFFFFFFFE0000000FFFFFFFE00
0FFFFFFFFFFF000000007FFFFFFE00
0FFFFFFFFFFC000000003FFFFFFF00
0FFFFFFFFFF0000000003FFFFFFF00
0FFFFFFFFFE0000000001FFFFFFF00
0FFFFFFFFF80000000001FFFFFFF80
1FFFFFFFFF00000000000FFFFFFF80
1FFFFFFFFC00000000000FFFFFFF80
1FFFFFFFF800000000000FFFFFFF80
1FFFFFFFF000000000000FFFFFFFC0
1FFFFFFFE0000000000007FFFFFFC0
3FFFFFFFC0000000000007FFFFFFC0
3FFFFFFF80000000000007FFFFFFC0
3FFFFFFF80000000000007FFFFFFC0
3FFFFFFF00000000000007FFFFFFC0
3FFFFFFE0000000000000FFFFFFFC0
3FFFFFFC0000000000000FFFFFFFC0
7FFFFFFC0000000000000FFFFFFFC0
7FFFFFF80000000000000FFFFFFFC0
7FFFFFF80000000000001FFFFFFFC0
7FFFFFF00000000000001FFFFFFFC0
7FFFFFF00000000000001FFFFFFFC0
7FFFFFE00000000000003FFFFFFFC0
7FFFFFE00000000000003FFFFFFFC0
FFFFFFE00000000000007FFFFFFF80
FFFFFFC00000000000007FFFFFFF80
FFFFFFC0000000000000FFFFFFFF80
FFFFFFC0000000000001FFFFFFFF80
FFFFFFC0000000000001FFFFFFFF00
FFFFFF80000000000003FFFFFFFF00
FFFFFF80000000000007FFFFFFFE00
FFFFFF8000000000000FFFFFFFFE00
FFFFFF8000000000001FFFFFFFFC00
FFFFFF8000000000003FFFFFFFFC00
FFFFFF8000000000007FFFFFFFF800
FFFFFF800000000000FFFFFFFFF800
FFFFFF800000000001FFFFFFFFF000
FFFFFF000000000007FFFFFFFFE000
FFFFFF00000000000FFFFFFFFFE000
FFFFFF80000000001FFFFFFFFFC000
FFFFFF80000000007FFFFFFFFF8000
FFFFFF8000000000FFFFFFFFFF0000
FFFFFFC000000003FFFFFFFFFF0000
FFFFFFC00000000FFFFFFFFFFE0000
FFFFFFE00000003FFFFFFFFFFC0000
FFFFFFE0000000FFFFFFFFFFF80000
FFFFFFF0000007FFFFFFFFFFF00000
FFFFFFFC00001FFFFFFFFFFFC00000
FFFFFFFE0001FFFFFFFFFFFF800000
FFFFFFFFE1FFFFFFFFFFFFFF000000
FFFFFFFFFFFFFFFFFFFFFFFE000000
FFFFFFFFFFFFFFFFFFFFFFFC000000
FFFFFFFFFFFFFFFFFFFFFFF0000000
FFFFFFFFFFFFFFFFFFFFFFE0000000
7FFFFFFFFFFFFFFFFFFFFF80000000
7FFFFFFFFFFFFFFFFFFFFF00000000
7FFFFFFFFFFFFFFFFFFFFC00000000
7FFFFFFFFFFFFFFFFFFFF000000000
3FFFFFFFFFFFFFFFFFFFE000000000
3FFFFFFFFFFFFFFFFFFF8000000000
3FFFFFFFFFFFFFFFFFFE0000000000
3FFFFFFFFFFFFFFFFFF80000000000
1FFFFFFFFFFFFFFFFFE00000000000
1FFFFFFFFFFFFFFFFF800000000000
0FFFFFFFFFFFFFFFFE000000000000
0FFFFFFFFFFFFFFFF8000000000000
0FFFFFFFFFFFFFFFC0000000000000
07FFFFFFFFFFFFFF00000000000000
03FFFFFFFFFFFFFC00000000000000
03FFFFFFFFFFFFE000000000000000
01FFFFFFFFFFFF0000000000000000
00FFFFFFFFFFFC0000000000000000
007FFFFFFFFFE00000000000000000
003FFFFFFFFF000000000000000000
001FFFFFFFF0000000000000000000
000FFFFFFF80000000000000000000
0003FFFFF800000000000000000000
0000FFFF0000000000000000000000
ENDCHAR
STARTCHAR 0043
ENCODING 67
SWIDTH 528 0
DWIDTH 128 0
BBX 110 156 16 2
BITMAP
000000000000007FFC0000000000
00000000000007FFFFC000000000
0000000000003FFFFFF800000000
000000000000FFFFFFFF00000000
000000000003FFFFFFFFC0000000
00000000000FFFFFFFFFE0000000
00000000003FFFFFFFFFF8000000
00000000007FFFFFFFFFFC000000
0000000001FFFFFFFFFFFF000000
0000000003FFFFFFFFFFFF800000
0000000007FFFFFFFFFFFFC00000
000000001FFFFFFFFFFFFFF00000
000000003FFFFFFFFFFFFFF80000
000000007FFFFFFFFFFFFFFC0000
00000000FFFFFFFFFFFFFFFE0000
00000001FFFFFFFFFFFFFFFF0000
00000003FFFFFFFFFFFFFFFF0000
00000007FFFFFFFFFFFFFFFF8000
0000000FFFFFFFFFFFFFFFFFC000
0000001FFFFFFFFFFFFFFFFFE000
0000001FFFFFFFFFFFFFFFFFF000
0000003FFFFFFFFFFFFFFFFFF800
0000007FFFFFFFFFFFFFFFFFF800
000000FFFFFFFFFFFFFFFFFFFC00
000001FFFFFFFFFFFFFFFFFFFE00
000001FFFFFFFFFF007FFFFFFE00
000003FFFFFFFFF8001FFFFFFF00
000007FFFFFFFFE00007FFFFFF00
00000FFFFFFFFF800003FFFFFF80
00000FFFFFFFFE000001FFFFFF80
00001FFFFFFFFC000001FFFFFFC0
00003FFFFFFFF8000000FFFFFFC0
00003FFFFFFFE0000000FFFFFFE0
00007FFFFFFFC00000007FFFFFE0
00007FFFFFFF800000007FFFFFF0
0000FFFFFFFF000000003FFFFFF0
0001FFFFFFFE000000003FFFFFF0
0001FFFFFFFE000000003FFFFFF8
0003FFFFFFFC000000001FFFFFF8
0003FFFFFFF8000000001FFFFFF8
0007FFFFFFF0000000001FFFFFF8
0007FFFFFFF0000000000FFFFFFC
000FFFFFFFE0000000000FFFFFFC
001FFFFFFFC0000000000FFFFFFC
001FFFFFFFC00000000007FFFFFC
003FFFFFFF800000000007FFFFFC
003FFFFFFF800000000007FFFFFC
003FFFFFFF000000000003FFFFFC
007FFFFFFE000000000003FFFFFC
007FFFFFFE000000000001FFFFFC
00FFFFFFFC000000000001FFFFFC
00FFFFFFFC000000000000FFFFFC
01FFFFFFF8000000000000FFFFFC
01FFFFFFF80000000000007FFFF8
03FFFFFFF00000000000003FFFF8
03FFFFFFF00000000000001FFFF0
03FFFFFFE00000000000000FFFE0
07FFFFFFE000000000000003FF80
07FFFFFFC0000000000000007C00
07FFFFFFC0000000000000000000
0FFFFFFF80000000000000000000
0FFFFFFF80000000000000000000
0FFFFFFF00000000000000000000
1FFFFFFF00000000000000000000
1FFFFFFF00000000000000000000
1FFFFFFE00000000000000000000
3FFFFFFE00000000000000000000
3FFFFFFE00000000000000000000
3FFFFFFC00000000000000000000
3FFFFFFC00000000000000000000
3FFFFFFC00000000000000000000
7FFFFFF800000000000000000000
7FFFFFF800000000000000000000
7FFFFFF800000000000000000000
7FFFFFF800000000000000000000
7FFFFFF000000000000000000000
7FFFFFF000000000000000000000
FFFFFFF000000000000000000000
FFFFFFF000000000000000000000
FFFFFFE000000000000000000000
FFFFFFE000000000000000000000
FFFFFFE000000000000000000000
FFFFFFE000000000000000000000
FFFFFFE000000000000000000000
FFFFFFE000000000000000000000
FFFFFFC000000000000000000000
FFFFFFC000000000000000000000
FFFFFFC000000000000000000000
FFFFFFC000000000000000000000
FFFFFFC000000000000000000000
FFFFFFC000000000000000000000
FFFFFFC000000000000000000000
FFFFFFC000000000000000000000
FFFFFFC000000000000000000000
FFFFFFC000000000000000000000
FFFFFFC000000000000000000000
FFFFFFC000000000000000000000
FFFFFFC000000000000000000000
FFFFFFC000000000000000000000
FFFFFFC000000000000000000000
7FFFFFC000000000000000000000
7FFFFFE000000000000000000000
7FFFFFE000000000000000000000
7FFFFFE000000000000000000000
7FFFFFE000000000000000000000
3FFFFFE000000000000000000000
3FFFFFF000000000000000000000
3FFFFFF000000000000000000000
1FFFFFF000000000000000000000
1FFFFFF800000000000000000000
1FFFFFF800000000000000000000
0FFFFFF800000000000000000000
0FFFFFFC00000000000000078000
0FFFFFFC000000000000001FC000
07FFFFFE000000000000003FE000
07FFFFFF00000000000000FFF000
03FFFFFF80000000000001FFF000
03FFFFFF80000000000003FFF000
03FFFFFFC0000000000007FFF800
01FFFFFFE000000000000FFFF800
01FFFFFFF000000000003FFFF800
00FFFFFFF000000000007FFFF800
00FFFFFFF80000000000FFFFF800
007FFFFFFE0000000003FFFFF800
003FFFFFFF0000000007FFFFF000
003FFFFFFF800000001FFFFFF000
001FFFFFFFE00000007FFFFFF000
001FFFFFFFF8000001FFFFFFF000
000FFFFFFFFF00000FFFFFFFE000
0007FFFFFFFFF000FFFFFFFFE000
0003FFFFFFFFFFFFFFFFFFFFC000
0003FFFFFFFFFFFFFFFFFFFFC000
0001FFFFFFFFFFFFFFFFFFFFC000
0000FFFFFFFFFFFFFFFFFFFF8000
00007FFFFFFFFFFFFFFFFFFF0000
00007FFFFFFFFFFFFFFFFFFF0000
00003FFFFFFFFFFFFFFFFFFE0000
00001FFFFFFFFFFFFFFFFFFC0000
00000FFFFFFFFFFFFFFFFFF80000
000007FFFFFFFFFFFFFFFFF80000
000003FFFFFFFFFFFFFFFFF00000
000001FFFFFFFFFFFFFFFFE00000
000000FFFFFFFFFFFFFFFFC00000
0000007FFFFFFFFFFFFFFF000000
0000001FFFFFFFFFFFFFFE000000
0000000FFFFFFFFFFFFFFC000000
00000007FFFFFFFFFFFFF8000000
00000001FFFFFFFFFFFFE0000000
00000000FFFFFFFFFFFFC0000000
000000003FFFFFFFFFFF80000000
000000000FFFFFFFFFFE00000000
0000000003FFFFFFFFFC00000000
0000000000FFFFFFFFF000000000
00000000001FFFFFFF8000000000
000000000003FFFFFE0000000000
0000000000003FFFE00000000000
ENDCHAR
STARTCHAR 0044
ENCODING 68
SWIDTH 549 0
DWIDTH 133 0
BBX 114 157 18 3
BITMAP
00000000000003FFFC000000000000
000000000003FFFFFFE00000000000
0000000007FFFFFFFFFC0000000000
00000000FFFFFFFFFFFF8000000000
0000001FFFFFFFFFFFFFE000000000
000003FFFFFFFFFFFFFFF800000000
00001FFFFFFFFFFFFFFFFE00000000
00007FFFFFFFFFFFFFFFFF80000000
00007FFFFFFFFFFFFFFFFFC0000000
00007FFFFFFFFFFFFFFFFFF0000000
0000FFFFFFFFFFFFFFFFFFF8000000
0000FFFFFFFFFFFFFFFFFFFC000000
0000FFFFFFFFFFFFFFFFFFFE000000
0001FFFFFFFFFFFFFFFFFFFF800000
0001FFFFFFFFFFFFFFFFFFFFC00000
0001FFFFFFFFFFFFFFFFFFFFE00000
0003FFFFFFFFFFFFFFFFFFFFE00000
0003FFFFFFFFFFFFFFFFFFFFF00000
0003FFFFFFFFFFFFFFFFFFFFF80000
0003FFFFFFFFFFFFFFFFFFFFFC0000
0007FFFFFFFFFFFFFFFFFFFFFE0000
0007FFFFFFFFFFFFFFFFFFFFFF0000
0007FFFFFFFFFFFFFFFFFFFFFF0000
0007FFFFFFFFFFFFFFFFFFFFFF8000
000FFFFFFFFFFFFFFFFFFFFFFFC000
000FFFFFFFFFFFFFFFFFFFFFFFC000
000FFFFFFFFF8000001FFFFFFFE000
000FFFFFFFC000000003FFFFFFE000
000FFFFFFF80000000007FFFFFF000
001FFFFFFF80000000001FFFFFF000
001FFFFFFF00000000000FFFFFF800
001FFFFFFE000000000007FFFFF800
001FFFFFFE000000000003FFFFFC00
001FFFFFFC000000000001FFFFFC00
003FFFFFF8000000000001FFFFFE00
003FFFFFF8000000000000FFFFFE00
003FFFFFF0000000000000FFFFFE00
003FFFFFF00000000000007FFFFF00
003FFFFFF00000000000007FFFFF00
003FFFFFE00000000000007FFFFF00
007FFFFFE00000000000003FFFFF00
007FFFFFE00000000000003FFFFF80
007FFFFFC00000000000003FFFFF80
007FFFFFC00000000000003FFFFF80
007FFFFFC00000000000003FFFFF80
007FFFFFC00000000000003FFFFFC0
007FFFFF800000000000003FFFFFC0
00FFFFFF800000000000003FFFFFC0
00FFFFFF800000000000003FFFFFC0
00FFFFFF800000000000003FFFFFC0
00FFFFFF000000000000003FFFFFC0
00FFFFFF000000000000003FFFFFC0
00FFFFFF000000000000003FFFFFC0
00FFFFFF000000000000003FFFFFC0
00FFFFFF000000000000003FFFFFC0
01FFFFFF000000000000003FFFFFC0
01FFFFFE000000000000003FFFFFC0
01FFFFFE000000000000003FFFFFC0
01FFFFFE000000000000003FFFFFC0
01FFFFFE000000000000007FFFFFC0
01FFFFFE000000000000007FFFFFC0
01FFFFFE000000000000007FFFFFC0
03FFFFFE000000000000007FFFFFC0
03FFFFFE000000000000007FFFFFC0
03FFFFFE00000000000000FFFFFFC0
03FFFFFC00000000000000FFFFFFC0
03FFFFFC00000000000000FFFFFF80
03FFFFFC00000000000001FFFFFF80
03FFFFFC00000000000001FFFFFF80
03FFFFFC00000000000001FFFFFF80
03FFFFFC00000000000003FFFFFF80
07FFFFFC00000000000003FFFFFF80
07FFFFFC00000000000007FFFFFF80
07FFFFFC00000000000007FFFFFF00
07FFFFFC00000000000007FFFFFF00
07FFFFF80000000000000FFFFFFF00
07FFFFF80000000000000FFFFFFF00
07FFFFF80000000000001FFFFFFE00
07FFFFF80000000000001FFFFFFE00
07FFFFF80000000000003FFFFFFE00
07FFFFF80000000000003FFFFFFE00
07FFFFF80000000000007FFFFFFC00
0FFFFFF8000000000000FFFFFFFC00
0FFFFFF0000000000000FFFFFFFC00
0FFFFFF0000000000001FFFFFFF800
0FFFFFF0000000000001FFFFFFF800
0FFFFFF0000000000003FFFFFFF800
0FFFFFF0000000000007FFFFFFF000
0FFFFFF0000000000007FFFFFFF000
0FFFFFF000000000000FFFFFFFF000
0FFFFFF000000000001FFFFFFFE000
0FFFFFF000000000003FFFFFFFE000
0FFFFFF000000000003FFFFFFFC000
0FFFFFF000000000007FFFFFFFC000
0FFFFFF00000000000FFFFFFFF8000
0FFFFFF00000000001FFFFFFFF8000
0FFFFFF00000000001FFFFFFFF0000
1FFFFFF00000000003FFFFFFFF0000
1FFFFFF00000000007FFFFFFFE0000
1FFFFFF0000000000FFFFFFFFE0000
1FFFFFF0000000001FFFFFFFFC0000
1FFFFFF0000000003FFFFFFFFC0000
1FFFFFF0000000003FFFFFFFF80000
1FFFFFE0000000007FFFFFFFF80000
1FFFFFE000000000FFFFFFFFF00000
1FFFFFE000000001FFFFFFFFF00000
1FFFFFE000000003FFFFFFFFE00000
1FFFFFE000000007FFFFFFFFC00000
1FFFFFE00000000FFFFFFFFFC00000
1FFFFFE00000001FFFFFFFFF800000
3FFFFFE00000003FFFFFFFFF000000
3FFFFFF00000007FFFFFFFFF000000
3FFFFFF0000000FFFFFFFFFE000000
3FFFFFF0000001FFFFFFFFFC000000
3FFFFFF0000003FFFFFFFFFC000000
3FFFFFF000000FFFFFFFFFF8000000
7FFFFFF000001FFFFFFFFFF0000000
7FFFFFF000003FFFFFFFFFE0000000
7FFFFFF00000FFFFFFFFFFC0000000
7FFFFFF00001FFFFFFFFFFC0000000
7FFFFFF00007FFFFFFFFFF80000000
7FFFFFF8001FFFFFFFFFFF00000000
7FFFFFF8007FFFFFFFFFFE00000000
7FFFFFF803FFFFFFFFFFFC00000000
FFFFFFF83FFFFFFFFFFFF800000000
FFFFFFFFFFFFFFFFFFFFF800000000
FFFFFFFFFFFFFFFFFFFFF000000000
FFFFFFFFFFFFFFFFFFFFE000000000
FFFFFFFFFFFFFFFFFFFFC000000000
FFFFFFFFFFFFFFFFFFFF8000000000
FFFFFFFFFFFFFFFFFFFF0000000000
FFFFFFFFFFFFFFFFFFFE0000000000
FFFFFFFFFFFFFFFFFFFC0000000000
FFFFFFFFFFFFFFFFFFF80000000000
FFFFFFFFFFFFFFFFFFF00000000000
FFFFFFFFFFFFFFFFFFE00000000000
FFFFFFFFFFFFFFFFFF800000000000
FFFFFFFFFFFFFFFFFF000000000000
FFFFFFFFFFFFFFFFFE000000000000
FFFFFFFFFFFFFFFFFC000000000000
7FFFFFFFFFFFFFFFF8000000000000
7FFFFFFFFFFFFFFFE0000000000000
7FFFFFFFFFFFFFFFC0000000000000
3FFFFFFFFFFFFFFF80000000000000
3FFFFFFFFFFFFFFE00000000000000
1FFFFFFFFFFFFFFC00000000000000
1FFFFFFFFFFFFFF000000000000000
0FFFFFFFFFFFFFC000000000000000
07FFFFFFFFFFFF8000000000000000
03FFFFFFFFFFFE0000000000000000
03FFFFFFFFFFF80000000000000000
00FFFFFFFFFFE00000000000000000
007FFFFFFFFF000000000000000000
003FFFFFFFFC000000000000000000
000FFFFFFFC0000000000000000000
0001FFFFFE00000000000000000000
000007FF8000000000000000000000
ENDCHAR
STARTCHAR 0045
ENCODING 69
SWIDTH 528 0
DWIDTH 128 0
BBX 103 155 20 3
BITMAP
000000000000000FFFC0000000
000000000003FFFFFFFFFE0000
0000000007FFFFFFFFFFFFFC00
00000001FFFFFFFFFFFFFFFF00
0000001FFFFFFFFFFFFFFFFF80
000001FFFFFFFFFFFFFFFFFFC0
00000FFFFFFFFFFFFFFFFFFFE0
00001FFFFFFFFFFFFFFFFFFFF0
00001FFFFFFFFFFFFFFFFFFFF0
00003FFFFFFFFFFFFFFFFFFFF8
00003FFFFFFFFFFFFFFFFFFFF8
00007FFFFFFFFFFFFFFFFFFFF8
0000FFFFFFFFFFFFFFFFFFFFFC
0000FFFFFFFFFFFFFFFFFFFFFC
0001FFFFFFFFFFFFFFFFFFFFFC
0001FFFFFFFFFFFFFFFFFFFFFC
0003FFFFFFFFFFFFFFFFFFFFFC
0003FFFFFFFFFFFFFFFFFFFFFC
0003FFFFFFFFFFFFFFFFFFFFF8
0007FFFFFFFFFFFFFFFFFFFFF8
0007FFFFFFFFFFFFFFFFFFFFF8
000FFFFFFFFFFFFFFFFFFFFFF8
000FFFFFFFFFFFFFFFFFFFFFF8
000FFFFFFFFFFFFFFFFFFFFFF0
001FFFFFFFFFFFFFFFFFFFFFF0
001FFFFFFE00000000003FFFE0
001FFFFFFC0000000000000080
003FFFFFFC0000000000000000
003FFFFFF80000000000000000
003FFFFFF80000000000000000
007FFFFFF80000000000000000
007FFFFFF00000000000000000
007FFFFFF00000000000000000
007FFFFFE00000000000000000
00FFFFFFE00000000000000000
00FFFFFFE00000000000000000
00FFFFFFE00000000000000000
00FFFFFFC00000000000000000
01FFFFFFC00000000000000000
01FFFFFFC00000000000000000
01FFFFFFC00000000000000000
01FFFFFF800000000000000000
03FFFFFF800000000000000000
03FFFFFF800000000000000000
03FFFFFF800000000000000000
03FFFFFF800000000000000000
03FFFFFF800000000000000000
03FFFFFF800000003FFFFFE000
07FFFFFF800003FFFFFFFFFC00
07FFFFFF80FFFFFFFFFFFFFF00
07FFFFFFFFFFFFFFFFFFFFFF80
07FFFFFFFFFFFFFFFFFFFFFFE0
07FFFFFFFFFFFFFFFFFFFFFFE0
07FFFFFFFFFFFFFFFFFFFFFFF0
0FFFFFFFFFFFFFFFFFFFFFFFF8
0FFFFFFFFFFFFFFFFFFFFFFFF8
0FFFFFFFFFFFFFFFFFFFFFFFFC
0FFFFFFFFFFFFFFFFFFFFFFFFC
0FFFFFFFFFFFFFFFFFFFFFFFFC
0FFFFFFFFFFFFFFFFFFFFFFFFC
0FFFFFFFFFFFFFFFFFFFFFFFFC
0FFFFFFFFFFFFFFFFFFFFFFFFC
1FFFFFFFFFFFFFFFFFFFFFFFFC
1FFFFFFFFFFFFFFFFFFFFFFFFC
1FFFFFFFFFFFFFFFFFFFFFFFF8
1FFFFFFFFFFFFFFFFFFFFFFFF8
1FFFFFFFFFFFFFFFFFFFFFFFF0
1FFFFFFFFFFFFFFFFFFFFFFFE0
1FFFFFFFFFFFFFFFFFFFFFFFC0
1FFFFFFFFFFFFFFFFFFFFFFF00
3FFFFFFFFFFFFFFFFFFFFFF800
3FFFFFFFFFFFFFFFFFFFFF0000
3FFFFFFFFFFFFFFFFFFC000000
3FFFFFFFFFFFFFFFE000000000
3FFFFFFFFFFFFFC00000000000
3FFFFFFFFFFFE0000000000000
3FFFFFFFFFF800000000000000
3FFFFFFFFFC000000000000000
3FFFFFFFFF0000000000000000
7FFFFFFFFC0000000000000000
7FFFFFFFF00000000000000000
7FFFFFFFE00000000000000000
7FFFFFFFC00000000000000000
7FFFFFFF800000000000000000
7FFFFFFF000000000000000000
7FFFFFFE000000000000000000
7FFFFFFC000000000000000000
7FFFFFF8000000000000000000
7FFFFFF8000000000000000000
FFFFFFF0000000000000000000
FFFFFFE0000000000000000000
FFFFFFE0000000000000000000
FFFFFFC0000000000000000000
FFFFFFC0000000000000000000
FFFFFF80000000000000000000
FFFFFF80000000000000000000
FFFFFF80000000000000000000
FFFFFF80000000000000000000
FFFFFF00000000000000000000
FFFFFF00000000000000000000
FFFFFF00000000000000000000
FFFFFF00000000000000000000
FFFFFF00000000000000000000
FFFFFF00000000000000000000
FFFFFF0000000000000000FFE0
FFFFFF000000000000000FFFF0
FFFFFF000000000000007FFFF8
FFFFFF00000000000003FFFFF8
FFFFFF0000000000000FFFFFFC
FFFFFF0000000000003FFFFFFC
FFFFFF000000000001FFFFFFFC
FFFFFF000000000007FFFFFFFE
FFFFFF00000000001FFFFFFFFE
FFFFFF80000000007FFFFFFFFE
FFFFFF8000000001FFFFFFFFFE
FFFFFF8000000003FFFFFFFFFE
FFFFFF800000000FFFFFFFFFFC
FFFFFF800000003FFFFFFFFFFC
FFFFFFC0000001FFFFFFFFFFFC
FFFFFFC0000007FFFFFFFFFFF8
FFFFFFC000001FFFFFFFFFFFF8
FFFFFFC000007FFFFFFFFFFFF0
FFFFFFE00001FFFFFFFFFFFFF0
FFFFFFE0000FFFFFFFFFFFFFE0
FFFFFFE0007FFFFFFFFFFFFFC0
FFFFFFE007FFFFFFFFFFFFFFC0
FFFFFFFFFFFFFFFFFFFFFFFF00
FFFFFFFFFFFFFFFFFFFFFFFE00
FFFFFFFFFFFFFFFFFFFFFFFC00
FFFFFFFFFFFFFFFFFFFFFFF800
7FFFFFFFFFFFFFFFFFFFFFF000
7FFFFFFFFFFFFFFFFFFFFFC000
7FFFFFFFFFFFFFFFFFFFFF8000
7FFFFFFFFFFFFFFFFFFFFE0000
7FFFFFFFFFFFFFFFFFFFFC0000
7FFFFFFFFFFFFFFFFFFFF00000
3FFFFFFFFFFFFFFFFFFFC00000
3FFFFFFFFFFFFFFFFFFF000000
3FFFFFFFFFFFFFFFFFFC000000
3FFFFFFFFFFFFFFFFFF0000000
1FFFFFFFFFFFFFFFFF80000000
1FFFFFFFFFFFFFFFFE00000000
1FFFFFFFFFFFFFFFF800000000
0FFFFFFFFFFFFFFFC000000000
0FFFFFFFFFFFFFFF0000000000
07FFFFFFFFFFFFF80000000000
03FFFFFFFFFFFFE00000000000
03FFFFFFFFFFFF000000000000
01FFFFFFFFFFF8000000000000
00FFFFFFFFFFC0000000000000
007FFFFFFFFE00000000000000
003FFFFFFFF000000000000000
001FFFFFFF8000000000000000
0007FFFFFC0000000000000000
0000FFFF800000000000000000
ENDCHAR
STARTCHAR 0046
ENCODING 70
SWIDTH 454 0
DWIDTH 110 0
BBX 97 155 19 2
BITMAP
0000000000000007FFF8000000
00000000000007FFFFFF800000
000000000001FFFFFFFFF00000
0000000000FFFFFFFFFFFC0000
000000001FFFFFFFFFFFFE0000
00000001FFFFFFFFFFFFFF0000
0000000FFFFFFFFFFFFFFF8000
0000003FFFFFFFFFFFFFFFC000
000000FFFFFFFFFFFFFFFFE000
000003FFFFFFFFFFFFFFFFF000
000007FFFFFFFFFFFFFFFFF000
00000FFFFFFFFFFFFFFFFFF800
00001FFFFFFFFFFFFFFFFFF800
00003FFFFFFFFFFFFFFFFFF800
00003FFFFFFFFFFFFFFFFFFC00
00007FFFFFFFFFFFFFFFFFFC00
00007FFFFFFFFFFFFFFFFFFC00
0000FFFFFFFFFFFFFFFFFFFC00
0000FFFFFFFFFFFFFFFFFFFC00
0001FFFFFFFFFFFFFFFFFFFC00
0001FFFFFFFFFFFFFFFFFFF800
0003FFFFFFFFFFFFFFFFFFF800
0003FFFFFFFFFFFFFFFFFFF000
0003FFFFFFFFFFFFFFFFFFE000
0007FFFFFFFFFFFFFFFFFFC000
0007FFFFFFFFFFFFFFFFFF0000
0007FFFFFFFFFFFFFFFFFC0000
000FFFFFFFF807FFFFFF800000
000FFFFFFFC000000000000000
000FFFFFFF8000000000000000
001FFFFFFF8000000000000000
001FFFFFFF0000000000000000
001FFFFFFF0000000000000000
001FFFFFFE0000000000000000
003FFFFFFE0000000000000000
003FFFFFFC0000000000000000
003FFFFFFC0000000000000000
007FFFFFFC0000000000000000
007FFFFFF80000000000000000
007FFFFFF80000000000000000
007FFFFFF80000000000000000
00FFFFFFF80000000000000000
00FFFFFFF80000000000000000
00FFFFFFF00000000000000000
00FFFFFFF00000000000000000
01FFFFFFF00000000000000000
01FFFFFFF00000000000000000
01FFFFFFF00000000000000000
01FFFFFFE00000000000000000
03FFFFFFE00000000000000000
03FFFFFFE00000000000000000
03FFFFFFE00000000000000000
03FFFFFFE00000000000000000
07FFFFFFE00000000000000000
07FFFFFFE00000000FFFC00000
07FFFFFFE000007FFFFFFC0000
07FFFFFFE007FFFFFFFFFF8000
0FFFFFFFFFFFFFFFFFFFFFC000
0FFFFFFFFFFFFFFFFFFFFFF000
0FFFFFFFFFFFFFFFFFFFFFF800
0FFFFFFFFFFFFFFFFFFFFFFC00
0FFFFFFFFFFFFFFFFFFFFFFC00
1FFFFFFFFFFFFFFFFFFFFFFE00
1FFFFFFFFFFFFFFFFFFFFFFF00
1FFFFFFFFFFFFFFFFFFFFFFF00
1FFFFFFFFFFFFFFFFFFFFFFF80
1FFFFFFFFFFFFFFFFFFFFFFF80
3FFFFFFFFFFFFFFFFFFFFFFF80
3FFFFFFFFFFFFFFFFFFFFFFF80
3FFFFFFFFFFFFFFFFFFFFFFF80
3FFFFFFFFFFFFFFFFFFFFFFF80
3FFFFFFFFFFFFFFFFFFFFFFF80
3FFFFFFFFFFFFFFFFFFFFFFF00
3FFFFFFFFFFFFFFFFFFFFFFF00
7FFFFFFFFFFFFFFFFFFFFFFE00
7FFFFFFFFFFFFFFFFFFFFFFC00
7FFFFFFFFFFFFFFFFFFFFFF000
7FFFFFFFFFFFFFFFFFFFFFE000
7FFFFFFFFFFFFFFFFFFFFF0000
7FFFFFFFFFFFFFFFFFFFF80000
7FFFFFFFFFFFFFFFFFFF800000
7FFFFFFFFFFFFFFFFF80000000
7FFFFFFFFFFFFFFF8000000000
7FFFFFFFFFFFFF000000000000
7FFFFFFFFFFF00000000000000
7FFFFFFFFF8000000000000000
7FFFFFFFF00000000000000000
7FFFFFFF800000000000000000
7FFFFFFE000000000000000000
7FFFFFF8000000000000000000
FFFFFFF0000000000000000000
FFFFFFF0000000000000000000
FFFFFFE0000000000000000000
FFFFFFE0000000000000000000
FFFFFFE0000000000000000000
FFFFFFE0000000000000000000
FFFFFFE0000000000000000000
FFFFFFE0000000000000000000
FFFFFFE0000000000000000000
FFFFFFE0000000000000000000
7FFFFFE0000000000000000000
7FFFFFE0000000000000000000
7FFFFFE0000000000000000000
7FFFFFE0000000000000000000
7FFFFFE0000000000000000000
7FFFFFE0000000000000000000
7FFFFFE0000000000000000000
7FFFFFE0000000000000000000
7FFFFFE0000000000000000000
7FFFFFE0000000000000000000
7FFFFFE0000000000000000000
7FFFFFE0000000000000000000
7FFFFFE0000000000000000000
7FFFFFE0000000000000000000
7FFFFFE0000000000000000000
7FFFFFE0000000000000000000
7FFFFFE0000000000000000000
7FFFFFE0000000000000000000
7FFFFFE0000000000000000000
7FFFFFE0000000000000000000
7FFFFFE0000000000000000000
7FFFFFE0000000000000000000
7FFFFFE0000000000000000000
7FFFFFE0000000000000000000
7FFFFFE0000000000000000000
7FFFFFE0000000000000000000
7FFFFFC0000000000000000000
7FFFFFC0000000000000000000
7FFFFFC0000000000000000000
7FFFFFC0000000000000000000
3FFFFFC0000000000000000000
3FFFFFC0000000000000000000
3FFFFFC0000000000000000000
3FFFFFC0000000000000000000
3FFFFFC0000000000000000000
3FFFFF80000000000000000000
3FFFFF80000000000000000000
3FFFFF80000000000000000000
3FFFFF80000000000000000000
1FFFFF80000000000000000000
1FFFFF00000000000000000000
1FFFFF00000000000000000000
1FFFFF00000000000000000000
1FFFFE00000000000000000000
1FFFFE00000000000000000000
0FFFFE00000000000000000000
0FFFFC00000000000000000000
0FFFFC00000000000000000000
07FFFC00000000000000000000
07FFF800000000000000000000
07FFF000000000000000000000
03FFF000000000000000000000
01FFE000000000000000000000
00FF8000000000000000000000
001E0000000000000000000000
ENDCHAR
STARTCHAR 0047
ENCODING 71
SWIDTH 574 0
DWIDTH 139 0
BBX 119 156 17 2
BITMAP
000000000000007FFF800000000000
00000000000007FFFFFC0000000000
0000000000003FFFFFFFC000000000
000000000001FFFFFFFFF800000000
000000000007FFFFFFFFFF00000000
00000000001FFFFFFFFFFFC0000000
00000000003FFFFFFFFFFFF8000000
0000000000FFFFFFFFFFFFFE000000
0000000001FFFFFFFFFFFFFF000000
0000000007FFFFFFFFFFFFFFC00000
000000000FFFFFFFFFFFFFFFF00000
000000001FFFFFFFFFFFFFFFF80000
000000007FFFFFFFFFFFFFFFFE0000
00000000FFFFFFFFFFFFFFFFFF0000
00000001FFFFFFFFFFFFFFFFFF8000
00000003FFFFFFFFFFFFFFFFFFE000
00000007FFFFFFFFFFFFFFFFFFF000
0000000FFFFFFFFFFFFFFFFFFFF800
0000001FFFFFFFFFFFFFFFFFFFFC00
0000003FFFFFFFFFFFFFFFFFFFFE00
0000007FFFFFFFFFFFFFFFFFFFFE00
0000007FFFFFFFFFFFFFFFFFFFFF00
000000FFFFFFFFFFFFFFFFFFFFFF00
000001FFFFFFFFFFE001FFFFFFFF80
000003FFFFFFFFFE00001FFFFFFF80
000007FFFFFFFFE0000007FFFFFF80
000007FFFFFFFF80000001FFFFFF80
00000FFFFFFFFE000000003FFFFF80
00001FFFFFFFF8000000001FFFFF00
00003FFFFFFFE00000000003FFFE00
00003FFFFFFFC00000000000FFFC00
00007FFFFFFF0000000000003FF800
0000FFFFFFFE0000000000000FF000
0000FFFFFFFC000000000000004000
0001FFFFFFF8000000000000000000
0003FFFFFFF0000000000000000000
0003FFFFFFE0000000000000000000
0007FFFFFFC0000000000000000000
000FFFFFFF80000000000000000000
000FFFFFFF00000000000000000000
001FFFFFFE00000000000000000000
001FFFFFFE00000000000000000000
003FFFFFFC00000000000000000000
003FFFFFF800000000000000000000
007FFFFFF000000000000000000000
007FFFFFF000000000000000000000
00FFFFFFE000000000000000000000
00FFFFFFC000000000000000000000
01FFFFFFC000000000000000000000
01FFFFFF8000000000000000000000
03FFFFFF8000000000000000000000
03FFFFFF00000000000000007FC000
03FFFFFF000000000000001FFFF800
07FFFFFE00000000000003FFFFFE00
07FFFFFE0000000000003FFFFFFF00
0FFFFFFC000000000003FFFFFFFF80
0FFFFFFC00000000003FFFFFFFFFC0
0FFFFFF80000000003FFFFFFFFFFE0
0FFFFFF8000000001FFFFFFFFFFFE0
1FFFFFF800000001FFFFFFFFFFFFF0
1FFFFFF00000000FFFFFFFFFFFFFF0
1FFFFFF0000000FFFFFFFFFFFFFFF8
3FFFFFF0000003FFFFFFFFFFFFFFF8
3FFFFFE000001FFFFFFFFFFFFFFFF8
3FFFFFE000007FFFFFFFFFFFFFFFFC
3FFFFFE00000FFFFFFFFFFFFFFFFFC
7FFFFFE00003FFFFFFFFFFFFFFFFFC
7FFFFFC00003FFFFFFFFFFFFFFFFFC
7FFFFFC00007FFFFFFFFFFFFFFFFFE
7FFFFFC00007FFFFFFFFFFFFFFFFFE
7FFFFFC00007FFFFFFFFFFFFFFFFFE
7FFFFFC00007FFFFFFFFFFFFFFFFFE
7FFFFF800007FFFFFFFFFFFFFFFFFE
FFFFFF800007FFFFFFFFFFFFFFFFFE
FFFFFF800007FFFFFFFFFFFFFFFFFE
FFFFFF800007FFFFFFFFFFFFFFFFFE
FFFFFF800007FFFFFFFFFFFFFFFFFE
FFFFFF800003FFFFFFFFFFFFFFFFFE
FFFFFF800003FFFFFFFFFFFFFFFFFE
FFFFFF800001FFFFFFFFFE1FFFFFFE
FFFFFF000001FFFFFFFF801FFFFFFC
FFFFFF000000FFFFFFF8001FFFFFFC
FFFFFF000000FFFFFF80001FFFFFFC
FFFFFF0000003FFFF000001FFFFFFC
FFFFFF0000001FFE0000001FFFFFFC
FFFFFF00000000000000001FFFFFFC
FFFFFF00000000000000001FFFFFFC
FFFFFF00000000000000001FFFFFF8
FFFFFF00000000000000001FFFFFF8
FFFFFF00000000000000001FFFFFF8
7FFFFF00000000000000001FFFFFF8
7FFFFF00000000000000001FFFFFF8
7FFFFF00000000000000001FFFFFF0
7FFFFF00000000000000001FFFFFF0
7FFFFF00000000000000001FFFFFF0
7FFFFF80000000000000001FFFFFF0
7FFFFF80000000000000003FFFFFF0
3FFFFF80000000000000003FFFFFE0
3FFFFF80000000000000003FFFFFE0
3FFFFF80000000000000003FFFFFE0
3FFFFF80000000000000007FFFFFC0
1FFFFF80000000000000007FFFFFC0
1FFFFFC0000000000000007FFFFFC0
1FFFFFC000000000000000FFFFFF80
0FFFFFC000000000000000FFFFFF80
0FFFFFE000000000000000FFFFFF80
0FFFFFE000000000000001FFFFFF00
0FFFFFE000000000000001FFFFFF00
07FFFFF000000000000003FFFFFE00
07FFFFF000000000000003FFFFFE00
03FFFFF000000000000007FFFFFC00
03FFFFF800000000000007FFFFFC00
03FFFFF80000000000000FFFFFF800
01FFFFFC0000000000000FFFFFF800
01FFFFFC0000000000001FFFFFF000
00FFFFFE0000000000003FFFFFF000
00FFFFFE0000000000003FFFFFE000
00FFFFFF0000000000007FFFFFE000
007FFFFF000000000000FFFFFFC000
007FFFFF800000000001FFFFFFC000
003FFFFFC00000000001FFFFFF8000
003FFFFFE00000000003FFFFFF0000
001FFFFFE00000000007FFFFFF0000
000FFFFFF0000000000FFFFFFE0000
000FFFFFFC000000001FFFFFFE0000
0007FFFFFE000000007FFFFFFC0000
0007FFFFFF00000000FFFFFFF80000
0003FFFFFFC0000003FFFFFFF00000
0003FFFFFFF000000FFFFFFFF00000
0001FFFFFFFC00003FFFFFFFE00000
0000FFFFFFFFC001FFFFFFFFC00000
0000FFFFFFFFFFFFFFFFFFFF800000
00007FFFFFFFFFFFFFFFFFFF800000
00003FFFFFFFFFFFFFFFFFFF000000
00003FFFFFFFFFFFFFFFFFFE000000
00001FFFFFFFFFFFFFFFFFFC000000
00000FFFFFFFFFFFFFFFFFF8000000
000007FFFFFFFFFFFFFFFFF0000000
000003FFFFFFFFFFFFFFFFE0000000
000003FFFFFFFFFFFFFFFFC0000000
000001FFFFFFFFFFFFFFFF80000000
000000FFFFFFFFFFFFFFFF00000000
0000007FFFFFFFFFFFFFFE00000000
0000003FFFFFFFFFFFFFFC00000000
0000001FFFFFFFFFFFFFF800000000
0000000FFFFFFFFFFFFFF000000000
00000003FFFFFFFFFFFFC000000000
00000001FFFFFFFFFFFF8000000000
00000000FFFFFFFFFFFF0000000000
000000003FFFFFFFFFFC0000000000
000000001FFFFFFFFFF00000000000
0000000007FFFFFFFFC00000000000
0000000001FFFFFFFF000000000000
00000000007FFFFFFC000000000000
00000000000FFFFFE0000000000000
000000000000FFFE00000000000000
ENDCHAR
STARTCHAR 0048
ENCODING 72
SWIDTH 541 0
DWIDTH 131 0
BBX 102 154 20 3
BITMAP
00000000000000000000F80000
00000FC0000000000001FF0000
00003FF8000000000003FFC000
00007FFE000000000007FFE000
0000FFFF00000000000FFFF000
0001FFFF80000000000FFFF800
0003FFFFC0000000001FFFFC00
0003FFFFE0000000001FFFFC00
0007FFFFE0000000001FFFFE00
0007FFFFF0000000001FFFFF00
0007FFFFF0000000001FFFFF00
000FFFFFF8000000003FFFFF80
000FFFFFF8000000003FFFFF80
000FFFFFFC000000003FFFFFC0
001FFFFFFC000000003FFFFFC0
001FFFFFFC000000003FFFFFC0
001FFFFFFC000000003FFFFFE0
001FFFFFFE000000003FFFFFE0
001FFFFFFE000000003FFFFFE0
003FFFFFFE000000003FFFFFF0
003FFFFFFE000000003FFFFFF0
003FFFFFFE000000003FFFFFF0
003FFFFFFE000000003FFFFFF0
003FFFFFFE000000003FFFFFF0
003FFFFFFE000000003FFFFFF8
003FFFFFFE000000003FFFFFF8
007FFFFFFC000000003FFFFFF8
007FFFFFFC000000003FFFFFF8
007FFFFFFC000000003FFFFFF8
007FFFFFFC000000003FFFFFF8
007FFFFFFC000000003FFFFFF8
007FFFFFFC000000003FFFFFFC
007FFFFFFC000000003FFFFFFC
00FFFFFFF8000000003FFFFFFC
00FFFFFFF8000000003FFFFFFC
00FFFFFFF8000000003FFFFFFC
00FFFFFFF8000000003FFFFFFC
00FFFFFFF8000000003FFFFFFC
00FFFFFFF0000000003FFFFFFC
00FFFFFFF0000000003FFFFFFC
00FFFFFFF0000000003FFFFFFC
00FFFFFFF0000000003FFFFFFC
01FFFFFFE0000000003FFFFFFC
01FFFFFFE0000000003FFFFFFC
01FFFFFFE0000000003FFFFFFC
01FFFFFFE0000000003FFFFFFC
01FFFFFFC0000000003FFFFFFC
01FFFFFFC0000000003FFFFFFC
01FFFFFFC0000000003FFFFFFC
01FFFFFFC0000000003FFFFFFC
03FFFFFF80000000003FFFFFFC
03FFFFFF80000000003FFFFFFC
03FFFFFF80000000003FFFFFFC
03FFFFFF80000000003FFFFFFC
03FFFFFF00000000003FFFFFFC
03FFFFFF00000000003FFFFFFC
03FFFFFF00000000003FFFFFFC
03FFFFFF00000000003FFFFFF8
07FFFFFF00000000003FFFFFF8
07FFFFFF00000000003FFFFFF8
07FFFFFE00000000003FFFFFF8
07FFFFFE00000000003FFFFFF8
07FFFFFE00000000003FFFFFF8
07FFFFFE00000000007FFFFFF8
07FFFFFE00000000007FFFFFF8
07FFFFFE0000000000FFFFFFF8
0FFFFFFE003FFFFFFFFFFFFFF8
0FFFFFFFFFFFFFFFFFFFFFFFF8
0FFFFFFFFFFFFFFFFFFFFFFFF8
0FFFFFFFFFFFFFFFFFFFFFFFF8
0FFFFFFFFFFFFFFFFFFFFFFFF8
0FFFFFFFFFFFFFFFFFFFFFFFF8
0FFFFFFFFFFFFFFFFFFFFFFFF8
0FFFFFFFFFFFFFFFFFFFFFFFF0
1FFFFFFFFFFFFFFFFFFFFFFFF0
1FFFFFFFFFFFFFFFFFFFFFFFF0
1FFFFFFFFFFFFFFFFFFFFFFFF0
1FFFFFFFFFFFFFFFFFFFFFFFF0
1FFFFFFFFFFFFFFFFFFFFFFFF0
1FFFFFFFFFFFFFFFFFFFFFFFF0
1FFFFFFFFFFFFFFFFFFFFFFFF0
1FFFFFFFFFFFFFFFFFFFFFFFF0
3FFFFFFFFFFFFFFFFFFFFFFFF0
3FFFFFFFFFFFFFFFFFFFFFFFF0
3FFFFFFFFFFFFFFFFFFFFFFFF0
3FFFFFFFFFFFFFFFFFFFFFFFF0
3FFFFFFFFFFFFFFFFFFFFFFFF0
3FFFFFFFFFFFFFFFFFFFFFFFF0
3FFFFFFFFFFFFFFFFFFFFFFFF0
3FFFFFFFFFFFFFFFFFFFFFFFF0
3FFFFFFFFFFFFFFFFFFFFFFFF0
3FFFFFFFFFFFFFFFFFFFFFFFF0
7FFFFFFFFFFFFFFFFFFFFFFFF0
7FFFFFFFFFFFFFFFFFFFFFFFF0
7FFFFFFFFFFFC00001FFFFFFF0
7FFFFFFFFC00000001FFFFFFF0
7FFFFFC00000000001FFFFFFF0
7FFFFFC00000000000FFFFFFF0
7FFFFFC00000000000FFFFFFF0
7FFFFFC00000000000FFFFFFF0
7FFFFFC00000000000FFFFFFF0
7FFFFFC00000000000FFFFFFF0
FFFFFFC00000000000FFFFFFF0
FFFFFFC000000000007FFFFFF0
FFFFFFC000000000007FFFFFF0
FFFFFFC000000000007FFFFFF0
FFFFFFC000000000007FFFFFF0
FFFFFFC000000000007FFFFFF0
FFFFFFC000000000007FFFFFF0
FFFFFFC000000000007FFFFFF0
FFFFFFC000000000007FFFFFF0
FFFFFFC000000000007FFFFFF0
FFFFFFE000000000007FFFFFF0
FFFFFFE000000000007FFFFFF0
FFFFFFE000000000007FFFFFF0
FFFFFFE000000000007FFFFFF0
FFFFFFE000000000007FFFFFF0
FFFFFFE000000000007FFFFFF0
FFFFFFE000000000007FFFFFF0
FFFFFFE000000000007FFFFFF0
FFFFFFE000000000007FFFFFF0
FFFFFFE000000000007FFFFFF0
FFFFFFE000000000007FFFFFF0
FFFFFFE000000000007FFFFFF0
FFFFFFE000000000007FFFFFF0
FFFFFFE000000000007FFFFFF0
FFFFFFE000000000007FFFFFF0
FFFFFFE000000000007FFFFFE0
FFFFFFE000000000007FFFFFE0
FFFFFFE000000000007FFFFFE0
FFFFFFE000000000007FFFFFE0
FFFFFFE000000000007FFFFFE0
FFFFFFE000000000007FFFFFE0
FFFFFFE000000000007FFFFFC0
FFFFFFE000000000007FFFFFC0
FFFFFFE000000000007FFFFFC0
7FFFFFE000000000003FFFFFC0
7FFFFFE000000000003FFFFF80
7FFFFFE000000000003FFFFF80
7FFFFFC000000000003FFFFF80
3FFFFFC000000000003FFFFF00
3FFFFFC000000000001FFFFF00
1FFFFFC000000000001FFFFF00
1FFFFFC000000000000FFFFE00
0FFFFF8000000000000FFFFE00
0FFFFF80000000000007FFFC00
07FFFF80000000000007FFF800
03FFFF80000000000003FFF800
03FFFF00000000000001FFF000
01FFFF00000000000000FFC000
00FFFE000000000000001F0000
003FFC00000000000000000000
001FF800000000000000000000
0003F000000000000000000000
ENDCHAR
STARTCHAR 0049
ENCODING 73
SWIDTH 508 0
DWIDTH 123 0
BBX 89 158 22 1
BITMAP
00000000000003F800000000
00000000003FFFFFFF000000
000000000FFFFFFFFFF80000
00000000FFFFFFFFFFFF0000
0000000FFFFFFFFFFFFFC000
0000007FFFFFFFFFFFFFF000
000003FFFFFFFFFFFFFFF800
00001FFFFFFFFFFFFFFFFC00
00007FFFFFFFFFFFFFFFFE00
0003FFFFFFFFFFFFFFFFFF00
0007FFFFFFFFFFFFFFFFFF00
001FFFFFFFFFFFFFFFFFFF80
007FFFFFFFFFFFFFFFFFFF80
00FFFFFFFFFFFFFFFFFFFF00
01FFFFFFFFFFFFFFFFFFFF00
03FFFFFFFFFFFFFFFFFFFE00
07FFFFFFFFFFFFFFFFFFFE00
07FFFFFFFFFFFFFFFFFFFC00
0FFFFFFFFFFFFFFFFFFFF800
1FFFFFFFFFFFFFFFFFFFF000
1FFFFFFFFFFFFFFFFFFFC000
1FFFFFFFFFFFFFFFFFFF0000
1FFFFFFFFFFFFFFFFFF00000
1FFFFFFFFFFFFFFFFC000000
0FFFFFFFFFFFFFFF00000000
0FFFFFFFFFFFFFF800000000
07FFFFFFFFFFFFF800000000
01FFFFFF9FFFFFF800000000
003FFFC01FFFFFF800000000
000000000FFFFFF000000000
000000000FFFFFF000000000
000000000FFFFFF000000000
000000000FFFFFF000000000
000000000FFFFFF000000000
000000000FFFFFF000000000
000000000FFFFFF000000000
000000000FFFFFF000000000
000000000FFFFFE000000000
000000000FFFFFE000000000
000000000FFFFFE000000000
000000000FFFFFE000000000
000000000FFFFFE000000000
000000000FFFFFE000000000
000000000FFFFFE000000000
000000001FFFFFE000000000
000000001FFFFFC000000000
000000001FFFFFC000000000
000000001FFFFFC000000000
000000001FFFFFC000000000
000000001FFFFFC000000000
000000001FFFFFC000000000
000000001FFFFF8000000000
000000001FFFFF8000000000
000000001FFFFF8000000000
000000003FFFFF8000000000
000000003FFFFF8000000000
000000003FFFFF8000000000
000000003FFFFF8000000000
000000003FFFFF8000000000
000000003FFFFF8000000000
000000003FFFFF0000000000
000000003FFFFF0000000000
000000007FFFFF0000000000
000000007FFFFF0000000000
000000007FFFFF0000000000
000000007FFFFF0000000000
000000007FFFFF0000000000
000000007FFFFF0000000000
000000007FFFFF0000000000
000000007FFFFF0000000000
00000000FFFFFF0000000000
00000000FFFFFF0000000000
00000000FFFFFF0000000000
00000000FFFFFF0000000000
00000000FFFFFF0000000000
00000000FFFFFF0000000000
00000000FFFFFF0000000000
00000001FFFFFE0000000000
00000001FFFFFE0000000000
00000001FFFFFE0000000000
00000001FFFFFE0000000000
00000001FFFFFE0000000000
00000001FFFFFE0000000000
00000001FFFFFE0000000000
00000003FFFFFE0000000000
00000003FFFFFE0000000000
00000003FFFFFE0000000000
00000003FFFFFE0000000000
00000003FFFFFE0000000000
00000003FFFFFE0000000000
00000003FFFFFE0000000000
00000003FFFFFE0000000000
00000007FFFFFE0000000000
00000007FFFFFE0000000000
00000007FFFFFE0000000000
00000007FFFFFE0000000000
00000007FFFFFE0000000000
00000007FFFFFE0000000000
00000007FFFFFC0000000000
00000007FFFFFC0000000000
0000000FFFFFFC0000000000
0000000FFFFFFC0000000000
0000000FFFFFFC0000000000
0000000FFFFFFC0000000000
0000000FFFFFFC0000000000
0000000FFFFFFC0000000000
0000000FFFFFFC0000000000
0000000FFFFFF80000000000
0000001FFFFFF80000000000
0000001FFFFFF80000000000
0000001FFFFFF80000000000
0000001FFFFFF80000000000
0000001FFFFFF80000000000
0000001FFFFFF80000000000
0000001FFFFFF80000000000
0000001FFFFFF80000000000
0000001FFFFFF80000000000
0000003FFFFFF80000000000
0000003FFFFFF80000000000
0000003FFFFFF80000000000
0000003FFFFFF80000000000
0000003FFFFFF80000000000
0000003FFFFFF80000000000
0000003FFFFFF80000000000
0000003FFFFFF80000000000
0000003FFFFFF80000000000
0000003FFFFFF80000000000
0000003FFFFFF80000000000
0000007FFFFFF80000000000
0000007FFFFFF80000000000
0000007FFFFFFC0000000000
0000007FFFFFFC0000000000
0000007FFFFFFC0000000000
0000007FFFFFFC0000000000
0000007FFFFFFE0000000000
000003FFFFFFFE00001F8000
0FFFFFFFFFFFFE007FFFF800
3FFFFFFFFFFFFFFFFFFFFC00
7FFFFFFFFFFFFFFFFFFFFE00
FFFFFFFFFFFFFFFFFFFFFF00
FFFFFFFFFFFFFFFFFFFFFF00
FFFFFFFFFFFFFFFFFFFFFF80
FFFFFFFFFFFFFFFFFFFFFF80
FFFFFFFFFFFFFFFFFFFFFF80
FFFFFFFFFFFFFFFFFFFFFF80
7FFFFFFFFFFFFFFFFFFFFF80
7FFFFFFFFFFFFFFFFFFFFF80
3FFFFFFFFFFFFFFFFFFFFF80
3FFFFFFFFFFFFFFFFFFFFF80
1FFFFFFFFFFFFFFFFFFFFF80
0FFFFFFFFFFFFFFFFFFFFF00
07FFFFFFFFFFFFFFFFFFFF00
03FFFFFFFFFFFFFFFFFFFF00
01FFFFFFFFFFFFFFFFFFFE00
007FFFFFFFFFFFFFFFFFF800
000FFFFFFFFFFFFFFFFF0000
0001FFFFFFFFFFFFFF800000
000007FFFFFFFFFF00000000
ENDCHAR
STARTCHAR 004A
ENCODING 74
SWIDTH 516 0
DWIDTH 125 0
BBX 114 158 12 3
BITMAP
0000000000003FFFFFFF8000000000
000000000000FFFFFFFFFFF0000000
000000000001FFFFFFFFFFFFF00000
000000000003FFFFFFFFFFFFFF0000
000000000007FFFFFFFFFFFFFFC000
00000000000FFFFFFFFFFFFFFFE000
00000000000FFFFFFFFFFFFFFFF000
00000000001FFFFFFFFFFFFFFFF800
00000000001FFFFFFFFFFFFFFFFC00
00000000001FFFFFFFFFFFFFFFFE00
00000000001FFFFFFFFFFFFFFFFF00
00000000001FFFFFFFFFFFFFFFFF00
00000000001FFFFFFFFFFFFFFFFF80
00000000001FFFFFFFFFFFFFFFFF80
00000000001FFFFFFFFFFFFFFFFF80
00000000001FFFFFFFFFFFFFFFFF80
00000000000FFFFFFFFFFFFFFFFFC0
000000000007FFFFFFFFFFFFFFFFC0
000000000003FFFFFFFFFFFFFFFFC0
000000000000FFFFFFFFFFFFFFFFC0
0000000000003FFFFFFFFFFFFFFFC0
0000000000000001FFFFFFFFFFFFC0
00000000000000007FFFFFFFFFFFC0
00000000000000003FFFFFFFFFFF80
00000000000000003FFFFFFF800000
00000000000000001FFFFFFC000000
00000000000000001FFFFFF8000000
00000000000000001FFFFFF0000000
00000000000000000FFFFFE0000000
00000000000000000FFFFFE0000000
00000000000000000FFFFFE0000000
00000000000000000FFFFFE0000000
00000000000000000FFFFFE0000000
00000000000000000FFFFFE0000000
000000000000000007FFFFE0000000
000000000000000007FFFFE0000000
000000000000000007FFFFE0000000
000000000000000007FFFFF0000000
000000000000000007FFFFF0000000
000000000000000007FFFFF0000000
000000000000000007FFFFF0000000
000000000000000003FFFFF0000000
000000000000000003FFFFF0000000
000000000000000003FFFFF0000000
000000000000000003FFFFF0000000
000000000000000003FFFFF0000000
000000000000000003FFFFF0000000
000000000000000003FFFFF8000000
000000000000000003FFFFF8000000
000000000000000003FFFFF8000000
000000000000000003FFFFF8000000
000000000000000003FFFFF8000000
000000000000000003FFFFF8000000
000000000000000003FFFFF8000000
000000000000000003FFFFF8000000
000000000000000003FFFFF8000000
000000000000000003FFFFF8000000
000000000000000003FFFFF8000000
000000000000000003FFFFF8000000
000000000000000003FFFFF8000000
000000000000000003FFFFF8000000
000000000000000003FFFFF8000000
000000000000000003FFFFF8000000
000000000000000003FFFFF8000000
000000000000000003FFFFF8000000
000000000000000003FFFFF8000000
000000000000000003FFFFF8000000
000000000000000003FFFFF8000000
000000000000000003FFFFF8000000
000000000000000007FFFFF8000000
000000000000000007FFFFF8000000
000000000000000007FFFFF8000000
000000000000000007FFFFF8000000
07FC00000000000007FFFFF8000000
1FFF00000000000007FFFFF8000000
3FFFC0000000000007FFFFF8000000
7FFFE0000000000007FFFFF8000000
FFFFF0000000000007FFFFF8000000
FFFFF8000000000007FFFFF8000000
FFFFFC000000000007FFFFF8000000
FFFFFC000000000007FFFFF8000000
FFFFFE000000000007FFFFF8000000
FFFFFE00000000000FFFFFF0000000
FFFFFF00000000000FFFFFF0000000
FFFFFF00000000000FFFFFF0000000
7FFFFF80000000000FFFFFF0000000
7FFFFF80000000000FFFFFF0000000
7FFFFFC0000000000FFFFFF0000000
7FFFFFC0000000000FFFFFF0000000
3FFFFFC0000000000FFFFFF0000000
3FFFFFC0000000001FFFFFF0000000
3FFFFFE0000000001FFFFFF0000000
3FFFFFE0000000001FFFFFF0000000
1FFFFFE0000000001FFFFFF0000000
1FFFFFF0000000001FFFFFE0000000
1FFFFFF0000000001FFFFFE0000000
0FFFFFF0000000003FFFFFE0000000
0FFFFFF0000000003FFFFFE0000000
0FFFFFF8000000003FFFFFE0000000
07FFFFF8000000003FFFFFE0000000
07FFFFF8000000003FFFFFE0000000
07FFFFFC000000007FFFFFE0000000
07FFFFFC000000007FFFFFC0000000
03FFFFFC000000007FFFFFC0000000
03FFFFFE000000007FFFFFC0000000
01FFFFFE00000000FFFFFFC0000000
01FFFFFE00000000FFFFFFC0000000
01FFFFFE00000000FFFFFFC0000000
00FFFFFF00000000FFFFFFC0000000
00FFFFFF00000001FFFFFF80000000
00FFFFFF00000001FFFFFF80000000
007FFFFF80000001FFFFFF80000000
007FFFFF80000001FFFFFF80000000
003FFFFF80000003FFFFFF80000000
003FFFFF80000003FFFFFF80000000
003FFFFFC0000003FFFFFF00000000
001FFFFFC0000003FFFFFF00000000
001FFFFFC0000007FFFFFF00000000
000FFFFFE0000007FFFFFF00000000
000FFFFFE0000007FFFFFF00000000
0007FFFFF000000FFFFFFE00000000
0007FFFFF000000FFFFFFE00000000
0007FFFFF800001FFFFFFE00000000
0003FFFFF800001FFFFFFE00000000
0003FFFFFC00003FFFFFFC00000000
0001FFFFFE00003FFFFFFC00000000
0001FFFFFF00007FFFFFFC00000000
0000FFFFFF8000FFFFFFF800000000
0000FFFFFFC001FFFFFFF800000000
00007FFFFFF003FFFFFFF800000000
00007FFFFFFC0FFFFFFFF000000000
00003FFFFFFFFFFFFFFFF000000000
00001FFFFFFFFFFFFFFFF000000000
00001FFFFFFFFFFFFFFFE000000000
00000FFFFFFFFFFFFFFFE000000000
000007FFFFFFFFFFFFFFE000000000
000007FFFFFFFFFFFFFFC000000000
000003FFFFFFFFFFFFFFC000000000
000001FFFFFFFFFFFFFF8000000000
000001FFFFFFFFFFFFFF8000000000
000000FFFFFFFFFFFFFF0000000000
0000007FFFFFFFFFFFFF0000000000
0000003FFFFFFFFFFFFE0000000000
0000003FFFFFFFFFFFFE0000000000
0000001FFFFFFFFFFFFC0000000000
0000000FFFFFFFFFFFF80000000000
00000007FFFFFFFFFFF80000000000
00000003FFFFFFFFFFF00000000000
00000001FFFFFFFFFFE00000000000
00000000FFFFFFFFFFC00000000000
000000007FFFFFFFFF800000000000
000000001FFFFFFFFF000000000000
000000000FFFFFFFFE000000000000
0000000007FFFFFFF8000000000000
0000000001FFFFFFF0000000000000
00000000007FFFFF80000000000000
00000000000FFFFE00000000000000
000000000001FFC000000000000000
ENDCHAR
STARTCHAR 004B
ENCODING 75
SWIDTH 516 0
DWIDTH 125 0
BBX 97 152 20 5
BITMAP
00001FC0000000000000000000
00003FF0000000000000000000
0000FFF8000000000007FF8000
0001FFFC00000000003FFFF000
0001FFFE0000000000FFFFF800
0003FFFF0000000001FFFFFC00
0007FFFF0000000007FFFFFE00
0007FFFF800000000FFFFFFF00
000FFFFF800000001FFFFFFF00
000FFFFF800000003FFFFFFF80
001FFFFF800000007FFFFFFF80
001FFFFF80000001FFFFFFFF80
001FFFFF80000003FFFFFFFF80
003FFFFF80000007FFFFFFFF80
003FFFFF8000000FFFFFFFFF80
003FFFFF8000001FFFFFFFFF80
003FFFFF8000003FFFFFFFFF80
003FFFFF8000007FFFFFFFFF80
007FFFFF800001FFFFFFFFFF80
007FFFFF800003FFFFFFFFFF00
007FFFFF800007FFFFFFFFFF00
007FFFFF80000FFFFFFFFFFE00
007FFFFF80001FFFFFFFFFFC00
00FFFFFF80003FFFFFFFFFFC00
00FFFFFF80007FFFFFFFFFF800
00FFFFFF8000FFFFFFFFFFF000
00FFFFFF8003FFFFFFFFFFE000
00FFFFFF8007FFFFFFFFFFC000
01FFFFFF800FFFFFFFFFFF8000
01FFFFFF801FFFFFFFFFFF0000
01FFFFFF803FFFFFFFFFFE0000
01FFFFFF807FFFFFFFFFF80000
01FFFFFF80FFFFFFFFFFF00000
01FFFFFF81FFFFFFFFFFC00000
01FFFFFF87FFFFFFFFFF800000
01FFFFFF8FFFFFFFFFFE000000
03FFFFFF9FFFFFFFFFFC000000
03FFFFFFBFFFFFFFFFF0000000
03FFFFFFFFFFFFFFFFE0000000
03FFFFFFFFFFFFFFFF80000000
03FFFFFFFFFFFFFFFF00000000
03FFFFFFFFFFFFFFFC00000000
03FFFFFFFFFFFFFFF800000000
03FFFFFFFFFFFFFFE000000000
03FFFFFFFFFFFFFFC000000000
03FFFFFFFFFFFFFF8000000000
03FFFFFFFFFFFFFE0000000000
03FFFFFFFFFFFFFC0000000000
03FFFFFFFFFFFFF80000000000
07FFFFFFFFFFFFF00000000000
07FFFFFFFFFFFFE00000000000
07FFFFFFFFFFFFC00000000000
07FFFFFFFFFFFF800000000000
07FFFFFFFFFFFF000000000000
07FFFFFFFFFFFE000000000000
07FFFFFFFFFFFC000000000000
07FFFFFFFFFFFC000000000000
07FFFFFFFFFFF8000000000000
07FFFFFFFFFFF8000000000000
07FFFFFFFFFFF8000000000000
07FFFFFFFFFFF0000000000000
07FFFFFFFFFFF0000000000000
07FFFFFFFFFFF0000000000000
07FFFFFFFFFFF0000000000000
07FFFFFFFFFFF8000000000000
07FFFFFFFFFFF8000000000000
07FFFFFFFFFFF8000000000000
07FFFFFFFFFFF8000000000000
0FFFFFFFFFFFFC000000000000
0FFFFFFFFFFFFC000000000000
0FFFFFFFFFFFFC000000000000
0FFFFFFFFFFFFE000000000000
0FFFFFFFFFFFFE000000000000
0FFFFFFFFFFFFF000000000000
0FFFFFFFFFFFFF000000000000
1FFFFFFFFFFFFF800000000000
1FFFFFFFFFFFFF800000000000
1FFFFFFFFFFFFFC00000000000
1FFFFFFFFFFFFFE00000000000
1FFFFFF7FFFFFFE00000000000
1FFFFFF3FFFFFFF00000000000
1FFFFFF3FFFFFFF00000000000
3FFFFFF1FFFFFFF80000000000
3FFFFFF0FFFFFFFC0000000000
3FFFFFF0FFFFFFFC0000000000
3FFFFFF07FFFFFFE0000000000
3FFFFFF03FFFFFFF0000000000
3FFFFFE03FFFFFFF0000000000
3FFFFFE01FFFFFFF8000000000
3FFFFFE00FFFFFFFC000000000
3FFFFFE00FFFFFFFC000000000
3FFFFFE007FFFFFFE000000000
3FFFFFE003FFFFFFF000000000
7FFFFFE003FFFFFFF000000000
7FFFFFE001FFFFFFF800000000
7FFFFFE000FFFFFFFC00000000
7FFFFFE000FFFFFFFC00000000
7FFFFFE0007FFFFFFE00000000
7FFFFFE0003FFFFFFF00000000
7FFFFFE0003FFFFFFF00000000
7FFFFFE0001FFFFFFF80000000
7FFFFFE0000FFFFFFFC0000000
7FFFFFE0000FFFFFFFE0000000
7FFFFFC00007FFFFFFE0000000
7FFFFFC00003FFFFFFF0000000
7FFFFFC00003FFFFFFF8000000
7FFFFFC00001FFFFFFF8000000
7FFFFFC00000FFFFFFFC000000
7FFFFFC00000FFFFFFFE000000
7FFFFFC000007FFFFFFE000000
7FFFFFC000003FFFFFFF000000
7FFFFFC000003FFFFFFF800000
7FFFFFC000001FFFFFFFC00000
7FFFFFC000000FFFFFFFC00000
7FFFFFC000000FFFFFFFE00000
7FFFFFC0000007FFFFFFF00000
7FFFFFC0000003FFFFFFF00000
7FFFFFC0000003FFFFFFF80000
7FFFFFC0000001FFFFFFFC0000
7FFFFFC0000000FFFFFFFC0000
7FFFFFC0000000FFFFFFFE0000
7FFFFFC00000007FFFFFFE0000
7FFFFFC00000003FFFFFFF0000
7FFFFFC00000003FFFFFFF0000
7FFFFFC00000001FFFFFFF8000
7FFFFFC00000000FFFFFFFC000
7FFFFFC00000000FFFFFFFC000
7FFFFFC000000007FFFFFFC000
7FFFFFC000000007FFFFFFE000
7FFFFFC000000003FFFFFFE000
FFFFFFC000000001FFFFFFF000
FFFFFFC000000001FFFFFFF000
FFFFFFC000000000FFFFFFF000
FFFFFFC000000000FFFFFFF000
7FFFFF80000000007FFFFFF800
7FFFFF80000000007FFFFFF800
7FFFFF80000000003FFFFFF800
7FFFFF80000000001FFFFFF800
7FFFFF80000000001FFFFFF800
7FFFFF00000000000FFFFFF800
7FFFFF00000000000FFFFFF800
7FFFFF000000000007FFFFF800
7FFFFE000000000003FFFFF800
7FFFFE000000000003FFFFF800
3FFFFE000000000001FFFFF000
3FFFFC000000000000FFFFF000
3FFFF80000000000007FFFE000
3FFFF00000000000003FFFE000
1FFFE00000000000000FFFC000
1FFFC000000000000003FF8000
0FFF8000000000000000780000
03FC0000000000000000000000
ENDCHAR
STARTCHAR 004C
ENCODING 76
SWIDTH 508 0
DWIDTH 123 0
BBX 103 156 19 2
BITMAP
00000038000000000000000000
000000FE000000000000000000
000001FF800000000000000000
000003FF800000000000000000
000007FFC00000000000000000
00000FFFC00000000000000000
00000FFFE00000000000000000
00001FFFE00000000000000000
00003FFFE00000000000000000
00003FFFE00000000000000000
00007FFFE00000000000000000
00007FFFE00000000000000000
0000FFFFE00000000000000000
0000FFFFE00000000000000000
0001FFFFE00000000000000000
0001FFFFC00000000000000000
0003FFFFC00000000000000000
0003FFFFC00000000000000000
0003FFFFC00000000000000000
0007FFFFC00000000000000000
0007FFFFC00000000000000000
0007FFFFC00000000000000000
000FFFFFC00000000000000000
000FFFFFC00000000000000000
000FFFFFC00000000000000000
000FFFFFC00000000000000000
001FFFFFC00000000000000000
001FFFFFC00000000000000000
001FFFFF800000000000000000
001FFFFF800000000000000000
003FFFFF800000000000000000
003FFFFF800000000000000000
003FFFFF800000000000000000
003FFFFF800000000000000000
003FFFFF800000000000000000
007FFFFF800000000000000000
007FFFFF800000000000000000
007FFFFF000000000000000000
007FFFFF000000000000000000
00FFFFFF000000000000000000
00FFFFFF000000000000000000
00FFFFFF000000000000000000
00FFFFFF000000000000000000
01FFFFFF000000000000000000
01FFFFFF000000000000000000
01FFFFFF000000000000000000
01FFFFFE000000000000000000
03FFFFFE000000000000000000
03FFFFFE000000000000000000
03FFFFFE000000000000000000
03FFFFFE000000000000000000
03FFFFFE000000000000000000
07FFFFFE000000000000000000
07FFFFFC000000000000000000
07FFFFFC000000000000000000
07FFFFFC000000000000000000
07FFFFFC000000000000000000
07FFFFFC000000000000000000
0FFFFFFC000000000000000000
0FFFFFFC000000000000000000
0FFFFFFC000000000000000000
0FFFFFF8000000000000000000
0FFFFFF8000000000000000000
0FFFFFF8000000000000000000
0FFFFFF8000000000000000000
1FFFFFF8000000000000000000
1FFFFFF8000000000000000000
1FFFFFF8000000000000000000
1FFFFFF8000000000000000000
1FFFFFF0000000000000000000
1FFFFFF0000000000000000000
1FFFFFF0000000000000000000
3FFFFFF0000000000000000000
3FFFFFF0000000000000000000
3FFFFFF0000000000000000000
3FFFFFF0000000000000000000
3FFFFFF0000000000000000000
3FFFFFF0000000000000000000
3FFFFFF0000000000000000000
3FFFFFF0000000000000000000
7FFFFFE0000000000000000000
7FFFFFE0000000000000000000
7FFFFFE0000000000000000000
7FFFFFE0000000000000000000
7FFFFFE0000000000000000000
7FFFFFE0000000000000000000
7FFFFFE0000000000000000000
7FFFFFE0000000000000000000
7FFFFFE0000000000000000000
7FFFFFE0000000000000000000
7FFFFFE0000000000000000000
FFFFFFE0000000000000000000
FFFFFFE0000000000000000000
FFFFFFE0000000000000000000
FFFFFFE0000000000000000000
FFFFFFE0000000000000000000
FFFFFFE0000000000000000000
FFFFFFE0000000000000000000
FFFFFFE0000000000000000000
FFFFFFE0000000000000000000
FFFFFFC0000000000000000000
FFFFFFC0000000000000000000
FFFFFFC0000000000000000000
FFFFFFC0000000000000000000
FFFFFFC0000000000000000000
FFFFFFC0000000000000000000
FFFFFFC0000000000000000000
FFFFFFE0000000000000000000
FFFFFFE0000000000000000000
FFFFFFE0000000000000000000
FFFFFFE0000000000000000000
FFFFFFE0000000000000000000
FFFFFFE0000000000000000000
FFFFFFE0000000000000000000
FFFFFFE0000000000000000000
FFFFFFE0000000000000000000
FFFFFFF0000000000000000000
FFFFFFF0000000000000000000
7FFFFFF0000000000000000000
7FFFFFF0000000000000000000
7FFFFFF0000000000000078000
7FFFFFF8000000000003FFF800
7FFFFFF800000000003FFFFE00
7FFFFFF80000000003FFFFFF00
7FFFFFFC000000007FFFFFFFC0
3FFFFFFC00000007FFFFFFFFE0
3FFFFFFE0000007FFFFFFFFFE0
3FFFFFFE00000FFFFFFFFFFFF0
3FFFFFFF0003FFFFFFFFFFFFF8
1FFFFFFF81FFFFFFFFFFFFFFF8
1FFFFFFFFFFFFFFFFFFFFFFFFC
1FFFFFFFFFFFFFFFFFFFFFFFFC
0FFFFFFFFFFFFFFFFFFFFFFFFE
0FFFFFFFFFFFFFFFFFFFFFFFFE
0FFFFFFFFFFFFFFFFFFFFFFFFC
07FFFFFFFFFFFFFFFFFFFFFFFC
07FFFFFFFFFFFFFFFFFFFFFFF8
07FFFFFFFFFFFFFFFFFFFFFFE0
03FFFFFFFFFFFFFFFFFFFFFF80
03FFFFFFFFFFFFFFFFFFFFFE00
01FFFFFFFFFFFFFFFFFFFFF800
01FFFFFFFFFFFFFFFFFFFFE000
00FFFFFFFFFFFFFFFFFFFF8000
00FFFFFFFFFFFFFFFFFFFC0000
007FFFFFFFFFFFFFFFFFF00000
003FFFFFFFFFFFFFFFFF800000
001FFFFFFFFFFFFFFFFC000000
001FFFFFFFFFFFFFFFE0000000
000FFFFFFFFFFFFFFF00000000
0007FFFFFFFFFFFFF000000000
0001FFFFFFFFFFFF8000000000
0000FFFFFFFFFFF80000000000
00007FFFFFFFFF000000000000
00001FFFFFFFE0000000000000
000003FFFFF800000000000000
00000007F00000000000000000
ENDCHAR
STARTCHAR 004D
ENCODING 77
SWIDTH 735 0
DWIDTH 178 0
BBX 143 154 20 3
BITMAP
00000000000000000000000000003F000000
0000000080000000000000000000FFE00000
0000000FFC000000000000000003FFFC0000
0000001FFF000000000000000007FFFE0000
0000007FFF80000000000000001FFFFF8000
000000FFFFC0000000000000003FFFFFC000
000001FFFFE0000000000000007FFFFFE000
000003FFFFF000000000000000FFFFFFF000
000007FFFFF800000000000001FFFFFFF800
00000FFFFFFC00000000000003FFFFFFFC00
00000FFFFFFC00000000000003FFFFFFFE00
00001FFFFFFE00000000000007FFFFFFFE00
00003FFFFFFE0000000000000FFFFFFFFF00
00003FFFFFFF0000000000001FFFFFFFFF00
00007FFFFFFF0000000000001FFFFFFFFF80
00007FFFFFFF0000000000003FFFFFFFFF80
0000FFFFFFFF8000000000007FFFFFFFFFC0
0000FFFFFFFF8000000000007FFFFFFFFFC0
0001FFFFFFFF800000000000FFFFFFFFFFC0
0001FFFFFFFF800000000001FFFFFFFFFFE0
0001FFFFFFFFC00000000001FFFFFFFFFFE0
0003FFFFFFFFC00000000003FFFFFFFFFFE0
0003FFFFFFFFC00000000007FFFFFFFFFFE0
0003FFFFFFFFC00000000007FFFFFFFFFFF0
0007FFFFFFFFC0000000000FFFFFFFFFFFF0
0007FFFFFFFFE0000000001FFFFFFFFFFFF0
0007FFFFFFFFE0000000001FFFFFFFFFFFF0
000FFFFFFFFFE0000000003FFFFFFFFFFFF0
000FFFFFFFFFE0000000007FFFFFFFFFFFF0
000FFFFFFFFFE000000000FFFFFFFFFFFFF8
001FFFFFFFFFE000000000FFFFFFFFFFFFF8
001FFFFFFFFFF000000001FFFFFFFFFFFFF8
001FFFFFFFFFF000000001FFFFFFFFFFFFF8
001FFFFFFFFFF000000003FFFFFFFFFFFFF8
003FFFFFFFFFF000000003FFFFFFFFFFFFF8
003FFFFFFFFFF000000007FFFFFFFFFFFFF8
003FFFFFFFFFF80000000FFFFFFFFFFFFFF8
007FFFFFFFFFF80000000FFFFFFFFFFFFFF8
007FFFFFFFFFF80000001FFFFFFFFFFFFFFC
007FFFFFFFFFF80000001FFFFFFFFFFFFFFC
00FFFFFFFFFFF80000003FFFFFFFFFFFFFFC
00FFFFFFFFFFFC0000007FFFFFFFFFFFFFFC
00FFFFFFFFFFFC0000007FFFFFFFFFFFFFFC
01FFFFFFFFFFFC000000FFFFFFFFFFFFFFFC
01FFFFFFFFFFFC000000FFFFFFFFFFFFFFFC
01FFFFFFFFFFFC000001FFFFFFFFFFFFFFFC
01FFFFFFFFFFFC000003FFFFFFFFFFFFFFFC
01FFFFFFFFFFFE000003FFFFFFFEFFFFFFFC
03FFFFFFFFFFFE000007FFFFFFFCFFFFFFFC
03FFFFFFFFFFFE000007FFFFFFFCFFFFFFFC
03FFFFFFFFFFFE00000FFFFFFFF8FFFFFFFC
03FFFFFFFFFFFE00001FFFFFFFF0FFFFFFFC
03FFFFFFFFFFFF00001FFFFFFFE0FFFFFFFC
07FFFFFFFFFFFF00003FFFFFFFC07FFFFFFC
07FFFFFFFFFFFF00003FFFFFFFC07FFFFFFC
07FFFFFFFFFFFF00007FFFFFFF807FFFFFFC
07FFFFFFFFFFFF8000FFFFFFFF007FFFFFFC
0FFFFFFFFFFFFF8000FFFFFFFF007FFFFFFC
0FFFFFFFFFFFFF8001FFFFFFFE007FFFFFF8
0FFFFFFFFFFFFFC001FFFFFFFC007FFFFFF8
0FFFFFFFFFFFFFC003FFFFFFFC007FFFFFF8
0FFFFFFFFFFFFFC003FFFFFFF8007FFFFFF8
0FFFFFFFFFFFFFE007FFFFFFF0007FFFFFF8
1FFFFFFFFFFFFFE00FFFFFFFF0007FFFFFF8
1FFFFFFFFFFFFFF00FFFFFFFE0007FFFFFF8
1FFFFFFFFFFFFFF01FFFFFFFE0007FFFFFF8
1FFFFFFFFFFFFFF81FFFFFFFC0007FFFFFF0
1FFFFFFFFFFFFFFC3FFFFFFF80007FFFFFF0
1FFFFFFFFFFFFFFE7FFFFFFF80007FFFFFF0
3FFFFFFFFFFFFFFFFFFFFFFF00007FFFFFF0
3FFFFFFFBFFFFFFFFFFFFFFF00007FFFFFF0
3FFFFFFF9FFFFFFFFFFFFFFE00007FFFFFF0
3FFFFFFF1FFFFFFFFFFFFFFE0000FFFFFFE0
3FFFFFFF1FFFFFFFFFFFFFFC0000FFFFFFE0
3FFFFFFE0FFFFFFFFFFFFFFC0000FFFFFFE0
3FFFFFFE0FFFFFFFFFFFFFF80000FFFFFFE0
3FFFFFFC0FFFFFFFFFFFFFF80000FFFFFFE0
3FFFFFFC0FFFFFFFFFFFFFF00000FFFFFFE0
7FFFFFFC07FFFFFFFFFFFFF00000FFFFFFE0
7FFFFFF807FFFFFFFFFFFFE00000FFFFFFE0
7FFFFFF807FFFFFFFFFFFFE00000FFFFFFC0
7FFFFFF807FFFFFFFFFFFFC00000FFFFFFC0
7FFFFFF807FFFFFFFFFFFFC00000FFFFFFC0
7FFFFFF807FFFFFFFFFFFF800000FFFFFFC0
7FFFFFF803FFFFFFFFFFFF800000FFFFFFC0
7FFFFFF003FFFFFFFFFFFF000000FFFFFFC0
7FFFFFF003FFFFFFFFFFFF000000FFFFFFC0
7FFFFFF003FFFFFFFFFFFE000000FFFFFFC0
7FFFFFF003FFFFFFFFFFFE000000FFFFFFC0
7FFFFFF003FFFFFFFFFFFE000000FFFFFFC0
7FFFFFF003FFFFFFFFFFFC000000FFFFFFC0
7FFFFFF001FFFFFFFFFFFC000000FFFFFFC0
FFFFFFF001FFFFFFFFFFF8000000FFFFFFC0
FFFFFFF001FFFFFFFFFFF8000000FFFFFFC0
FFFFFFF001FFFFFFFFFFF0000000FFFFFFC0
FFFFFFF001FFFFFFFFFFF0000000FFFFFFC0
FFFFFFF001FFFFFFFFFFF0000000FFFFFFC0
FFFFFFE000FFFFFFFFFFE0000000FFFFFFC0
FFFFFFE000FFFFFFFFFFE0000000FFFFFFC0
FFFFFFE000FFFFFFFFFFC0000000FFFFFFC0
FFFFFFE000FFFFFFFFFFC0000000FFFFFFC0
FFFFFFE000FFFFFFFFFFC0000000FFFFFFC0
FFFFFFE000FFFFFFFFFF80000000FFFFFFE0
FFFFFFE000FFFFFFFFFF80000000FFFFFFE0
FFFFFFE0007FFFFFFFFF00000000FFFFFFE0
FFFFFFE0007FFFFFFFFF00000000FFFFFFE0
FFFFFFE0007FFFFFFFFF000000007FFFFFE0
FFFFFFE0007FFFFFFFFE000000007FFFFFE0
FFFFFFE0007FFFFFFFFE000000007FFFFFE0
FFFFFFE0003FFFFFFFFC000000007FFFFFF0
FFFFFFE0003FFFFFFFFC000000007FFFFFF0
FFFFFFE0003FFFFFFFFC000000007FFFFFF0
FFFFFFE0003FFFFFFFF8000000007FFFFFF0
FFFFFFE0003FFFFFFFF8000000007FFFFFF0
FFFFFFE0001FFFFFFFF8000000007FFFFFF0
FFFFFFE0001FFFFFFFF0000000007FFFFFF0
FFFFFFE0001FFFFFFFF0000000007FFFFFF8
FFFFFFE0001FFFFFFFF0000000007FFFFFF8
FFFFFFE0000FFFFFFFE0000000007FFFFFF8
FFFFFFE0000FFFFFFFE0000000007FFFFFF8
FFFFFFE0000FFFFFFFE0000000007FFFFFF8
7FFFFFE00007FFFFFFC0000000007FFFFFF8
7FFFFFE00007FFFFFFC0000000007FFFFFF8
7FFFFFE00003FFFFFFC0000000007FFFFFF8
7FFFFFE00003FFFFFF80000000007FFFFFFC
7FFFFFE00003FFFFFF80000000003FFFFFFC
7FFFFFE00001FFFFFF00000000003FFFFFFC
7FFFFFF00001FFFFFF00000000003FFFFFFC
7FFFFFF00000FFFFFF00000000003FFFFFFC
7FFFFFF00000FFFFFE00000000003FFFFFFC
7FFFFFF000007FFFFE00000000003FFFFFFC
7FFFFFF000003FFFFC00000000003FFFFFFC
3FFFFFF000001FFFFC00000000003FFFFFFE
3FFFFFF000000FFFF800000000003FFFFFFE
3FFFFFF0000007FFF800000000003FFFFFFE
3FFFFFF0000003FFF000000000001FFFFFFE
3FFFFFF8000000FFE000000000001FFFFFFE
3FFFFFF80000000F8000000000001FFFFFFE
1FFFFFF8000000000000000000001FFFFFFE
1FFFFFF0000000000000000000001FFFFFFE
1FFFFFF0000000000000000000001FFFFFFE
1FFFFFF8000000000000000000000FFFFFFE
0FFFFFF0000000000000000000000FFFFFFE
0FFFFFF0000000000000000000000FFFFFFE
07FFFFF0000000000000000000000FFFFFFE
07FFFFF00000000000000000000007FFFFFE
03FFFFF00000000000000000000007FFFFFE
03FFFFE00000000000000000000007FFFFFE
01FFFFE00000000000000000000003FFFFFC
00FFFFE00000000000000000000003FFFFF8
007FFFC00000000000000000000003FFFFF0
001FFF800000000000000000000001FFFFE0
000FFF000000000000000000000001FFFF80
0001FE000000000000000000000000FFFC00
ENDCHAR
STARTCHAR 004E
ENCODING 78
SWIDTH 561 0
DWIDTH 136 0
BBX 110 153 20 5
BITMAP
000001F800000000000000000000
000003FE00000000000000078000
000007FF800000000000003FF000
00000FFFC00000000000007FF800
00001FFFE0000000000000FFFE00
00001FFFF0000000000001FFFF00
00003FFFF8000000000001FFFF00
00003FFFFC000000000003FFFF80
00007FFFFC000000000003FFFFC0
0000FFFFFE000000000007FFFFC0
0000FFFFFF000000000007FFFFE0
0000FFFFFF000000000007FFFFE0
0001FFFFFF800000000007FFFFF0
0001FFFFFF80000000000FFFFFF0
0003FFFFFFC0000000000FFFFFF0
0003FFFFFFC0000000000FFFFFF8
0003FFFFFFE0000000000FFFFFF8
0007FFFFFFF0000000000FFFFFF8
0007FFFFFFF0000000000FFFFFF8
0007FFFFFFF8000000000FFFFFF8
000FFFFFFFF8000000001FFFFFF8
000FFFFFFFF8000000001FFFFFFC
000FFFFFFFFC000000001FFFFFFC
000FFFFFFFFC000000001FFFFFFC
001FFFFFFFFE000000001FFFFFFC
001FFFFFFFFE000000001FFFFFFC
001FFFFFFFFE000000001FFFFFFC
001FFFFFFFFF000000001FFFFFF8
003FFFFFFFFF000000001FFFFFF8
003FFFFFFFFF800000001FFFFFF8
003FFFFFFFFF800000001FFFFFF8
003FFFFFFFFF800000001FFFFFF8
003FFFFFFFFFC00000001FFFFFF8
007FFFFFFFFFC00000001FFFFFF8
007FFFFFFFFFE00000001FFFFFF8
007FFFFFFFFFE00000001FFFFFF8
007FFFFFFFFFE00000001FFFFFF8
00FFFFFFFFFFF00000001FFFFFF8
00FFFFFFFFFFF00000001FFFFFF8
00FFFFFFFFFFF00000001FFFFFF8
01FFFFFFFFFFF80000001FFFFFF8
01FFFFFFFFFFF80000001FFFFFF8
01FFFFFFFFFFFC0000001FFFFFF8
01FFFFFFFFFFFC0000001FFFFFF8
01FFFFFFFFFFFC0000001FFFFFF8
03FFFFFFFFFFFE0000001FFFFFF8
03FFFFFFFFFFFE0000001FFFFFF8
03FFFFFFFFFFFE0000001FFFFFF8
03FFFFFFFFFFFF0000001FFFFFF8
03FFFFFFFFFFFF0000001FFFFFF0
03FFFFFFFFFFFF8000001FFFFFF0
07FFFFFFFFFFFF8000001FFFFFF0
07FFFFFFFFFFFF8000001FFFFFF0
07FFFFFFFFFFFFC000001FFFFFF0
07FFFFFFFFFFFFC000001FFFFFF0
07FFFFFFFFFFFFC000001FFFFFF0
07FFFFFFFFFFFFE000001FFFFFF0
0FFFFFFFFFFFFFE000001FFFFFF0
0FFFFFFFFFFFFFF000001FFFFFF0
0FFFFFFFFFFFFFF000001FFFFFF0
0FFFFFFFFFFFFFF000001FFFFFF0
0FFFFFFFFFFFFFF800001FFFFFF0
0FFFFFFFFFFFFFF800001FFFFFF0
1FFFFFFFFFFFFFF800001FFFFFF0
1FFFFFFFFFFFFFFC00001FFFFFF0
1FFFFFFFFFFFFFFC00001FFFFFE0
1FFFFFFFFFFFFFFE00001FFFFFE0
1FFFFFFFFFFFFFFE00001FFFFFE0
1FFFFFFFFFFFFFFE00001FFFFFE0
1FFFFFFFFFFFFFFF00001FFFFFE0
3FFFFFFFFFFFFFFF00001FFFFFE0
3FFFFFFF7FFFFFFF80001FFFFFE0
3FFFFFFE7FFFFFFF80001FFFFFE0
3FFFFFFC7FFFFFFF80001FFFFFE0
3FFFFFFC3FFFFFFFC0001FFFFFE0
3FFFFFF83FFFFFFFC0001FFFFFE0
3FFFFFF01FFFFFFFC0001FFFFFE0
3FFFFFF01FFFFFFFE0001FFFFFE0
3FFFFFE00FFFFFFFE0001FFFFFE0
7FFFFFE00FFFFFFFF0001FFFFFE0
7FFFFFE007FFFFFFF0001FFFFFC0
7FFFFFC007FFFFFFF8001FFFFFC0
7FFFFFC007FFFFFFF8001FFFFFC0
7FFFFFC003FFFFFFF8001FFFFFC0
7FFFFFC003FFFFFFFC003FFFFFC0
7FFFFFC001FFFFFFFC003FFFFFC0
7FFFFF8001FFFFFFFE003FFFFFC0
FFFFFF8000FFFFFFFE003FFFFFC0
FFFFFF8000FFFFFFFF003FFFFFC0
FFFFFF80007FFFFFFF003FFFFFC0
FFFFFF80007FFFFFFF803FFFFFC0
FFFFFF80003FFFFFFFC07FFFFF80
FFFFFF80003FFFFFFFC07FFFFF80
FFFFFF80001FFFFFFFE07FFFFF80
FFFFFF00001FFFFFFFE07FFFFF80
FFFFFF00000FFFFFFFF0FFFFFF80
FFFFFF00000FFFFFFFF8FFFFFF80
FFFFFF000007FFFFFFF8FFFFFF80
FFFFFF000007FFFFFFFDFFFFFF80
FFFFFF000007FFFFFFFFFFFFFF80
FFFFFF000003FFFFFFFFFFFFFF80
FFFFFF000003FFFFFFFFFFFFFF80
FFFFFF000001FFFFFFFFFFFFFF00
FFFFFF000001FFFFFFFFFFFFFF00
FFFFFF000000FFFFFFFFFFFFFF00
FFFFFF000000FFFFFFFFFFFFFF00
FFFFFF0000007FFFFFFFFFFFFF00
FFFFFF0000007FFFFFFFFFFFFF00
FFFFFF0000003FFFFFFFFFFFFF00
FFFFFF0000003FFFFFFFFFFFFF00
FFFFFF0000001FFFFFFFFFFFFF00
FFFFFF0000001FFFFFFFFFFFFF00
FFFFFF0000000FFFFFFFFFFFFE00
FFFFFF0000000FFFFFFFFFFFFE00
FFFFFF00000007FFFFFFFFFFFE00
FFFFFF00000007FFFFFFFFFFFE00
FFFFFF00000003FFFFFFFFFFFE00
FFFFFF00000003FFFFFFFFFFFE00
FFFFFF00000001FFFFFFFFFFFE00
FFFFFF00000001FFFFFFFFFFFE00
FFFFFF00000000FFFFFFFFFFFE00
FFFFFF00000000FFFFFFFFFFFE00
FFFFFF000000007FFFFFFFFFFC00
FFFFFF000000007FFFFFFFFFFC00
FFFFFF000000003FFFFFFFFFFC00
FFFFFF000000001FFFFFFFFFFC00
FFFFFF000000001FFFFFFFFFFC00
7FFFFF000000000FFFFFFFFFFC00
7FFFFF000000000FFFFFFFFFFC00
7FFFFF0000000007FFFFFFFFFC00
7FFFFF0000000007FFFFFFFFFC00
7FFFFF0000000003FFFFFFFFF800
7FFFFF0000000003FFFFFFFFF800
3FFFFF0000000001FFFFFFFFF800
3FFFFF0000000000FFFFFFFFF000
3FFFFE0000000000FFFFFFFFF000
3FFFFE00000000007FFFFFFFF000
3FFFFE00000000003FFFFFFFE000
1FFFFE00000000003FFFFFFFE000
1FFFFE00000000001FFFFFFFE000
1FFFFE00000000000FFFFFFFC000
1FFFFE000000000007FFFFFFC000
0FFFFE000000000003FFFFFF8000
0FFFFE000000000003FFFFFF0000
0FFFFE000000000000FFFFFF0000
07FFFC0000000000007FFFFE0000
07FFFC0000000000003FFFFC0000
03FFFC0000000000001FFFF80000
03FFF800000000000007FFF00000
01FFF800000000000001FFE00000
00FFF0000000000000003F800000
003FE00000000000000000000000
0007800000000000000000000000
ENDCHAR
STARTCHAR 004F
ENCODING 79
SWIDTH 533 0
DWIDTH 129 0
BBX 108 157 18 1
BITMAP
00000000000007FFF00000000000
000000000000FFFFFF8000000000
000000000007FFFFFFF000000000
00000000001FFFFFFFFE00000000
00000000007FFFFFFFFF80000000
0000000001FFFFFFFFFFE0000000
0000000007FFFFFFFFFFF0000000
000000001FFFFFFFFFFFFC000000
000000003FFFFFFFFFFFFE000000
00000000FFFFFFFFFFFFFF000000
00000001FFFFFFFFFFFFFFC00000
00000003FFFFFFFFFFFFFFE00000
00000007FFFFFFFFFFFFFFF00000
0000000FFFFFFFFFFFFFFFF80000
0000001FFFFFFFFFFFFFFFFC0000
0000003FFFFFFFFFFFFFFFFC0000
0000007FFFFFFFFFFFFFFFFE0000
000000FFFFFFFFFFFFFFFFFF0000
000001FFFFFFFFFFFFFFFFFF8000
000003FFFFFFFFFFFFFFFFFF8000
000007FFFFFFFFFFFFFFFFFFC000
00000FFFFFFFFFFFFFFFFFFFE000
00000FFFFFFFFFFFFFFFFFFFE000
00001FFFFFFFFF801FFFFFFFF000
00003FFFFFFFF80007FFFFFFF000
00007FFFFFFFE00001FFFFFFF800
00007FFFFFFF800000FFFFFFF800
0000FFFFFFFF0000003FFFFFFC00
0001FFFFFFFC0000001FFFFFFC00
0001FFFFFFF80000001FFFFFFC00
0003FFFFFFF00000000FFFFFFE00
0003FFFFFFE000000007FFFFFE00
0007FFFFFFC000000007FFFFFF00
000FFFFFFF8000000003FFFFFF00
000FFFFFFF0000000003FFFFFF00
001FFFFFFE0000000003FFFFFF80
001FFFFFFE0000000001FFFFFF80
003FFFFFFC0000000001FFFFFF80
003FFFFFF80000000001FFFFFFC0
007FFFFFF80000000000FFFFFFC0
007FFFFFF00000000000FFFFFFC0
007FFFFFF00000000000FFFFFFC0
00FFFFFFE00000000000FFFFFFC0
00FFFFFFE000000000007FFFFFE0
01FFFFFFC000000000007FFFFFE0
01FFFFFFC000000000007FFFFFE0
01FFFFFF8000000000007FFFFFE0
03FFFFFF8000000000007FFFFFE0
03FFFFFF0000000000007FFFFFE0
03FFFFFF0000000000007FFFFFE0
07FFFFFF0000000000007FFFFFF0
07FFFFFE0000000000007FFFFFF0
07FFFFFE0000000000007FFFFFF0
0FFFFFFE0000000000007FFFFFF0
0FFFFFFC0000000000007FFFFFF0
0FFFFFFC0000000000007FFFFFF0
0FFFFFFC0000000000007FFFFFF0
1FFFFFF80000000000007FFFFFF0
1FFFFFF80000000000007FFFFFF0
1FFFFFF80000000000007FFFFFF0
1FFFFFF00000000000007FFFFFF0
1FFFFFF00000000000007FFFFFF0
3FFFFFF00000000000007FFFFFF0
3FFFFFF0000000000000FFFFFFF0
3FFFFFF0000000000000FFFFFFF0
3FFFFFE0000000000000FFFFFFF0
3FFFFFE0000000000000FFFFFFF0
3FFFFFE0000000000000FFFFFFF0
7FFFFFE0000000000000FFFFFFF0
7FFFFFE0000000000000FFFFFFF0
7FFFFFC0000000000001FFFFFFF0
7FFFFFC0000000000001FFFFFFF0
7FFFFFC0000000000001FFFFFFF0
7FFFFFC0000000000001FFFFFFE0
7FFFFFC0000000000001FFFFFFE0
7FFFFFC0000000000003FFFFFFE0
7FFFFFC0000000000003FFFFFFE0
FFFFFFC0000000000003FFFFFFE0
FFFFFFC0000000000003FFFFFFE0
FFFFFF80000000000007FFFFFFE0
FFFFFF80000000000007FFFFFFC0
FFFFFF80000000000007FFFFFFC0
FFFFFF8000000000000FFFFFFFC0
FFFFFF8000000000000FFFFFFFC0
FFFFFF8000000000000FFFFFFFC0
FFFFFF8000000000000FFFFFFFC0
FFFFFF8000000000001FFFFFFF80
FFFFFF8000000000001FFFFFFF80
FFFFFF8000000000001FFFFFFF80
FFFFFF8000000000003FFFFFFF80
FFFFFF8000000000003FFFFFFF00
FFFFFF8000000000003FFFFFFF00
FFFFFF8000000000007FFFFFFF00
FFFFFF8000000000007FFFFFFF00
7FFFFF8000000000007FFFFFFE00
7FFFFF800000000000FFFFFFFE00
7FFFFF800000000000FFFFFFFE00
7FFFFFC00000000000FFFFFFFE00
7FFFFFC00000000001FFFFFFFC00
7FFFFFC00000000001FFFFFFFC00
7FFFFFC00000000001FFFFFFFC00
7FFFFFC00000000003FFFFFFF800
7FFFFFC00000000003FFFFFFF800
3FFFFFC00000000007FFFFFFF800
3FFFFFC00000000007FFFFFFF000
3FFFFFE0000000000FFFFFFFF000
3FFFFFE0000000000FFFFFFFF000
3FFFFFE0000000001FFFFFFFE000
1FFFFFE0000000001FFFFFFFE000
1FFFFFE0000000003FFFFFFFC000
1FFFFFF0000000003FFFFFFFC000
1FFFFFF0000000007FFFFFFFC000
0FFFFFF000000000FFFFFFFF8000
0FFFFFF800000000FFFFFFFF8000
0FFFFFF800000001FFFFFFFF0000
07FFFFF800000003FFFFFFFF0000
07FFFFFC00000003FFFFFFFE0000
07FFFFFC00000007FFFFFFFE0000
07FFFFFC0000000FFFFFFFFC0000
03FFFFFE0000001FFFFFFFFC0000
03FFFFFF0000003FFFFFFFF80000
01FFFFFF0000007FFFFFFFF00000
01FFFFFF800000FFFFFFFFF00000
01FFFFFFC00001FFFFFFFFE00000
00FFFFFFE00007FFFFFFFFE00000
00FFFFFFF0000FFFFFFFFFC00000
007FFFFFF8003FFFFFFFFFC00000
007FFFFFFE03FFFFFFFFFF800000
007FFFFFFFFFFFFFFFFFFF000000
003FFFFFFFFFFFFFFFFFFF000000
003FFFFFFFFFFFFFFFFFFE000000
001FFFFFFFFFFFFFFFFFFC000000
001FFFFFFFFFFFFFFFFFFC000000
000FFFFFFFFFFFFFFFFFF8000000
000FFFFFFFFFFFFFFFFFF0000000
0007FFFFFFFFFFFFFFFFF0000000
0003FFFFFFFFFFFFFFFFE0000000
0003FFFFFFFFFFFFFFFFC0000000
0001FFFFFFFFFFFFFFFF80000000
0000FFFFFFFFFFFFFFFF00000000
0000FFFFFFFFFFFFFFFF00000000
00007FFFFFFFFFFFFFFE00000000
00003FFFFFFFFFFFFFFC00000000
00001FFFFFFFFFFFFFF800000000
00000FFFFFFFFFFFFFF000000000
000007FFFFFFFFFFFFC000000000
000003FFFFFFFFFFFF8000000000
000001FFFFFFFFFFFF0000000000
000000FFFFFFFFFFFE0000000000
0000007FFFFFFFFFF80000000000
0000003FFFFFFFFFF00000000000
0000000FFFFFFFFFC00000000000
00000007FFFFFFFF800000000000
00000001FFFFFFFE000000000000
000000007FFFFFF0000000000000
000000000FFFFFC0000000000000
0000000000FFF800000000000000
ENDCHAR
STARTCHAR 0050
ENCODING 80
SWIDTH 466 0
DWIDTH 113 0
BBX 98 156 20 2
BITMAP
00000000007FFFF80000000000
00000003FFFFFFFFC000000000
0000003FFFFFFFFFF800000000
000003FFFFFFFFFFFF00000000
00000FFFFFFFFFFFFFE0000000
00003FFFFFFFFFFFFFF8000000
0000FFFFFFFFFFFFFFFC000000
0001FFFFFFFFFFFFFFFF000000
0003FFFFFFFFFFFFFFFF800000
0007FFFFFFFFFFFFFFFFE00000
0007FFFFFFFFFFFFFFFFF00000
000FFFFFFFFFFFFFFFFFF80000
001FFFFFFFFFFFFFFFFFFC0000
001FFFFFFFFFFFFFFFFFFE0000
003FFFFFFFFFFFFFFFFFFF0000
003FFFFFFFFFFFFFFFFFFF8000
003FFFFFFFFFFFFFFFFFFF8000
007FFFFFFFFFFFFFFFFFFFC000
007FFFFFFFFFC000FFFFFFE000
007FFFFFFFFC00003FFFFFE000
007FFFFFFFF000001FFFFFF000
00FFFFFFFFC000000FFFFFF800
00FFFFFFFF00000007FFFFF800
00FFFFFFFC00000003FFFFFC00
00FFFFFFF800000003FFFFFC00
00FFFFFFF000000001FFFFFE00
00FFFFFFE000000000FFFFFE00
00FFFFFFC000000000FFFFFE00
00FFFFFF80000000007FFFFF00
00FFFFFF00000000007FFFFF00
00FFFFFF00000000007FFFFF00
01FFFFFE00000000003FFFFF80
01FFFFFC00000000003FFFFF80
01FFFFFC00000000003FFFFF80
01FFFFF800000000001FFFFFC0
01FFFFF800000000001FFFFFC0
01FFFFF800000000001FFFFFC0
01FFFFF800000000001FFFFFC0
01FFFFF000000000001FFFFFC0
01FFFFF000000000001FFFFFC0
01FFFFF000000000001FFFFFC0
01FFFFF000000000001FFFFFC0
01FFFFF000000000001FFFFFC0
01FFFFF000000000001FFFFFC0
01FFFFF000000000003FFFFFC0
01FFFFF000000000003FFFFFC0
01FFFFF000000000007FFFFFC0
01FFFFF000000000007FFFFFC0
01FFFFF00000000000FFFFFFC0
01FFFFF00000000000FFFFFFC0
01FFFFF00000000001FFFFFFC0
01FFFFF00000000003FFFFFFC0
01FFFFF00000000007FFFFFFC0
01FFFFF0000000000FFFFFFFC0
01FFFFF0000000001FFFFFFF80
01FFFFF0000000003FFFFFFF80
01FFFFF0000000007FFFFFFF80
01FFFFF000000000FFFFFFFF80
01FFFFF000000003FFFFFFFF00
01FFFFF000000007FFFFFFFF00
01FFFFF80000001FFFFFFFFE00
01FFFFF80000007FFFFFFFFE00
01FFFFF8000000FFFFFFFFFE00
01FFFFF8000003FFFFFFFFFC00
01FFFFF800000FFFFFFFFFF800
01FFFFFC00007FFFFFFFFFF800
01FFFFFC0001FFFFFFFFFFF000
01FFFFFC000FFFFFFFFFFFF000
01FFFFFC007FFFFFFFFFFFE000
01FFFFFE0FFFFFFFFFFFFFC000
01FFFFFFFFFFFFFFFFFFFFC000
01FFFFFFFFFFFFFFFFFFFF8000
01FFFFFFFFFFFFFFFFFFFF0000
01FFFFFFFFFFFFFFFFFFFE0000
01FFFFFFFFFFFFFFFFFFFC0000
01FFFFFFFFFFFFFFFFFFF80000
01FFFFFFFFFFFFFFFFFFF00000
01FFFFFFFFFFFFFFFFFFE00000
01FFFFFFFFFFFFFFFFFFC00000
01FFFFFFFFFFFFFFFFFF800000
01FFFFFFFFFFFFFFFFFF000000
01FFFFFFFFFFFFFFFFFC000000
01FFFFFFFFFFFFFFFFF8000000
01FFFFFFFFFFFFFFFFF0000000
01FFFFFFFFFFFFFFFFC0000000
01FFFFFFFFFFFFFFFF00000000
01FFFFFFFFFFFFFFFE00000000
01FFFFFFFFFFFFFFF800000000
01FFFFFFFFFFFFFFE000000000
01FFFFFFFFFFFFFF8000000000
03FFFFFFFFFFFFFE0000000000
03FFFFFFFFFFFFF80000000000
03FFFFFFFFFFFFE00000000000
03FFFFFFFFFFFF000000000000
03FFFFFFFFFFF8000000000000
03FFFFFFFFFFC0000000000000
03FFFFFFFFFC00000000000000
03FFFFFFFFC000000000000000
03FFFFFFFC0000000000000000
03FFFFFFC00000000000000000
03FFFFF8000000000000000000
03FFFFF8000000000000000000
07FFFFF0000000000000000000
07FFFFF0000000000000000000
07FFFFF0000000000000000000
07FFFFF0000000000000000000
07FFFFF0000000000000000000
07FFFFF0000000000000000000
07FFFFF0000000000000000000
07FFFFF0000000000000000000
07FFFFF0000000000000000000
07FFFFF0000000000000000000
0FFFFFF0000000000000000000
0FFFFFF0000000000000000000
0FFFFFF0000000000000000000
0FFFFFE0000000000000000000
0FFFFFE0000000000000000000
0FFFFFE0000000000000000000
0FFFFFE0000000000000000000
0FFFFFE0000000000000000000
1FFFFFE0000000000000000000
1FFFFFE0000000000000000000
1FFFFFE0000000000000000000
1FFFFFE0000000000000000000
1FFFFFE0000000000000000000
1FFFFFF0000000000000000000
3FFFFFF0000000000000000000
3FFFFFF0000000000000000000
3FFFFFF0000000000000000000
3FFFFFF0000000000000000000
3FFFFFF0000000000000000000
3FFFFFF0000000000000000000
3FFFFFF0000000000000000000
3FFFFFF0000000000000000000
7FFFFFF0000000000000000000
7FFFFFF0000000000000000000
7FFFFFF0000000000000000000
7FFFFFF0000000000000000000
7FFFFFF0000000000000000000
7FFFFFF0000000000000000000
7FFFFFF0000000000000000000
FFFFFFF0000000000000000000
FFFFFFF0000000000000000000
7FFFFFF0000000000000000000
7FFFFFE0000000000000000000
7FFFFFE0000000000000000000
7FFFFFE0000000000000000000
7FFFFFE0000000000000000000
3FFFFFC0000000000000000000
3FFFFFC0000000000000000000
3FFFFF80000000000000000000
1FFFFF80000000000000000000
0FFFFF00000000000000000000
07FFFE00000000000000000000
03FFF000000000000000000000
001F8000000000000000000000
ENDCHAR
STARTCHAR 0051
ENCODING 81
SWIDTH 512 0
DWIDTH 124 0
BBX 95 162 16 -3
BITMAP
0000000000001FFE00000000
000000000001FFFFE0000000
00000000000FFFFFF8000000
00000000003FFFFFFE000000
0000000000FFFFFFFF800000
0000000003FFFFFFFFC00000
0000000007FFFFFFFFE00000
000000001FFFFFFFFFF80000
000000003FFFFFFFFFFC0000
000000007FFFFFFFFFFE0000
00000000FFFFFFFFFFFF0000
00000001FFFFFFFFFFFF0000
00000007FFFFFFFFFFFF8000
0000000FFFFFFFFFFFFFC000
0000001FFFFFFFFFFFFFE000
0000001FFFFFFFFFFFFFE000
0000003FFFFFFFFFFFFFF000
0000007FFFFFFFFFFFFFF800
000000FFFFFFFFFFFFFFF800
000001FFFFFFFFFFFFFFFC00
000001FFFFFFFC1FFFFFFC00
000003FFFFFFE007FFFFFE00
000007FFFFFF8003FFFFFE00
00000FFFFFFF0001FFFFFF00
00000FFFFFFE0000FFFFFF00
00001FFFFFFC00007FFFFF00
00003FFFFFF800003FFFFF80
00003FFFFFF000003FFFFF80
00007FFFFFE000001FFFFFC0
00007FFFFFC000001FFFFFC0
0000FFFFFF8000001FFFFFC0
0000FFFFFF8000000FFFFFC0
0001FFFFFF0000000FFFFFE0
0003FFFFFE0000000FFFFFE0
0003FFFFFE0000000FFFFFE0
0007FFFFFC0000000FFFFFF0
0007FFFFFC00000007FFFFF0
000FFFFFF800000007FFFFF0
000FFFFFF800000007FFFFF0
001FFFFFF000000007FFFFF8
001FFFFFF000000007FFFFF8
003FFFFFE000000007FFFFF8
003FFFFFE000000003FFFFF8
003FFFFFE000000003FFFFF8
007FFFFFC000000003FFFFFC
007FFFFFC000000003FFFFFC
00FFFFFF8000000003FFFFFC
00FFFFFF8000000003FFFFFC
00FFFFFF8000000003FFFFFC
01FFFFFF0000000003FFFFFC
01FFFFFF0000000003FFFFFC
01FFFFFE0000000003FFFFFC
03FFFFFE0000000003FFFFFE
03FFFFFE0000000003FFFFFE
03FFFFFC0000000003FFFFFE
07FFFFFC0000000003FFFFFE
07FFFFFC0000000003FFFFFE
07FFFFF80000000003FFFFFE
0FFFFFF80000000003FFFFFE
0FFFFFF80000000003FFFFFE
0FFFFFF00000000003FFFFFE
0FFFFFF00000000003FFFFFE
1FFFFFF00000000003FFFFFE
1FFFFFE00000000003FFFFFE
1FFFFFE00000000003FFFFFE
1FFFFFE00000000003FFFFFE
3FFFFFE00000000003FFFFFE
3FFFFFC00000000003FFFFFE
3FFFFFC00000000003FFFFFE
3FFFFFC00000000003FFFFFE
3FFFFFC00000000003FFFFFE
7FFFFF800000000003FFFFFE
7FFFFF800000000003FFFFFE
7FFFFF800000000003FFFFFE
7FFFFF800000000003FFFFFE
7FFFFF800000000003FFFFFE
7FFFFF000000000003FFFFFE
7FFFFF000000000003FFFFFE
FFFFFF000000000007FFFFFE
FFFFFF000000000007FFFFFC
FFFFFF000000000007FFFFFC
FFFFFE000000000007FFFFFC
FFFFFE000000000007FFFFFC
FFFFFE000000000007FFFFFC
FFFFFE000000000007FFFFFC
FFFFFE00000000000FFFFFFC
FFFFFE00000000000FFFFFFC
FFFFFE00000000000FFFFFF8
FFFFFC00007E00000FFFFFF8
FFFFFC0001FFE0000FFFFFF8
FFFFFC0003FFF8000FFFFFF8
FFFFFC0007FFFE001FFFFFF8
FFFFFC000FFFFF801FFFFFF0
FFFFFC000FFFFFC01FFFFFF0
FFFFFC000FFFFFE01FFFFFF0
FFFFFC000FFFFFF03FFFFFF0
FFFFFC000FFFFFF83FFFFFF0
FFFFFC000FFFFFFC7FFFFFE0
FFFFFC000FFFFFFC7FFFFFE0
FFFFFC0007FFFFFEFFFFFFE0
FFFFFC0007FFFFFEFFFFFFE0
FFFFFC0007FFFFFFFFFFFFC0
FFFFFC0003FFFFFFFFFFFFC0
7FFFFC0003FFFFFFFFFFFFC0
7FFFFC0001FFFFFFFFFFFF80
7FFFFC0001FFFFFFFFFFFF80
7FFFFC0000FFFFFFFFFFFF00
7FFFFC0000FFFFFFFFFFFF00
7FFFFC00007FFFFFFFFFFF00
7FFFFC00003FFFFFFFFFFE00
3FFFFC00001FFFFFFFFFFE00
3FFFFC00001FFFFFFFFFFC00
3FFFFC00000FFFFFFFFFFC00
3FFFFC000007FFFFFFFFF800
1FFFFC000003FFFFFFFFF800
1FFFFE000003FFFFFFFFF000
1FFFFE000001FFFFFFFFF000
1FFFFE000000FFFFFFFFE000
0FFFFE000000FFFFFFFFC000
0FFFFF0000007FFFFFFFC000
0FFFFF0000007FFFFFFF8000
07FFFF0000007FFFFFFF0000
07FFFF8000007FFFFFFE0000
03FFFF800000FFFFFFFF0000
03FFFFC00000FFFFFFFF0000
03FFFFE00001FFFFFFFF8000
01FFFFE00003FFFFFFFF8000
01FFFFF00007FFFFFFFFC000
00FFFFF8000FFFFFFFFFC000
00FFFFFE001FFFFFFFFFE000
007FFFFF807FFFFFFFFFF000
007FFFFFFFFFFFFFFFFFF000
003FFFFFFFFFFFFFFFFFF800
003FFFFFFFFFFFFFFFFFFC00
001FFFFFFFFFFFFFFFFFFC00
000FFFFFFFFFFFFFFFFFFE00
000FFFFFFFFFFFFFFFFFFF00
0007FFFFFFFFFFFFFFFFFF80
0003FFFFFFFFFFFFFFFFFF80
0003FFFFFFFFFFFFFFFFFFC0
0001FFFFFFFFFFFFFFFFFFE0
0000FFFFFFFFFFFFFFFFFFE0
00007FFFFFFFFFFF9FFFFFF0
00007FFFFFFFFFFF0FFFFFF8
00003FFFFFFFFFFF07FFFFF8
00001FFFFFFFFFFE03FFFFFC
00000FFFFFFFFFFC01FFFFFC
000007FFFFFFFFF800FFFFFC
000003FFFFFFFFF0007FFFFC
000001FFFFFFFFE0003FFFFE
0000007FFFFFFFC0003FFFFE
0000003FFFFFFF80001FFFFE
0000000FFFFFFF00000FFFFE
00000003FFFFFC000007FFFC
00000000FFFFF0000007FFFC
000000001FFF80000003FFFC
00000000000000000001FFF8
00000000000000000001FFF0
00000000000000000000FFE0
00000000000000000000FFC0
000000000000000000007F80
000000000000000000003800
ENDCHAR
STARTCHAR 0052
ENCODING 82
SWIDTH 586 0
DWIDTH 142 0
BBX 109 155 21 3
BITMAP
000000000007FFFFFFE000000000
000000007FFFFFFFFFFC00000000
000000FFFFFFFFFFFFFF80000000
00000FFFFFFFFFFFFFFFE0000000
00003FFFFFFFFFFFFFFFF0000000
00007FFFFFFFFFFFFFFFFC000000
0001FFFFFFFFFFFFFFFFFE000000
0003FFFFFFFFFFFFFFFFFF000000
0003FFFFFFFFFFFFFFFFFF800000
0007FFFFFFFFFFFFFFFFFFC00000
000FFFFFFFFFFFFFFFFFFFE00000
000FFFFFFFFFFFFFFFFFFFF00000
001FFFFFFFFFFFFFFFFFFFF80000
001FFFFFFFFFFFFFFFFFFFFC0000
003FFFFFFFFFFFFFFFFFFFFC0000
003FFFFFFFFFFFFFFFFFFFFE0000
003FFFFFFFFFFFFFFFFFFFFF0000
007FFFFFFFFFFFFFFFFFFFFF0000
007FFFFFFFFFFFFFFFFFFFFF8000
007FFFFFFFFFFFFFFFFFFFFF8000
007FFFFFFFFFFFFFFFFFFFFFC000
007FFFFFFFFFFFFFFFFFFFFFC000
00FFFFFFFFFFFFFFFFFFFFFFE000
00FFFFFFFFFFFFFFFFFFFFFFE000
00FFFFFFFE00000000FFFFFFF000
00FFFFFFFC000000003FFFFFF000
00FFFFFFF8000000001FFFFFF000
00FFFFFFF0000000000FFFFFF800
00FFFFFFE00000000007FFFFF800
00FFFFFFE00000000007FFFFF800
00FFFFFFE00000000003FFFFF800
00FFFFFFE00000000003FFFFFC00
00FFFFFFC00000000003FFFFFC00
00FFFFFFC00000000001FFFFFC00
00FFFFFFC00000000001FFFFFC00
00FFFFFFC00000000001FFFFFC00
00FFFFFFC00000000001FFFFFC00
00FFFFFFC00000000001FFFFFC00
00FFFFFFC00000000003FFFFFC00
00FFFFFF800000000003FFFFFC00
00FFFFFF800000000003FFFFFC00
00FFFFFF800000000003FFFFFC00
00FFFFFF800000000007FFFFFC00
00FFFFFF800000000007FFFFFC00
00FFFFFF80000000000FFFFFFC00
00FFFFFF80000000001FFFFFFC00
00FFFFFF80000000001FFFFFF800
00FFFFFF80000000003FFFFFF800
007FFFFF80000000007FFFFFF800
007FFFFF8000000000FFFFFFF000
007FFFFF8000000001FFFFFFF000
007FFFFF0000000003FFFFFFF000
007FFFFF000000000FFFFFFFE000
007FFFFF000000001FFFFFFFE000
007FFFFF000000007FFFFFFFC000
007FFFFF00000000FFFFFFFFC000
007FFFFF00000003FFFFFFFF8000
007FFFFF0000000FFFFFFFFF0000
007FFFFF0000001FFFFFFFFF0000
007FFFFF0000007FFFFFFFFE0000
007FFFFF800001FFFFFFFFFC0000
007FFFFF800007FFFFFFFFF80000
007FFFFF80003FFFFFFFFFF00000
007FFFFF8000FFFFFFFFFFF00000
007FFFFF8007FFFFFFFFFFE00000
007FFFFF803FFFFFFFFFFFC00000
007FFFFFFFFFFFFFFFFFFF800000
007FFFFFFFFFFFFFFFFFFF000000
00FFFFFFFFFFFFFFFFFFFE000000
00FFFFFFFFFFFFFFFFFFFC000000
00FFFFFFFFFFFFFFFFFFF0000000
00FFFFFFFFFFFFFFFFFFE0000000
00FFFFFFFFFFFFFFFFFFC0000000
00FFFFFFFFFFFFFFFFFF80000000
00FFFFFFFFFFFFFFFFFE00000000
01FFFFFFFFFFFFFFFFFC00000000
01FFFFFFFFFFFFFFFFF800000000
01FFFFFFFFFFFFFFFFE000000000
01FFFFFFFFFFFFFFFF8000000000
01FFFFFFFFFFFFFFFF0000000000
01FFFFFFFFFFFFFFFC0000000000
01FFFFFFFFFFFFFFF00000000000
03FFFFFFFFFFFFFF800000000000
03FFFFFFFFFFFFFC000000000000
03FFFFFFFFFFFFC0000000000000
03FFFFFFFFFFFFC0000000000000
03FFFFFFFFFFFFE0000000000000
03FFFFFFFFFFFFF0000000000000
03FFFFFFFFFFFFFC000000000000
07FFFFFFFFFFFFFE000000000000
07FFFFFFFFFFFFFF800000000000
07FFFFFFFFFFFFFFC00000000000
07FFFFFFFFFFFFFFE00000000000
07FFFFFFFFFFFFFFF80000000000
07FFFFFEFFFFFFFFFC0000000000
07FFFFFC3FFFFFFFFE0000000000
0FFFFFFC1FFFFFFFFF0000000000
0FFFFFFC0FFFFFFFFFC000000000
0FFFFFFC03FFFFFFFFE000000000
0FFFFFF801FFFFFFFFF000000000
0FFFFFF800FFFFFFFFF800000000
0FFFFFF8003FFFFFFFFC00000000
1FFFFFF8001FFFFFFFFE00000000
1FFFFFF8000FFFFFFFFF80000000
1FFFFFF80007FFFFFFFFC0000000
1FFFFFF80001FFFFFFFFE0000000
1FFFFFF00000FFFFFFFFF0000000
1FFFFFF000007FFFFFFFF8000000
1FFFFFF000003FFFFFFFFC000000
1FFFFFF000001FFFFFFFFE000000
3FFFFFF000000FFFFFFFFF000000
3FFFFFF0000003FFFFFFFF800000
3FFFFFF0000001FFFFFFFFC00000
3FFFFFF0000000FFFFFFFFE00000
3FFFFFF00000007FFFFFFFF00000
3FFFFFF00000003FFFFFFFFC0000
3FFFFFF00000001FFFFFFFFE0000
7FFFFFF00000000FFFFFFFFF0000
7FFFFFF000000007FFFFFFFF8000
7FFFFFF000000003FFFFFFFFC000
7FFFFFF000000001FFFFFFFFE000
7FFFFFF000000000FFFFFFFFF000
7FFFFFF0000000007FFFFFFFF000
7FFFFFF0000000001FFFFFFFF800
7FFFFFF0000000000FFFFFFFFC00
FFFFFFF00000000007FFFFFFFE00
FFFFFFF00000000003FFFFFFFF00
FFFFFFF00000000003FFFFFFFF00
FFFFFFF00000000001FFFFFFFF80
FFFFFFE00000000000FFFFFFFFC0
FFFFFFE000000000007FFFFFFFC0
FFFFFFE000000000003FFFFFFFE0
FFFFFFE000000000003FFFFFFFE0
FFFFFFE000000000001FFFFFFFF0
FFFFFFE000000000001FFFFFFFF0
FFFFFFE000000000000FFFFFFFF8
FFFFFFC0000000000007FFFFFFF8
FFFFFFC0000000000007FFFFFFF8
FFFFFFC0000000000003FFFFFFF8
FFFFFFC0000000000001FFFFFFF8
FFFFFFC0000000000000FFFFFFF8
FFFFFF80000000000000FFFFFFF8
FFFFFF800000000000007FFFFFF8
7FFFFF800000000000003FFFFFF8
7FFFFF800000000000003FFFFFF8
7FFFFF000000000000001FFFFFF8
7FFFFF000000000000000FFFFFF0
3FFFFE0000000000000007FFFFF0
3FFFFE0000000000000003FFFFF0
1FFFFC0000000000000001FFFFF0
0FFFFC0000000000000000FFFFE0
07FFF800000000000000007FFFC0
03FFF000000000000000001FFFC0
00FFE0000000000000000007FF00
001F800000000000000000007000
ENDCHAR
STARTCHAR 0053
ENCODING 83
SWIDTH 533 0
DWIDTH 129 0
BBX 108 158 19 0
BITMAP
00000000000001FFFE0000000000
0000000000003FFFFFF800000000
000000000001FFFFFFFF00000000
00000000000FFFFFFFFFE0000000
00000000003FFFFFFFFFFC000000
0000000000FFFFFFFFFFFF000000
0000000003FFFFFFFFFFFFC00000
000000000FFFFFFFFFFFFFF00000
000000001FFFFFFFFFFFFFF80000
000000007FFFFFFFFFFFFFFE0000
00000001FFFFFFFFFFFFFFFF0000
00000003FFFFFFFFFFFFFFFF8000
00000007FFFFFFFFFFFFFFFFC000
0000000FFFFFFFFFFFFFFFFFE000
0000003FFFFFFFFFFFFFFFFFF000
0000007FFFFFFFFFFFFFFFFFF800
000000FFFFFFFFFFFFFFFFFFFC00
000001FFFFFFFFFFFFFFFFFFFE00
000003FFFFFFFFFFFFFFFFFFFF00
000007FFFFFFFFFFFFFFFFFFFF00
00000FFFFFFFFFFFFFFFFFFFFF80
00001FFFFFFFFFFFFFFFFFFFFF80
00003FFFFFFFFFFFFFFFFFFFFFC0
00003FFFFFFFFFFFFFFFFFFFFFC0
00007FFFFFFFFFFFFFFFFFFFFFE0
0000FFFFFFFFFFF8001FFFFFFFE0
0001FFFFFFFFFF800001FFFFFFE0
0003FFFFFFFFFC0000003FFFFFF0
0003FFFFFFFFE000000007FFFFF0
0007FFFFFFFF8000000001FFFFF0
000FFFFFFFFE00000000003FFFF0
000FFFFFFFFC00000000000FFFF0
001FFFFFFFF0000000000001FFF0
003FFFFFFFC00000000000001FC0
003FFFFFFF800000000000000000
007FFFFFFF000000000000000000
007FFFFFFC000000000000000000
00FFFFFFF8000000000000000000
00FFFFFFF0000000000000000000
01FFFFFFE0000000000000000000
01FFFFFFC0000000000000000000
03FFFFFF80000000000000000000
03FFFFFF80000000000000000000
07FFFFFF00000000000000000000
07FFFFFE00000000000000000000
07FFFFFE00000000000000000000
0FFFFFFC00000000000000000000
0FFFFFFC00000000000000000000
0FFFFFF800000000000000000000
1FFFFFF800000000000000000000
1FFFFFF800000000000000000000
1FFFFFF000000000000000000000
1FFFFFF000000000000000000000
3FFFFFF000000000000000000000
3FFFFFF000000000000000000000
3FFFFFF000000000000000000000
3FFFFFE000000000000000000000
3FFFFFE000000000000000000000
3FFFFFE000000000000000000000
3FFFFFE000000000000000000000
3FFFFFF000000000000000000000
7FFFFFF000000000000000000000
7FFFFFF000000000000000000000
7FFFFFF800000000000000000000
7FFFFFF800000000FFC000000000
7FFFFFFC0000003FFFFE00000000
7FFFFFFF000007FFFFFFC0000000
7FFFFFFF8003FFFFFFFFF8000000
7FFFFFFFFFFFFFFFFFFFFE000000
3FFFFFFFFFFFFFFFFFFFFF800000
3FFFFFFFFFFFFFFFFFFFFFC00000
3FFFFFFFFFFFFFFFFFFFFFF00000
3FFFFFFFFFFFFFFFFFFFFFF80000
3FFFFFFFFFFFFFFFFFFFFFFC0000
3FFFFFFFFFFFFFFFFFFFFFFE0000
1FFFFFFFFFFFFFFFFFFFFFFF0000
1FFFFFFFFFFFFFFFFFFFFFFF8000
1FFFFFFFFFFFFFFFFFFFFFFF8000
0FFFFFFFFFFFFFFFFFFFFFFFC000
0FFFFFFFFFFFFFFFFFFFFFFFE000
07FFFFFFFFFFFFFFFFFFFFFFE000
07FFFFFFFFFFFFFFFFFFFFFFF000
03FFFFFFFFFFFFFFFFFFFFFFF000
01FFFFFFFFFFFFFFFFFFFFFFF800
00FFFFFFFFFFFFFFFFFFFFFFF800
007FFFFFFFFFFFFFFFFFFFFFF800
003FFFFFFFFFFFFFFFFFFFFFFC00
001FFFFFFFFFFFFFFFFFFFFFFC00
0007FFFFFFFFFFFFFFFFFFFFFC00
0001FFFFFFFFFFFFFFFFFFFFFC00
00007FFFFFFFFFFFFFFFFFFFFE00
00000FFFFFFFFFFFFFFFFFFFFE00
000000FFFFFFFFFFFE0FFFFFFE00
000000007FFE00000003FFFFFE00
00000000000000000003FFFFFE00
00000000000000000001FFFFFE00
00000000000000000001FFFFFE00
00000000000000000001FFFFFE00
00000000000000000001FFFFFE00
00000000000000000001FFFFFE00
00000000000000000001FFFFFE00
00000000000000000001FFFFFE00
00000000000000000001FFFFFE00
00000000000000000001FFFFFE00
00000000000000000001FFFFFE00
00000000000000000001FFFFFE00
00000000000000000001FFFFFE00
00000000000000000003FFFFFE00
00000000000000000003FFFFFE00
00000000000000000003FFFFFE00
00000000000000000003FFFFFE00
00000000000000000007FFFFFC00
00000000000000000007FFFFFC00
0000000000000000000FFFFFFC00
0000000000000000000FFFFFFC00
0000000000000000001FFFFFF800
0000000000000000001FFFFFF800
0000000000000000003FFFFFF000
0000000000000000007FFFFFF000
000000000000000000FFFFFFE000
000000000000000000FFFFFFE000
000000000000000001FFFFFFC000
000000000000000007FFFFFFC000
00000000000000000FFFFFFF8000
00000000000000001FFFFFFF8000
00000000000000007FFFFFFF0000
0000000000000000FFFFFFFE0000
6000000000000003FFFFFFFC0000
FE0000000000000FFFFFFFFC0000
FFC000000000007FFFFFFFF80000
FFF80000000001FFFFFFFFF00000
FFFF000000001FFFFFFFFFE00000
FFFFE0000001FFFFFFFFFFC00000
FFFFFF8001FFFFFFFFFFFF800000
FFFFFFFFFFFFFFFFFFFFFF000000
FFFFFFFFFFFFFFFFFFFFFE000000
FFFFFFFFFFFFFFFFFFFFFC000000
7FFFFFFFFFFFFFFFFFFFF8000000
7FFFFFFFFFFFFFFFFFFFF0000000
7FFFFFFFFFFFFFFFFFFFC0000000
7FFFFFFFFFFFFFFFFFFF80000000
3FFFFFFFFFFFFFFFFFFF00000000
3FFFFFFFFFFFFFFFFFFC00000000
3FFFFFFFFFFFFFFFFFF800000000
3FFFFFFFFFFFFFFFFFE000000000
1FFFFFFFFFFFFFFFFFC000000000
1FFFFFFFFFFFFFFFFF0000000000
1FFFFFFFFFFFFFFFFC0000000000
1FFFFFFFFFFFFFFFF00000000000
07FFFFFFFFFFFFFFC00000000000
01FFFFFFFFFFFFFF000000000000
007FFFFFFFFFFFFC000000000000
000FFFFFFFFFFFF0000000000000
0003FFFFFFFFFF80000000000000
00007FFFFFFFFC00000000000000
00000FFFFFFFC000000000000000
000000FFFFF80000000000000000
00000001F0000000000000000000
ENDCHAR
STARTCHAR 0054
ENCODING 84
SWIDTH 545 0
DWIDTH 132 0
BBX 114 157 22 1
BITMAP
000000000000000001FFFF00000000
00000000000001FFFFFFFFFFFC0000
00000000001FFFFFFFFFFFFFFF0000
000000007FFFFFFFFFFFFFFFFFC000
000000FFFFFFFFFFFFFFFFFFFFE000
0001FFFFFFFFFFFFFFFFFFFFFFF000
007FFFFFFFFFFFFFFFFFFFFFFFF800
07FFFFFFFFFFFFFFFFFFFFFFFFFC00
1FFFFFFFFFFFFFFFFFFFFFFFFFFE00
3FFFFFFFFFFFFFFFFFFFFFFFFFFF00
7FFFFFFFFFFFFFFFFFFFFFFFFFFF00
FFFFFFFFFFFFFFFFFFFFFFFFFFFF80
FFFFFFFFFFFFFFFFFFFFFFFFFFFF80
FFFFFFFFFFFFFFFFFFFFFFFFFFFF80
FFFFFFFFFFFFFFFFFFFFFFFFFFFFC0
FFFFFFFFFFFFFFFFFFFFFFFFFFFFC0
FFFFFFFFFFFFFFFFFFFFFFFFFFFFC0
FFFFFFFFFFFFFFFFFFFFFFFFFFFF80
FFFFFFFFFFFFFFFFFFFFFFFFFFFF80
FFFFFFFFFFFFFFFFFFFFFFFFFFFF80
FFFFFFFFFFFFFFFFFFFFFFFFFFFF00
7FFFFFFFFFFFFFFFFFFFFFFFFFFE00
7FFFFFFFFFFFFFFFFFFFFFFFFFFC00
7FFFFFFFFFFFFFFFFFFFFFFFFFF000
3FFFFFFFFFFFFFFFFFFFFFFFFFC000
3FFFFFF803FFFFFFFFFFFFFFFC0000
1FF8000003FFFFFFFF000000000000
0000000003FFFFFFFF000000000000
0000000001FFFFFFFF000000000000
0000000001FFFFFFFF000000000000
0000000001FFFFFFFE000000000000
0000000001FFFFFFFE000000000000
0000000001FFFFFFFE000000000000
0000000001FFFFFFFE000000000000
0000000001FFFFFFFE000000000000
0000000001FFFFFFFE000000000000
0000000001FFFFFFFE000000000000
0000000001FFFFFFFC000000000000
0000000001FFFFFFFC000000000000
0000000001FFFFFFFC000000000000
0000000001FFFFFFFC000000000000
0000000001FFFFFFFC000000000000
0000000000FFFFFFFC000000000000
0000000000FFFFFFF8000000000000
0000000000FFFFFFF8000000000000
0000000000FFFFFFF8000000000000
0000000000FFFFFFF8000000000000
0000000000FFFFFFF8000000000000
0000000000FFFFFFF8000000000000
0000000000FFFFFFF8000000000000
0000000000FFFFFFF0000000000000
0000000000FFFFFFF0000000000000
0000000001FFFFFFF0000000000000
0000000001FFFFFFF0000000000000
0000000001FFFFFFF0000000000000
0000000001FFFFFFF0000000000000
0000000001FFFFFFF0000000000000
0000000001FFFFFFE0000000000000
0000000001FFFFFFE0000000000000
0000000001FFFFFFE0000000000000
0000000001FFFFFFE0000000000000
0000000001FFFFFFE0000000000000
0000000001FFFFFFE0000000000000
0000000001FFFFFFC0000000000000
0000000001FFFFFFC0000000000000
0000000001FFFFFFC0000000000000
0000000001FFFFFFC0000000000000
0000000001FFFFFFC0000000000000
0000000001FFFFFFC0000000000000
0000000001FFFFFFC0000000000000
0000000001FFFFFF80000000000000
0000000001FFFFFF80000000000000
0000000003FFFFFF80000000000000
0000000003FFFFFF80000000000000
0000000003FFFFFF80000000000000
0000000003FFFFFF80000000000000
0000000003FFFFFF80000000000000
0000000003FFFFFF00000000000000
0000000003FFFFFF00000000000000
0000000003FFFFFF00000000000000
0000000003FFFFFF00000000000000
0000000003FFFFFF00000000000000
0000000003FFFFFF00000000000000
0000000007FFFFFF00000000000000
0000000007FFFFFE00000000000000
0000000007FFFFFE00000000000000
0000000007FFFFFE00000000000000
0000000007FFFFFE00000000000000
0000000007FFFFFE00000000000000
000000000FFFFFFE00000000000000
000000000FFFFFFE00000000000000
000000000FFFFFFC00000000000000
000000000FFFFFFC00000000000000
000000000FFFFFFC00000000000000
000000000FFFFFFC00000000000000
000000001FFFFFFC00000000000000
000000001FFFFFFC00000000000000
000000001FFFFFFC00000000000000
000000001FFFFFF800000000000000
000000003FFFFFF800000000000000
000000003FFFFFF800000000000000
000000003FFFFFF800000000000000
000000003FFFFFF800000000000000
000000003FFFFFF800000000000000
000000007FFFFFF800000000000000
000000007FFFFFF000000000000000
000000007FFFFFF000000000000000
000000007FFFFFF000000000000000
00000000FFFFFFF000000000000000
00000000FFFFFFF000000000000000
00000000FFFFFFF000000000000000
00000000FFFFFFF000000000000000
00000000FFFFFFE000000000000000
00000001FFFFFFE000000000000000
00000001FFFFFFE000000000000000
00000001FFFFFFE000000000000000
00000001FFFFFFE000000000000000
00000001FFFFFFE000000000000000
00000003FFFFFFC000000000000000
00000003FFFFFFC000000000000000
00000003FFFFFFC000000000000000
00000003FFFFFFC000000000000000
00000003FFFFFFC000000000000000
00000007FFFFFFC000000000000000
00000007FFFFFF8000000000000000
00000007FFFFFF8000000000000000
00000007FFFFFF8000000000000000
00000007FFFFFF8000000000000000
0000000FFFFFFF8000000000000000
0000000FFFFFFF0000000000000000
0000000FFFFFFF0000000000000000
0000000FFFFFFF0000000000000000
0000000FFFFFFF0000000000000000
0000000FFFFFFE0000000000000000
0000000FFFFFFE0000000000000000
0000001FFFFFFE0000000000000000
0000001FFFFFFE0000000000000000
0000001FFFFFFE0000000000000000
0000001FFFFFFC0000000000000000
0000001FFFFFFC0000000000000000
0000001FFFFFFC0000000000000000
0000001FFFFFFC0000000000000000
0000001FFFFFF80000000000000000
0000001FFFFFF80000000000000000
0000001FFFFFF80000000000000000
0000001FFFFFF00000000000000000
0000001FFFFFF00000000000000000
0000001FFFFFE00000000000000000
0000001FFFFFE00000000000000000
0000000FFFFFC00000000000000000
0000000FFFFFC00000000000000000
00000007FFFF800000000000000000
00000003FFFF000000000000000000
00000001FFFE000000000000000000
000000007FFC000000000000000000
000000001FF0000000000000000000
000000000180000000000000000000
ENDCHAR
STARTCHAR 0055
ENCODING 85
SWIDTH 500 0
DWIDTH 121 0
BBX 99 156 21 1
BITMAP
00000380000000000000000000
00001FE0000000000000000000
00007FF00000000000003F0000
0001FFF8000000000000FFC000
0007FFFC000000000001FFE000
000FFFFE000000000003FFF000
001FFFFE000000000007FFFC00
003FFFFF00000000000FFFFC00
007FFFFF00000000000FFFFE00
00FFFFFF80000000001FFFFF00
00FFFFFF80000000001FFFFF80
01FFFFFF80000000003FFFFFC0
01FFFFFFC0000000003FFFFFC0
01FFFFFFC0000000007FFFFFE0
01FFFFFFC0000000007FFFFFE0
01FFFFFFC0000000007FFFFFE0
01FFFFFFC000000000FFFFFFE0
03FFFFFFC000000000FFFFFFC0
03FFFFFFE000000000FFFFFFC0
01FFFFFFE000000001FFFFFF80
01FFFFFFE000000001FFFFFF80
01FFFFFFE000000001FFFFFF00
01FFFFFFE000000003FFFFFF00
01FFFFFFE000000003FFFFFE00
01FFFFFFE000000003FFFFFE00
01FFFFFFE000000003FFFFFC00
01FFFFFFE000000003FFFFFC00
01FFFFFFC000000007FFFFFC00
01FFFFFFC000000007FFFFFC00
01FFFFFFC000000007FFFFF800
01FFFFFFC000000007FFFFF800
01FFFFFFC000000007FFFFF800
01FFFFFFC000000007FFFFF800
01FFFFFFC000000007FFFFF800
01FFFFFFC00000000FFFFFF800
01FFFFFFC00000000FFFFFF000
01FFFFFFC00000000FFFFFF000
01FFFFFFC00000000FFFFFF000
01FFFFFFC00000000FFFFFF000
01FFFFFF800000000FFFFFF000
01FFFFFF800000000FFFFFF000
01FFFFFF800000000FFFFFF000
01FFFFFF800000001FFFFFF000
03FFFFFF800000001FFFFFF000
03FFFFFF800000001FFFFFF000
03FFFFFF800000001FFFFFF000
03FFFFFF800000001FFFFFF000
03FFFFFF000000001FFFFFF000
03FFFFFF000000001FFFFFF000
03FFFFFF000000001FFFFFF000
07FFFFFF000000001FFFFFF000
07FFFFFF000000003FFFFFF000
07FFFFFF000000003FFFFFF000
07FFFFFF000000003FFFFFF000
07FFFFFE000000003FFFFFF000
07FFFFFE000000003FFFFFE000
07FFFFFE000000003FFFFFE000
0FFFFFFE000000003FFFFFE000
0FFFFFFE000000003FFFFFE000
0FFFFFFE000000007FFFFFE000
0FFFFFFE000000007FFFFFE000
0FFFFFFE000000007FFFFFE000
0FFFFFFC000000007FFFFFE000
0FFFFFFC000000007FFFFFE000
1FFFFFFC000000007FFFFFE000
1FFFFFFC000000007FFFFFE000
1FFFFFFC000000007FFFFFE000
1FFFFFFC00000000FFFFFFE000
1FFFFFFC00000000FFFFFFE000
1FFFFFF800000000FFFFFFE000
3FFFFFF800000000FFFFFFE000
3FFFFFF800000000FFFFFFE000
3FFFFFF800000000FFFFFFE000
3FFFFFF800000000FFFFFFE000
3FFFFFF800000001FFFFFFE000
3FFFFFF800000001FFFFFFC000
3FFFFFF800000001FFFFFFC000
3FFFFFF000000001FFFFFFC000
3FFFFFF000000001FFFFFFC000
3FFFFFF000000001FFFFFFC000
7FFFFFF000000001FFFFFFC000
7FFFFFF000000001FFFFFFC000
7FFFFFF000000003FFFFFFC000
7FFFFFF000000003FFFFFFC000
7FFFFFE000000003FFFFFFC000
7FFFFFE000000003FFFFFF8000
7FFFFFE000000003FFFFFF8000
7FFFFFE000000003FFFFFF8000
7FFFFFE000000003FFFFFF8000
7FFFFFE000000007FFFFFF8000
FFFFFFE000000007FFFFFF8000
FFFFFFE000000007FFFFFF8000
FFFFFFE000000007FFFFFF0000
FFFFFFC000000007FFFFFF0000
FFFFFFC000000007FFFFFF0000
FFFFFFC00000000FFFFFFF0000
FFFFFFC00000000FFFFFFF0000
FFFFFFC00000000FFFFFFE0000
FFFFFFC00000000FFFFFFE0000
FFFFFFC00000000FFFFFFE0000
FFFFFFC00000001FFFFFFE0000
FFFFFFC00000001FFFFFFE0000
FFFFFFC00000001FFFFFFC0000
FFFFFFC00000001FFFFFFC0000
FFFFFFC00000003FFFFFFC0000
FFFFFFC00000003FFFFFFC0000
FFFFFFC00000003FFFFFF80000
FFFFFFC00000003FFFFFF80000
FFFFFFC00000007FFFFFF80000
FFFFFFC00000007FFFFFF80000
FFFFFFC00000007FFFFFF00000
FFFFFFC00000007FFFFFF00000
FFFFFFC0000000FFFFFFF00000
FFFFFFC0000000FFFFFFE00000
FFFFFFE0000001FFFFFFE00000
7FFFFFE0000001FFFFFFE00000
7FFFFFE0000001FFFFFFC00000
7FFFFFE0000003FFFFFFC00000
7FFFFFE0000003FFFFFFC00000
7FFFFFE0000007FFFFFF800000
3FFFFFF0000007FFFFFF800000
3FFFFFF000000FFFFFFF800000
3FFFFFF000001FFFFFFF000000
3FFFFFF800001FFFFFFF000000
1FFFFFF800003FFFFFFE000000
1FFFFFFC00007FFFFFFE000000
1FFFFFFC0000FFFFFFFC000000
0FFFFFFE0001FFFFFFFC000000
0FFFFFFF0007FFFFFFF8000000
07FFFFFF800FFFFFFFF8000000
07FFFFFFE07FFFFFFFF0000000
03FFFFFFFFFFFFFFFFF0000000
03FFFFFFFFFFFFFFFFE0000000
03FFFFFFFFFFFFFFFFE0000000
01FFFFFFFFFFFFFFFFC0000000
00FFFFFFFFFFFFFFFF80000000
00FFFFFFFFFFFFFFFF80000000
007FFFFFFFFFFFFFFF00000000
007FFFFFFFFFFFFFFE00000000
003FFFFFFFFFFFFFFE00000000
001FFFFFFFFFFFFFFC00000000
000FFFFFFFFFFFFFF800000000
000FFFFFFFFFFFFFF000000000
0007FFFFFFFFFFFFE000000000
0003FFFFFFFFFFFFE000000000
0001FFFFFFFFFFFFC000000000
0000FFFFFFFFFFFF8000000000
00007FFFFFFFFFFE0000000000
00001FFFFFFFFFFC0000000000
00000FFFFFFFFFF80000000000
000007FFFFFFFFF00000000000
000001FFFFFFFFC00000000000
0000007FFFFFFF800000000000
0000001FFFFFFE000000000000
00000003FFFFF0000000000000
000000007FFF80000000000000
ENDCHAR
STARTCHAR 0056
ENCODING 86
SWIDTH 504 0
DWIDTH 122 0
BBX 102 156 23 1
BITMAP
0000000000000000000001C000
0000000000000000000007E000
000000000000000000000FF800
0007C0000000000000001FFC00
007FF0000000000000003FFE00
01FFF8000000000000007FFF00
07FFFC00000000000000FFFF00
0FFFFE00000000000000FFFF80
1FFFFE00000000000001FFFFC0
3FFFFF00000000000003FFFFC0
7FFFFF00000000000003FFFFE0
7FFFFF80000000000007FFFFE0
FFFFFF80000000000007FFFFF0
FFFFFF8000000000000FFFFFF0
7FFFFFC000000000000FFFFFF8
7FFFFFC000000000001FFFFFF8
7FFFFFC000000000001FFFFFF8
7FFFFFC000000000003FFFFFFC
7FFFFFC000000000007FFFFFFC
7FFFFFE000000000007FFFFFFC
3FFFFFE000000000007FFFFFFC
3FFFFFE00000000000FFFFFFFC
3FFFFFE00000000000FFFFFFFC
3FFFFFE00000000001FFFFFFFC
3FFFFFE00000000001FFFFFFFC
1FFFFFE00000000003FFFFFFF8
1FFFFFE00000000003FFFFFFF8
1FFFFFF00000000003FFFFFFF8
1FFFFFF00000000007FFFFFFF0
1FFFFFF00000000007FFFFFFF0
0FFFFFF0000000000FFFFFFFF0
0FFFFFF0000000000FFFFFFFE0
0FFFFFF0000000001FFFFFFFC0
0FFFFFF0000000001FFFFFFFC0
0FFFFFF0000000001FFFFFFF80
07FFFFF0000000003FFFFFFF80
07FFFFF0000000003FFFFFFF00
07FFFFF0000000007FFFFFFF00
07FFFFF0000000007FFFFFFE00
07FFFFF0000000007FFFFFFC00
07FFFFF000000000FFFFFFFC00
03FFFFF000000000FFFFFFF800
03FFFFF000000000FFFFFFF000
03FFFFF000000001FFFFFFF000
03FFFFF000000001FFFFFFE000
03FFFFF000000001FFFFFFE000
03FFFFF000000003FFFFFFC000
01FFFFF000000003FFFFFFC000
01FFFFF000000003FFFFFF8000
01FFFFF000000007FFFFFF8000
01FFFFF000000007FFFFFF0000
01FFFFF000000007FFFFFF0000
01FFFFF000000007FFFFFF0000
01FFFFF00000000FFFFFFE0000
00FFFFF00000000FFFFFFE0000
00FFFFF00000000FFFFFFC0000
00FFFFF00000001FFFFFFC0000
00FFFFF00000001FFFFFFC0000
00FFFFF00000001FFFFFF80000
00FFFFF00000003FFFFFF80000
007FFFF00000003FFFFFF00000
007FFFF00000003FFFFFF00000
007FFFF00000007FFFFFF00000
007FFFF00000007FFFFFE00000
007FFFF00000007FFFFFE00000
007FFFF0000000FFFFFFC00000
007FFFF0000000FFFFFFC00000
007FFFF0000000FFFFFFC00000
003FFFF0000001FFFFFF800000
003FFFF8000001FFFFFF800000
003FFFF8000001FFFFFF800000
003FFFF8000003FFFFFF000000
003FFFF8000003FFFFFF000000
003FFFF8000003FFFFFF000000
003FFFF8000007FFFFFE000000
003FFFF8000007FFFFFE000000
003FFFF8000007FFFFFE000000
001FFFF800000FFFFFFC000000
001FFFF800000FFFFFFC000000
001FFFF800000FFFFFFC000000
001FFFF800001FFFFFF8000000
001FFFF800001FFFFFF8000000
001FFFF800001FFFFFF8000000
001FFFF800003FFFFFF0000000
001FFFF800003FFFFFF0000000
001FFFF800003FFFFFE0000000
001FFFF800007FFFFFE0000000
001FFFF800007FFFFFE0000000
001FFFF800007FFFFFC0000000
000FFFF80000FFFFFFC0000000
000FFFFC0000FFFFFFC0000000
000FFFFC0000FFFFFF80000000
000FFFFC0001FFFFFF80000000
000FFFFC0001FFFFFF00000000
000FFFFC0003FFFFFF00000000
000FFFFE0003FFFFFF00000000
000FFFFE0003FFFFFE00000000
000FFFFE0007FFFFFE00000000
000FFFFE0007FFFFFE00000000
0007FFFE000FFFFFFC00000000
0007FFFE000FFFFFFC00000000
0007FFFF001FFFFFFC00000000
0007FFFF001FFFFFF800000000
0007FFFF003FFFFFF800000000
0007FFFF803FFFFFF000000000
0007FFFF807FFFFFF000000000
0007FFFFC0FFFFFFE000000000
0007FFFFE1FFFFFFE000000000
0007FFFFF3FFFFFFE000000000
0007FFFFFFFFFFFFC000000000
0003FFFFFFFFFFFFC000000000
0003FFFFFFFFFFFF8000000000
0003FFFFFFFFFFFF8000000000
0003FFFFFFFFFFFF0000000000
0003FFFFFFFFFFFF0000000000
0003FFFFFFFFFFFF0000000000
0003FFFFFFFFFFFE0000000000
0003FFFFFFFFFFFE0000000000
0003FFFFFFFFFFFC0000000000
0003FFFFFFFFFFFC0000000000
0003FFFFFFFFFFF80000000000
0001FFFFFFFFFFF80000000000
0001FFFFFFFFFFF80000000000
0001FFFFFFFFFFF00000000000
0001FFFFFFFFFFF00000000000
0001FFFFFFFFFFE00000000000
0001FFFFFFFFFFE00000000000
0001FFFFFFFFFFC00000000000
0000FFFFFFFFFFC00000000000
0000FFFFFFFFFF800000000000
0000FFFFFFFFFF800000000000
0000FFFFFFFFFF000000000000
0000FFFFFFFFFF000000000000
00007FFFFFFFFE000000000000
00007FFFFFFFFE000000000000
00007FFFFFFFFC000000000000
00007FFFFFFFF8000000000000
00007FFFFFFFF8000000000000
00003FFFFFFFF0000000000000
00003FFFFFFFF0000000000000
00003FFFFFFFE0000000000000
00003FFFFFFFC0000000000000
00003FFFFFFFC0000000000000
00001FFFFFFF80000000000000
00001FFFFFFF00000000000000
00001FFFFFFE00000000000000
00001FFFFFFE00000000000000
00000FFFFFFC00000000000000
00000FFFFFF800000000000000
00000FFFFFE000000000000000
000007FFFFC000000000000000
000007FFFF8000000000000000
000003FFFE0000000000000000
000001FFF80000000000000000
0000007FE00000000000000000
00000008000000000000000000
ENDCHAR
ENDFONT
